<?xml version="1.0" encoding="UTF-8" standalone="no"?>
<!-- Created with Inkscape (http://www.inkscape.org/) -->

<svg
   xmlns:dc="http://purl.org/dc/elements/1.1/"
   xmlns:cc="http://creativecommons.org/ns#"
   xmlns:rdf="http://www.w3.org/1999/02/22-rdf-syntax-ns#"
   xmlns:svg="http://www.w3.org/2000/svg"
   xmlns="http://www.w3.org/2000/svg"
   xmlns:sodipodi="http://sodipodi.sourceforge.net/DTD/sodipodi-0.dtd"
   xmlns:inkscape="http://www.inkscape.org/namespaces/inkscape"
   id="svg2"
   version="1.1"
   inkscape:version="0.48.3.1 r9886"
   width="563.75"
   height="563.75"
   xml:space="preserve"
   sodipodi:docname="komlogo-new.eps"><metadata
     id="metadata8"><rdf:RDF><cc:Work
         rdf:about=""><dc:format>image/svg+xml</dc:format><dc:type
           rdf:resource="http://purl.org/dc/dcmitype/StillImage" /><dc:title></dc:title></cc:Work></rdf:RDF></metadata><defs
     id="defs6" /><sodipodi:namedview
     pagecolor="#ffffff"
     bordercolor="#666666"
     borderopacity="1"
     objecttolerance="10"
     gridtolerance="10"
     guidetolerance="10"
     inkscape:pageopacity="0"
     inkscape:pageshadow="2"
     inkscape:window-width="1920"
     inkscape:window-height="1056"
     id="namedview4"
     showgrid="false"
     inkscape:zoom="0.41862528"
     inkscape:cx="-142.13189"
     inkscape:cy="281.875"
     inkscape:window-x="1366"
     inkscape:window-y="24"
     inkscape:window-maximized="1"
     inkscape:current-layer="g10" /><g
     id="g10"
     inkscape:groupmode="layer"
     inkscape:label="ink_ext_XXXXXX"
     transform="matrix(1.25,0,0,-1.25,0,563.75)"><g
       id="g12"
       transform="scale(0.1,0.1)"
       style="fill:#000000;fill-opacity:1"><path
         d="m 2160.96,4505.63 c -134.75,-5.87 -258.69,-21.74 -385.93,-49.4 C 1148.27,4319.95 604.922,3917.34 287.582,3354.06 122.445,3060.94 25.3633,2733.49 4.19922,2398.22 -0.101562,2330.08 -1.41016,2228.83 1.20703,2166.91 13.3984,1878.38 75.1758,1609.73 188.816,1351.04 392.621,887.098 751.691,500.602 1200.6,261.977 1737.61,-23.4805 2369.8,-78.375 2948.87,110.164 c 337.4,109.856 642.78,297.727 896.73,551.68 189.6,189.597 341.38,406.386 453.54,647.816 182.17,392.08 246.49,828.94 185.68,1261.13 -43.28,307.67 -152.73,607.02 -319.31,873.42 -124.8,199.57 -281.31,379.87 -462.62,532.92 -149.19,125.93 -320.16,235.66 -494.16,317.14 -255,119.4 -521.27,188.56 -800.4,207.87 -74.45,5.16 -176.14,6.59 -247.37,3.49 z m 164.95,-36.29 c 63.75,-2.34 119.67,-6.45 178.76,-13.14 434.21,-49.18 844.75,-227.4 1180.38,-512.39 77.3,-65.65 154.58,-141.08 222.45,-217.14 290.5,-325.55 478.04,-727.02 539.92,-1155.88 30.1,-208.6 30.11,-425.53 0.02,-634.13 C 4373.21,1422.05 4118.41,949.512 3726.67,599.941 3252.77,177.055 2626.33,-21.4414 1996.84,51.8125 1548.23,104.02 1127.01,292.734 786.723,593.973 387.602,947.289 129.254,1427.88 57.1953,1951.05 43.168,2052.91 36.8672,2146.69 36.8672,2253.72 c 0,56.62 0.9961,90.18 4.1992,141.53 30.4727,488.45 225.1756,955.48 552.3316,1324.88 392.801,443.51 939.252,710.86 1525.342,746.26 67.79,4.1 145.76,5.21 207.17,2.95"
         style="fill-opacity:1;fill-rule:nonzero;stroke:none;fill:#000000"
         id="path14" /><path
         d="m 2082.7,4377.52 -38.41,-4.82 7.2,-7.25 c 8.62,-8.69 10.28,-10.99 12.67,-17.61 1.5,-4.16 24.75,-185.15 23.89,-186 -0.13,-0.13 -40.31,39.52 -89.43,88.24 -49.12,48.73 -93.02,91.96 -97.7,96.22 l -8.51,7.73 -30.14,-3.63 c -16.54,-1.99 -31.36,-3.87 -32.83,-4.16 -2.42,-0.49 -1.84,-1.36 6.13,-9.22 7.84,-7.74 9.07,-9.57 11.34,-16.89 3.47,-11.16 30.27,-237.74 29.5,-249.4 -0.59,-8.93 -3.3,-14.5 -11.64,-23.9 l -5.06,-5.71 4.04,0.66 c 2.22,0.36 21.71,2.79 43.23,5.41 21.53,2.61 39.38,4.97 39.61,5.23 0.23,0.26 -2.09,1.94 -5.18,3.74 -8.8,5.15 -14.22,10.78 -17.59,18.26 -2.8,6.22 -4.22,16 -14.46,99.37 -6.25,50.9 -11.18,92.89 -10.97,93.42 0.34,0.81 34.22,-32.07 139.48,-135.33 20.33,-19.95 41.4,-39.6 46.97,-43.82 13.68,-10.35 36.3,-21.45 48.64,-23.88 5.36,-1.05 9.88,-1.65 10.17,-1.35 0.3,0.29 -7.22,63.63 -16.7,140.81 -12.26,99.66 -17.1,142.52 -16.75,148.01 0.52,7.94 2.71,13.91 9.07,24.74 2.02,3.45 3.24,6.13 2.74,6.06 -0.49,-0.06 -18.14,-2.28 -39.31,-4.93"
         style="fill-opacity:1;fill-rule:nonzero;stroke:none;fill:#000000"
         id="path16" /><path
         d="m 2201.39,4381.32 c -20.57,-0.42 -37.59,-0.85 -37.76,-0.95 -0.16,-0.1 2.56,-3.03 6.01,-6.48 6.48,-6.48 9.91,-12.25 11.73,-19.74 1.47,-6.05 5.63,-243.93 4.38,-250.59 -1.49,-7.97 -6.42,-16.26 -13.85,-23.29 l -6.42,-6.09 34.9,0.78 c 19.15,0.42 42.16,0.77 50.96,0.77 l 16.06,0 -7.49,7.39 c -7.37,7.28 -11.27,13.18 -13.55,20.56 -1.57,5.09 -5.82,243.45 -4.46,250.59 1.72,9.03 4.17,13.62 11.35,21.16 l 6.78,7.14 -10.59,-0.24 c -5.81,-0.13 -27.47,-0.58 -48.05,-1.01"
         style="fill-opacity:1;fill-rule:nonzero;stroke:none;fill:#000000"
         id="path18" /><path
         d="m 2431.76,4370.44 c 3.62,-8.8 4.03,-19.01 1.07,-27 -3.17,-8.56 -124.5,-222.05 -130.38,-229.41 -6.66,-8.33 -14.59,-14.5 -25.89,-20.12 -4.76,-2.37 -8.35,-4.48 -8.09,-4.74 0.26,-0.26 19.92,-2.86 43.71,-5.77 23.78,-2.91 45.05,-5.61 47.27,-6.01 l 4.05,-0.71 -1.97,2.74 c -9.49,13.2 -10.81,17.08 -9.03,26.52 0.75,3.94 7.39,17.72 19.68,40.79 10.19,19.15 18.93,35.08 19.38,35.36 0.72,0.45 106.08,-12.16 106.68,-12.76 0.2,-0.2 4.71,-17.78 9.99,-38.95 8.26,-33.06 9.54,-39.51 8.95,-45.02 -0.93,-8.8 -4.67,-14.99 -12.39,-20.5 -3.57,-2.55 -5.95,-4.59 -5.36,-4.59 0.59,0 24.86,-2.94 54,-6.54 29.14,-3.6 53.59,-6.54 54.41,-6.54 0.81,0 -3.57,5 -9.64,11 -8.32,8.24 -12.04,12.94 -14.8,18.73 -2.56,5.37 -14.99,50.9 -40.74,149.26 -20.39,77.9 -37.15,141.66 -37.28,141.82 -0.13,0.16 -15.76,2.18 -34.67,4.46 -18.91,2.29 -36.14,4.46 -38.23,4.82 l -3.81,0.65 3.09,-7.49 z m 45.55,-107.1 c 12.24,-51.73 12.63,-53.82 10.23,-54.11 -2.97,-0.36 -75.4,8.52 -76.24,9.34 -0.32,0.32 11.24,22.89 25.75,50.24 14.52,27.36 26.61,49.37 26.94,49 0.33,-0.36 6.32,-24.85 13.32,-54.47"
         style="fill-opacity:1;fill-rule:nonzero;stroke:none;fill:#000000"
         id="path20" /><path
         d="m 2708.66,4328.82 c 5.14,-10.83 6.75,-19 5.38,-27.24 -1.15,-6.89 -59.12,-220.26 -63.27,-232.87 -3.12,-9.48 -10.17,-17 -20.99,-22.41 l -7.49,-3.75 6.3,-1.81 c 14.63,-4.2 77.55,-20.82 77.8,-20.55 0.19,0.2 -2.06,3.81 -4.95,7.97 -11.58,16.66 -12.07,13.08 16.31,119.29 13.22,49.47 24.36,90.03 24.71,90.03 0.36,0 19.86,-44.01 43.31,-97.77 50.06,-114.76 58.07,-132.28 65.68,-143.66 10.74,-16.06 24.94,-30.39 37.6,-37.93 l 4.4,-2.63 1.78,6.31 c 0.98,3.46 17.64,65.47 36.99,137.66 19.35,72.19 36.18,133.55 37.37,136.23 2.84,6.36 8.18,12.33 16.98,18.97 l 7.02,5.29 -4.52,1.22 c -54.71,14.73 -71.1,19.01 -71.42,18.65 -0.22,-0.26 0.89,-3.1 2.42,-6.19 9.16,-18.41 9.61,-15.46 -17.63,-117.15 -12.87,-48.04 -23.51,-87.43 -23.68,-87.59 -0.16,-0.16 -24.53,56.02 -54.17,124.88 -29.64,68.86 -54.05,125.39 -54.25,125.65 -0.29,0.35 -64.21,17.86 -65.52,17.94 -0.13,0.01 1.57,-3.79 3.84,-8.54"
         style="fill-opacity:1;fill-rule:nonzero;stroke:none;fill:#000000"
         id="path22" /><path
         d="m 1736.97,4320.54 c -1.96,-0.62 -40.08,-10.88 -84.79,-22.83 l -81.23,-21.7 9.51,-7.37 c 7.97,-6.18 10.09,-8.59 13.08,-14.81 2.38,-4.95 13.74,-45.73 34.03,-122.2 34.01,-128.09 33.52,-125.61 27.32,-138.08 -1.77,-3.57 -4.48,-8.14 -6.1,-10.29 -1.62,-2.14 -2.49,-3.86 -1.97,-3.85 1.31,0.01 190.79,50.9 191.25,51.37 0.19,0.19 1.21,12.13 2.25,26.52 1.05,14.39 2.23,29.8 2.62,34.25 l 0.71,8.09 -11.06,-11.42 c -17.07,-17.63 -30.45,-25.46 -59.7,-34.98 -20.22,-6.57 -58.73,-13.92 -61.01,-11.64 -0.82,0.82 -26.57,95.5 -26.62,97.88 -0.03,1.53 35.3,11.09 45.65,12.35 9.39,1.15 17.7,-0.33 26.04,-4.63 5.59,-2.88 6.79,-3.18 6.31,-1.54 -0.33,1.11 -3.36,12.49 -6.72,25.22 -3.36,12.72 -6.48,23.78 -6.9,24.5 -0.52,0.87 -13.09,-2 -37.58,-8.57 -20.22,-5.42 -36.92,-9.76 -37.05,-9.63 -0.13,0.13 -4.87,17.6 -10.53,38.77 -7.33,27.47 -9.89,38.77 -8.91,39.37 0.75,0.45 17,4.98 36.03,10.05 28.9,7.68 35.68,9.11 40.74,8.58 6.83,-0.72 13.67,-3.81 22.23,-10.04 3.1,-2.25 5.59,-3.62 5.59,-3.06 0,0.55 -3.6,14.56 -7.99,31.1 -8.46,31.87 -7.94,30.87 -15.2,28.59"
         style="fill-opacity:1;fill-rule:nonzero;stroke:none;fill:#000000"
         id="path24" /><path
         d="m 1414.38,4218.21 c -31.64,-16.2 -37.16,-19.41 -37.11,-21.59 0.03,-1.4 5.25,-52.62 11.59,-113.87 l 11.54,-111.32 -24.97,21.59 c -13.74,11.87 -52.99,45.77 -87.24,75.34 l -62.26,53.75 -38.95,-19.91 -38.95,-19.93 10.76,-5.35 c 8.69,-4.31 11.53,-6.41 14.69,-10.82 3.06,-4.27 12.47,-30.69 42.76,-120.12 l 38.83,-114.65 0.12,-11.3 c 0.11,-10.58 -0.16,-11.92 -4.23,-21.17 -2.4,-5.47 -3.96,-9.69 -3.5,-9.47 7.36,3.54 59.58,30.17 67.91,34.63 l 11.18,6 -8.21,2.75 c -10.35,3.47 -14.84,6.56 -19.51,13.43 -2.7,3.96 -13.6,33.48 -37.58,101.74 -18.59,52.92 -33.67,96.29 -33.54,96.45 0.13,0.17 33.18,-27.58 73.38,-61.6 85.28,-72.17 100.97,-84.97 110.25,-89.91 9.48,-5.06 23.07,-8.63 32.83,-8.63 l 8.21,0 -0.73,5.12 c -1.47,10.34 -25.72,254.54 -25.32,254.94 0.55,0.55 106.74,-163.96 110.06,-170.5 4.36,-8.62 5.27,-15.46 3.32,-24.86 -0.94,-4.52 -2.11,-9.16 -2.6,-10.34 -0.6,-1.44 12.78,4.79 40.62,18.91 22.83,11.58 43.91,22.41 46.85,24.08 l 5.36,3.03 -9.64,1.37 c -11.41,1.61 -20.66,5.62 -27.35,11.88 -4.6,4.29 -132.27,193.33 -138.68,205.34 -2.43,4.55 -2.72,6.73 -2.67,19.69 0.03,7.97 0.03,14.51 0,14.45 -0.03,-0.07 -16.77,-8.68 -37.22,-19.15"
         style="fill-opacity:1;fill-rule:nonzero;stroke:none;fill:#000000"
         id="path26" /><path
         d="m 3156.4,4173.61 c 0,-10.58 -2.81,-18.06 -9.58,-25.45 -8.16,-8.92 -192.86,-165.17 -200.69,-169.78 -8.88,-5.24 -19.14,-8.29 -31.39,-9.35 -4.4,-0.37 -8.09,-1.02 -8.09,-1.41 0,-0.39 19.33,-10.55 42.99,-22.59 29.85,-15.2 42.7,-21.19 42.04,-19.63 -0.51,1.23 -1.79,5.35 -2.79,9.04 -2.23,8.21 -0.85,15.29 4.35,22.36 2.89,3.93 58.54,54.84 60.88,55.7 0.73,0.27 93.84,-46.23 96.22,-48.05 0.19,-0.15 -1.6,-18.11 -3.99,-39.88 -4.53,-41.27 -5.74,-46.76 -11.67,-53.16 -3.2,-3.45 -9.56,-6.79 -15.14,-7.94 -2.27,-0.47 -4.55,-1.11 -5,-1.4 -0.46,-0.29 9.75,-5.93 22.6,-12.48 12.89,-6.58 35.38,-18.11 50,-25.63 14.63,-7.53 26.4,-13.23 26.17,-12.67 -0.23,0.56 -2.36,4.46 -4.78,8.74 -5.37,9.52 -9.14,20.58 -10.05,29.5 -0.44,4.36 3.99,57.2 12.45,148.3 7.23,77.9 13.44,143.48 13.8,145.87 l 0.65,4.34 -33.77,17.37 c -18.56,9.53 -34.1,17.36 -34.49,17.36 -0.39,0 -0.72,-4.16 -0.72,-9.16 z m 6.48,-112.15 c -3.56,-29.73 -6.48,-55.05 -6.48,-56.19 0,-1.65 -7.55,1.76 -35.62,16.05 -19.62,9.99 -35.63,18.46 -35.65,18.85 -0.03,0.83 83.42,76.21 83.88,75.76 0.19,-0.2 -2.56,-24.74 -6.13,-54.47"
         style="fill-opacity:1;fill-rule:nonzero;stroke:none;fill:#000000"
         id="path28" /><path
         d="m 2222.5,4019.12 c -0.29,-0.33 -15.75,-1.1 -34.31,-1.73 -301.84,-10.14 -584.42,-91.66 -840.71,-242.52 C 1161.83,3665.59 994.379,3519.48 857.73,3347.52 700.68,3149.9 589,2925.08 528.059,2683.89 474.832,2473.23 461.59,2256.46 488.305,2033.11 c 42.461,-355.01 190.367,-687.32 425.586,-956.2 54.148,-61.89 120.449,-127.531 182.649,-180.824 138.17,-118.391 291.49,-214.106 456.69,-285.102 172.29,-74.046 353.93,-119.558 537.56,-134.687 44.52,-3.668 61.37,-4.367 120.83,-5.004 74.22,-0.797 118.15,0.832 186.01,6.898 364.28,32.563 709.35,174.731 990.33,408.012 74.13,61.551 149.28,135.527 213.05,209.737 81.88,95.28 156.54,204.08 215.44,313.97 116.59,217.5 185.61,456.1 203.85,704.66 6.36,86.57 5.54,180.78 -2.34,269.98 -23.45,265.45 -103.64,521.36 -235.15,750.45 -77.01,134.15 -171.23,256.71 -279.37,363.43 -245.05,241.8 -524.24,398.62 -840.12,471.89 -124.29,28.82 -242.02,43.37 -387,47.82 -13.44,0.41 -30.87,0.93 -38.83,1.16 -7.97,0.23 -14.69,0.15 -14.99,-0.18 z m 87.71,-24.24 c 52.69,-2.48 98.86,-5.86 139.15,-10.21 341.21,-36.78 632.22,-156.41 890.79,-366.19 73.74,-59.82 154.83,-136.89 213.4,-202.81 167,-187.96 295.18,-419.82 370.59,-670.41 89.09,-296.01 101.59,-603.96 36.07,-888.17 -35.5,-154.01 -96.19,-309.54 -177.46,-454.79 -8.92,-15.93 -16.24,-29.6 -16.24,-30.32 0,-0.7 -0.55,-0.48 -1.19,0.47 -0.65,0.98 -1.2,5 -1.21,8.92 -0.04,13.04 -10.09,48.41 -17.84,62.8 -2.54,4.71 -11.29,22.83 -19.46,40.31 -15.96,34.14 -24.34,49.49 -38.8,71.13 -5.05,7.53 -22.65,34.48 -39.24,60.05 -16.59,25.57 -41.03,62.93 -54.47,83.25 -23.98,36.28 -24.66,37.15 -41.5,53.85 -35.57,35.24 -63.39,58.33 -98.95,82.12 -39.01,26.08 -51.26,36.01 -110.25,89.32 -10.35,9.35 -19.05,17.42 -19.21,17.81 -0.16,0.38 3.39,1.98 7.79,3.5 40.32,13.91 55.03,25.99 74.79,61.44 10.41,18.67 33.26,63.59 41.43,81.46 26.88,58.75 40.47,106.08 44.67,155.56 1.9,22.41 0.79,118.57 -1.73,148.9 -4.45,53.64 -10.48,93.2 -20.26,132.97 -3.41,13.87 -5.74,19.98 -15.06,39.48 -19.85,41.51 -40.69,78.77 -59.73,106.8 -7.67,11.27 -9.72,15.82 -25.84,57.09 -62.68,160.55 -117.47,276 -181.02,381.4 -39.5,65.53 -89.24,135.21 -133.8,187.44 -0.9,1.04 -2.68,8.8 -3.97,17.24 -20.2,132.29 -121.82,267.37 -271.67,361.13 -76.59,47.92 -168.29,83.66 -249.16,97.11 -36.4,6.06 -120.12,5.28 -176.25,-1.64 -117.03,-14.43 -213.96,-57.63 -249.79,-111.34 l -6.27,-9.4 -27.35,-13.57 c -39.96,-19.83 -57.38,-30.61 -74.22,-45.94 -38.39,-34.94 -77.9,-84.75 -109.11,-137.55 -14.8,-25.03 -23.16,-43.54 -41.81,-92.53 -20.88,-54.86 -26.44,-66.13 -61.57,-124.88 -14.51,-24.26 -33.42,-56.01 -42.16,-70.76 -38.16,-64.46 -56.39,-89.68 -105.64,-146.17 -48.02,-55.06 -53.29,-62.23 -79.25,-107.75 -19.81,-34.73 -31.62,-53.32 -48.52,-76.35 -7.32,-9.98 -21.1,-28.78 -30.51,-41.63 -31.97,-43.64 -53.69,-77.85 -66,-103.94 -5.69,-12.06 -16.46,-46.86 -21.32,-68.86 -9.22,-41.79 -13.85,-84.09 -13.85,-126.43 0,-29.61 1.8,-47.95 6.61,-67.43 2.19,-8.83 6.98,-29.97 10.66,-46.98 19.15,-88.6 31.58,-124.81 54.35,-158.29 4.93,-7.26 11.6,-18.36 14.96,-24.92 3.96,-7.73 8.25,-14.06 12.37,-18.25 3.47,-3.54 20.46,-17.8 37.82,-31.76 17.36,-13.95 38.46,-31 46.98,-37.95 18.79,-15.35 37.38,-28.01 45.31,-30.84 8.54,-3.06 30.09,-3.72 48.16,-1.47 22.12,2.76 28.43,3.25 28.43,2.23 0,-0.46 -1.02,-2.49 -2.32,-4.63 -5.62,-9.19 -14.36,-34.02 -28.18,-80.04 -3.72,-12.37 -5.35,-15.97 -9.73,-21.41 -9.44,-11.75 -22.92,-22.05 -46.59,-35.61 l -14.86,-8.51 -10.35,0.83 c -9.4,0.76 -10.76,0.58 -14.87,-1.85 -2.48,-1.47 -6.35,-4.81 -8.6,-7.43 -5.3,-6.19 -7.69,-7.02 -23.27,-8.05 -14.84,-0.99 -18.55,-2.44 -36.28,-14.12 -17.87,-11.77 -31.35,-26.59 -75.36,-82.85 -29.13,-37.22 -45.28,-53.24 -72.35,-71.73 -8.68,-5.93 -21.98,-16.24 -29.49,-22.86 -51.62,-45.53 -96.59,-76.58 -136.18,-94.01 l -11.65,-5.13 -38.96,-40.55 c -58.71,-61.14 -107.4,-114.52 -155.621,-170.67 -19.629,-22.85 -17.355,-21.39 -58.98,-38.05 -15.102,-6.05 -32.305,-13.26 -38.414,-16.11 -25.094,-11.7 -56.219,-32.56 -69.305,-46.46 -6.945,-7.37 -9.648,-11.63 -11.078,-17.48 -0.785,-3.2 -1.883,-1.78 -15.227,19.63 -154.371,247.66 -253.531,543.51 -274.98,820.37 -3.703,47.85 -4.559,78.38 -3.867,138.56 0.781,67.79 3.078,107.01 9.828,167.69 32.359,290.9 141.07,576.84 311.535,819.43 238.669,339.64 589.349,581.14 992.999,683.82 119.96,30.52 245.35,48.61 369.87,53.36 23.31,0.89 107.81,0.64 129.63,-0.39 z m 195.65,-243.17 c 31.82,-4.46 51.49,-8.79 86.82,-19.1 42.81,-12.49 72.31,-23.82 111.2,-42.71 111.43,-54.15 194.99,-131.72 254.5,-236.29 13.67,-24.02 36.28,-72.2 36.28,-77.31 0,-3.36 -5.47,-4.21 -10.35,-1.6 -6.61,3.53 -20.12,15.64 -36.02,32.29 -12.79,13.39 -17.14,17.05 -30.94,26.02 -27.17,17.67 -45.67,31.87 -117.86,90.52 -40.31,32.75 -74.86,57.46 -102.63,73.42 -18.26,10.5 -60.78,31.46 -83.97,41.41 -81.7,35.06 -161.15,50.51 -242.38,47.12 -34.25,-1.42 -70.17,-6.55 -111.44,-15.89 -9.8,-2.23 -34.96,-7.31 -55.89,-11.3 -20.93,-3.99 -43.63,-8.57 -50.43,-10.17 -6.78,-1.6 -12.58,-2.7 -12.84,-2.44 -1.03,1.03 7.95,13.44 14.81,20.46 21.12,21.61 56.55,40.96 98.41,53.75 12.78,3.9 71.24,18.67 89.79,22.68 16.53,3.57 45.09,8.14 60.06,9.59 7.25,0.7 14.94,1.48 17.25,1.75 10.66,1.21 72.66,-0.37 85.63,-2.2 z m -90.39,-98.23 c 26.09,-3.27 59.35,-13.02 87.05,-25.51 49.36,-22.24 117.02,-68.56 149.77,-102.53 48.05,-49.84 90.4,-130.58 104.41,-199.09 3.23,-15.77 5.61,-38.29 8.44,-79.56 5.31,-77.54 7.89,-88.7 38.41,-165.91 27.6,-69.81 33.5,-93.98 33.37,-136.77 -0.08,-26.02 -0.72,-30.92 -8.87,-67.19 -7.86,-35 -7.7,-54.24 0.79,-93.96 7.24,-33.89 8.07,-53.43 2.91,-68.38 -2.75,-7.97 -4,-9.92 -8.23,-12.83 -5.45,-3.75 -8.33,-2.64 -18.91,7.27 l -9.88,9.25 -5.58,-3.79 c -11.47,-7.77 -17.38,-16.55 -19.31,-28.68 -1.34,-8.39 0.19,-18.68 6.51,-44.01 12.12,-48.54 8.51,-67.79 -24.43,-130.11 -18.97,-35.91 -26.3,-53.88 -28.79,-70.64 l -0.7,-4.76 3.64,4.17 c 10,11.41 14.48,15.66 18.84,17.86 6.77,3.42 7.59,3.17 6.67,-2.05 -2.51,-14.11 -9.92,-31.64 -26.83,-63.39 -7.21,-13.53 -11.86,-24.38 -17.49,-40.79 -14.53,-42.34 -24.78,-65.15 -38.51,-85.75 -10.46,-15.7 -27.48,-33.7 -42.54,-45.01 -6.18,-4.64 -15.51,-12.7 -20.87,-18.02 -5.31,-5.28 -15.88,-14.81 -23.37,-21.08 -14.63,-12.24 -22.77,-21.45 -30.9,-34.94 -2.79,-4.64 -6.39,-9.8 -8.11,-11.66 -3.1,-3.32 -12.46,-10.34 -13.8,-10.34 -0.38,0 -0.72,2.02 -0.73,4.4 -0.05,7.17 -4.19,25.09 -8.19,35.44 -2.03,5.26 -7.97,16.65 -13.26,25.45 l -9.57,15.94 6.79,9.04 c 24.72,32.94 57.54,67.22 74.92,78.25 2.09,1.33 2.02,1.43 -1.07,1.49 -2.03,0.03 -4.48,1.3 -6.25,3.21 -2.6,2.82 -2.91,4.16 -2.91,12.61 0,6.18 1.23,14.98 3.57,25.45 1.96,8.8 3.56,16.9 3.56,18.02 0,1.1 -3.4,-5.83 -7.52,-15.35 -19.24,-44.35 -41.97,-79.93 -61.46,-96.14 -6.66,-5.55 -16.36,-11.47 -17.26,-10.54 -0.19,0.2 -1.58,7.26 -3.13,15.82 -2.34,12.91 -2.79,19.39 -2.74,39.25 0.05,20.93 0.38,24.97 2.72,33.66 5.23,19.38 12.89,36.38 24.77,54.94 l 6.47,10.11 -13.59,-13.92 c -13.6,-13.91 -23.73,-27.55 -27.83,-37.46 -1.18,-2.85 -2.48,-5.11 -2.94,-5.11 -0.46,0 -1.64,1.55 -2.62,3.45 -6.6,12.72 -39.85,52.62 -49.95,59.94 -3.23,2.34 -3.13,2.02 1.62,-5 15.03,-22.22 26.92,-50.66 35.01,-83.72 5.42,-22.12 6.98,-34.72 6.48,-52.33 -0.38,-13.32 -0.73,-15.17 -4.22,-22.54 l -3.81,-8.03 -8.26,0 c -4.88,0 -11.37,0.95 -15.82,2.32 -6.99,2.15 -8.32,3.15 -17.9,13.62 -11.43,12.49 -16.2,19.77 -18.33,27.95 l -1.41,5.47 -0.84,-4.4 c -0.45,-2.42 -0.24,-8.8 0.48,-14.16 0.72,-5.35 1.04,-10.02 0.72,-10.34 -1.09,-1.09 -13.32,8.15 -21.65,16.34 -17.81,17.53 -28.64,39.79 -36.49,75 -2.57,11.53 -2.81,12.05 -3.53,7.67 -0.42,-2.58 -0.77,-12.9 -0.77,-22.9 l 0,-18.19 -5.35,3.68 c -15.91,10.95 -34.62,33.07 -49.51,58.52 -2.79,4.76 -9.59,17.01 -15.07,27.11 l -9.99,18.44 0.65,-10.11 c 1.01,-15.52 6.98,-29.85 23.07,-55.42 4.48,-7.14 8.6,-13.71 9.16,-14.63 2.97,-4.9 -14.33,5.83 -24.44,15.16 -18.53,17.1 -32.1,37.88 -61.43,94.14 -3.91,7.49 -7.55,13.71 -8.14,13.91 -0.61,0.2 -2.1,-1.19 -3.45,-3.21 -2.88,-4.31 -7.26,-6.01 -13.32,-5.15 -2.5,0.35 -14.63,5.64 -27.12,11.83 -26.64,13.2 -33.8,15.17 -49.35,13.58 -13.46,-1.38 -18.68,-2.63 -40.2,-9.58 -21.05,-6.81 -27.03,-7.37 -31.18,-2.95 -4.6,4.91 -4.64,12.85 -0.1,21.76 2.05,4.05 3.69,7.57 3.69,7.97 0,1.31 -10.13,-6.3 -14.41,-10.82 -2.4,-2.54 -8.44,-10.94 -13.33,-18.55 -9.94,-15.46 -17.1,-23.07 -26.97,-28.65 -3.57,-2.02 -6.76,-4.27 -7.02,-4.95 -0.26,-0.69 -3.53,-4.46 -7.25,-8.39 -3.73,-3.92 -8.25,-9.7 -10.05,-12.84 -1.77,-3.09 -3.49,-5.5 -3.75,-5.25 -1.17,1.14 2.36,16.55 5.1,22.26 4.11,8.54 14.4,18.54 24.75,24.04 9.81,5.22 8.33,5.68 -4.76,1.46 -48.88,-15.75 -79.11,-52.94 -82.23,-101.14 -0.45,-7.02 -0.31,-12.85 0.35,-14.03 1.03,-1.85 1.55,-1.7 5.83,1.72 2.58,2.06 16.47,14.89 30.86,28.51 41.39,39.16 46.47,42.96 66.13,49.34 27.75,9 47.81,9 85.39,0 l 12.96,-3.11 8.74,2.74 c 7.07,2.21 11.36,2.73 22.42,2.67 26.17,-0.12 47.84,-7.64 71.36,-24.75 15.39,-11.21 44.6,-42.62 69.6,-74.85 4.89,-6.3 7.89,-9.15 9.6,-9.15 4.35,0 16.3,-4.67 22.49,-8.78 7.82,-5.21 20.04,-17.27 33.27,-32.85 14.85,-17.48 28.48,-30.72 37.49,-36.4 4.27,-2.69 13.02,-8.19 19.56,-12.3 6.54,-4.11 13.43,-7.59 15.4,-7.78 5.83,-0.56 18.18,-8.42 21.53,-13.69 3.84,-6.06 7.3,-18.67 9.12,-33.3 0.8,-6.42 1.68,-11.56 1.94,-11.3 0.8,0.8 2.5,9.16 3.86,19.03 1.86,13.44 3.42,17.91 7.85,22.48 5.16,5.32 13.74,7.47 19.81,4.94 10.46,-4.36 16.08,-13.62 14.6,-24.09 -0.44,-3.13 -2.41,-11.77 -4.36,-19.15 -7.78,-29.49 -8.32,-38.58 -3.14,-52.45 2.95,-7.9 3.5,-7.01 6.17,10 2.43,15.46 6.74,29.97 10.21,34.37 1.57,1.99 3.63,3.09 5.77,3.09 3.15,0 3.5,-0.6 6.49,-11.06 5.62,-19.74 7.39,-32.35 10.91,-77.9 1.85,-24.02 4.24,-41.91 6.93,-51.97 l 1.6,-5.95 1.86,5.95 c 3.12,9.92 3.3,11.18 4.4,30.44 1.64,28.67 5.38,34.03 12.94,18.56 9.08,-18.6 12.64,-44.96 9.2,-68.15 -2.5,-16.86 -5.06,-26.76 -13.81,-53.4 -7.96,-24.26 -14.22,-46.34 -17.36,-61.25 -2.28,-10.82 -3.13,-49.9 -1.27,-58.51 0.54,-2.51 4.23,-8.81 8.58,-14.63 8.35,-11.18 11.03,-19.07 9.49,-27.95 l -0.83,-4.76 6.18,4.16 c 7.26,4.87 12.16,5.31 19.15,1.71 5.65,-2.9 8.18,-6.82 12.97,-20.02 7.24,-19.98 8.72,-39.94 3.78,-51.02 l -2.12,-4.76 -9.93,9.4 c -5.47,5.17 -10.33,9.39 -10.82,9.39 -0.49,0 1.92,-6.3 5.33,-13.91 12.43,-27.83 17.38,-44.11 17.53,-57.68 0.12,-10.59 -0.83,-15.34 -4.46,-22.36 -3.13,-6.07 -7.75,-11.39 -13.35,-15.37 l -3.8,-2.71 -1.87,4.52 c -9.36,22.72 -13.45,31.2 -19.71,40.91 -9.28,14.39 -20.97,25.7 -33.13,32.04 -5.12,2.66 -9.62,4.83 -10.05,4.83 -0.43,0 3.34,-4.88 8.45,-10.94 11.34,-13.44 18.55,-23.54 25.74,-36.04 4.65,-8.09 5.67,-11.06 6.81,-19.86 3.53,-27.23 -8.63,-50.94 -32.02,-62.49 -8,-3.95 -9.87,-4.39 -20.58,-4.82 -6.89,-0.28 -13.84,0.09 -16.76,0.89 l -5,1.37 -6.66,-6.31 c -3.69,-3.49 -8.79,-7.78 -11.42,-9.61 -10.7,-7.46 -27.12,-10.14 -37.22,-6.09 l -4.76,1.91 5.41,4.75 c 2.97,2.62 6.51,6.93 7.85,9.58 l 2.44,4.81 -3.21,-0.81 c -6.06,-1.53 -30.93,-2.73 -39.25,-1.9 -18.43,1.85 -33.57,8.23 -43.77,18.41 l -6.66,6.66 0.66,-6.36 c 0.48,-4.64 0.14,-7.39 -1.25,-10.17 l -1.9,-3.8 -4.64,4.63 c -2.53,2.53 -8.33,6.46 -12.73,8.63 -7.94,3.91 -8.44,4 -28.9,4.77 -25.69,0.97 -31.45,2.04 -43.53,8.07 -10.46,5.23 -36.27,25.16 -36.27,28.01 0,0.99 1.74,3.69 3.9,6.07 5.06,5.55 11.32,6.4 22.27,2.99 l 7.73,-2.4 -4.76,4.09 c -7.45,6.42 -13.2,8.16 -24.38,7.39 l -9.52,-0.66 -6.25,6.78 c -8,8.68 -10.8,17.21 -8.48,25.81 0.69,2.56 0.82,2.52 6.29,-1.68 7.36,-5.66 22.48,-12.55 33.42,-15.24 10.6,-2.6 32.35,-2.84 46.98,-0.52 9.63,1.52 36.06,9 37.82,10.7 0.52,0.5 -5.35,1.29 -13.09,1.75 -68.98,4.08 -112.26,17.17 -132.93,40.19 -5.56,6.19 -11.49,16.54 -12.96,22.6 -0.69,2.87 -0.39,3.15 4.25,3.83 7.21,1.06 15.82,-1.52 35.56,-10.65 9.39,-4.35 21.96,-9.59 27.83,-11.62 9.71,-3.34 12.13,-3.69 26.16,-3.77 14.87,-0.07 29.14,2 29.14,4.25 0,1.5 -3.92,2.08 -18.44,2.72 -15.81,0.71 -33.94,5.83 -38.72,10.96 -7.55,8.08 -24.66,17.36 -53.44,28.99 -36.87,14.88 -51.19,23.7 -62.55,38.56 -8.81,11.51 -11.19,18.44 -11.19,32.47 0,11.3 2.89,35.02 4.66,38.18 0.66,1.18 2.26,-0.72 5.51,-6.55 24.55,-44 57.72,-79.38 87.95,-93.81 21.65,-10.34 31.27,-11.45 61.25,-7.05 31.27,4.6 42.68,3.47 53.63,-5.31 4.76,-3.81 5.83,-3.6 5.83,1.16 0,10.31 -16.89,17.15 -40.79,16.5 -11.3,-0.3 -12.78,-0.07 -19.03,2.94 -3.69,1.78 -8.33,5.17 -10.17,7.44 -3.39,4.16 -3.39,4.16 -6.24,1.96 -7.21,-5.57 -16.65,-7.03 -28.9,-4.49 -17.13,3.54 -24.57,7.71 -37.21,20.84 -7.6,7.9 -19.78,26.28 -34.26,51.74 -7.1,12.49 -17.68,30.04 -23.65,39.24 -13.26,20.46 -19.91,33.65 -24,47.58 -5.6,19.08 -4.23,42.45 4.14,70.52 2.3,7.73 2.79,8.51 4.49,7.13 3.59,-2.94 6.12,-11.05 8.05,-25.92 1.07,-8.21 2.55,-16.94 3.32,-19.51 1.55,-5.23 7.91,-12.6 10.87,-12.6 1.71,0 1.66,0.48 -0.51,4.76 -5.25,10.34 -7.95,30.92 -6.04,46.14 1.49,11.9 4.6,18.32 14.22,29.38 12.5,14.39 16.33,22.4 14.58,30.56 l -0.84,3.93 -2.6,-5 c -4.46,-8.56 -9.41,-13.24 -16.07,-15.21 -3.34,-0.99 -6.29,-1.8 -6.55,-1.8 -1.2,0 1.13,10 4.49,19.27 3.63,10.02 10.74,23.43 22.94,43.29 11.76,19.15 15.44,31.57 13.39,45.19 l -0.86,5.72 -3.28,-8.45 c -7.02,-18.08 -21.88,-40.97 -35.58,-54.83 -4.95,-4.99 -9.16,-8.37 -9.42,-7.55 -0.26,0.82 0.1,4.82 0.8,8.86 2.63,15.12 2.83,34.73 0.75,72.79 -3.23,58.87 -1.6,78.77 8.01,98.11 4.08,8.21 14.1,19.22 21,23.08 l 4.05,2.25 -0.72,-8.8 c -0.39,-4.87 -1.08,-12.7 -1.54,-17.54 l -0.84,-8.74 8.8,8.74 c 4.84,4.81 13.68,13.27 19.63,18.78 11.53,10.7 19,20.97 23.21,31.95 1.99,5.2 2.72,10.17 3.13,21.35 l 0.54,14.56 5.11,2.26 c 2.86,1.27 5.69,3.31 6.42,4.64 0.74,1.33 3.27,3.04 5.77,3.87 l 4.46,1.48 -4.4,1.54 c -6.29,2.19 -22.12,4.91 -37.22,6.39 -38.06,3.74 -51.37,7.58 -65.89,19.06 -7.24,5.73 -5.71,6.24 -22.48,-7.49 -13.67,-11.19 -25.44,-17.21 -35.92,-18.38 -9.27,-1.04 -10,-2.62 -4.5,-9.8 2.84,-3.71 7.24,-6.94 16.04,-11.77 18.08,-9.92 25.94,-18.53 29.98,-32.83 4.37,-15.43 6.39,-97.04 3.09,-124.28 -3.45,-28.42 -7.5,-41.55 -20.75,-67.2 -12.35,-23.9 -15.76,-33.64 -18.32,-52.32 -0.55,-3.97 0.31,-2.74 5.15,7.37 6.66,13.91 10.6,19.55 16.07,22.98 4.33,2.7 8.57,3.04 12.97,1.03 2.93,-1.34 3.09,-1.89 3.04,-10.45 -0.13,-25.51 -12.91,-48.95 -42.41,-77.79 -15.14,-14.8 -29.61,-26.95 -48.16,-40.41 -11.42,-8.29 -11.66,-8.56 -11.66,-13.34 0,-15.2 -3.47,-30.09 -13.49,-57.92 -5.73,-15.94 -5.47,-17.52 1.64,-9.75 4.82,5.27 7.23,9.16 18.37,29.61 11.92,21.89 15.7,27.37 24.88,36.06 9.76,9.25 19.62,13.5 33.06,14.25 l 10.7,0.59 -0.85,-5.23 c -2.93,-18.07 -15.36,-45.62 -28.43,-63.03 -13.99,-18.62 -42.08,-43.21 -73.24,-64.11 -29.37,-19.71 -62.79,-44.68 -61.48,-45.96 0.8,-0.78 45.55,18.95 64.34,28.37 38.3,19.18 66.08,40.1 76.15,57.32 5.14,8.8 10.72,14.85 14.36,15.58 1.29,0.26 3.86,0.77 5.65,1.13 2.85,0.57 3.27,0.29 3.27,-2.2 0,-4.23 -4.16,-19.51 -7.64,-28.07 -5.22,-12.84 -12.69,-23.83 -23.93,-35.2 -18.74,-18.96 -37.42,-30.44 -82.61,-50.76 -9.51,-4.28 -21.16,-9.65 -25.99,-11.98 l -8.73,-4.22 8.8,0.63 c 57.08,4.1 105.78,30.87 118.05,64.9 l 2.66,7.37 2.08,-3.15 c 1.13,-1.71 2.38,-5.35 2.73,-7.96 l 0.66,-4.82 3.33,2.37 c 1.85,1.32 4.89,5.54 6.84,9.46 l 3.51,7.08 2.35,-2.62 c 3.84,-4.27 5.02,-7.49 5.02,-13.68 0,-18.7 -22.6,-36.77 -74.33,-59.45 -10.5,-4.6 -27.83,-12.2 -38.65,-16.95 -39.01,-17.11 -62.8,-32.33 -78.34,-50.14 l -3.84,-4.4 7.19,2.44 c 3.94,1.33 15.17,7.02 24.8,12.56 30.92,17.77 41.23,21.19 60.89,20.21 17.96,-0.9 18.43,-1.33 8.32,-7.56 -10.76,-6.63 -20.69,-13.79 -45.19,-32.57 -26.16,-20.07 -40.56,-29.91 -53.04,-36.25 -8.92,-4.54 -9.96,-5.36 -7.02,-5.5 16.03,-0.82 32.11,5.61 58.4,23.35 8.2,5.54 15.47,10.42 16.05,10.78 1.46,0.9 -1.58,-7.32 -5.96,-16.12 -11.96,-24.01 -30.07,-38.93 -56.59,-46.6 -8.25,-2.39 -12.13,-2.75 -29.14,-2.7 -16.42,0.05 -21.47,0.52 -30.92,2.83 -33.78,8.26 -61.54,22.97 -84.09,44.53 -17.48,16.72 -27.71,33.8 -30.02,50.11 -3.19,22.54 6.67,58.15 22.61,81.7 2.58,3.81 4.22,6.9 3.67,6.9 -0.55,0 -3.15,-1.55 -5.65,-3.37 -15,-10.88 -36.41,-46.46 -39.18,-65.13 -0.69,-4.61 -1.97,-6.35 -10.77,-14.57 -6.19,-5.78 -13.05,-10.88 -18.02,-13.38 -7.75,-3.9 -8.5,-4.05 -21.71,-3.99 -10.1,0.05 -16.54,0.78 -24.68,2.8 -10.34,2.57 -11.28,3.07 -15.76,8.32 -5.62,6.6 -11.05,17.48 -13.05,26.17 -1.81,7.83 -0.93,25.33 1.77,35.2 3.86,14.15 18.25,41 21.99,41.04 4.13,0.05 14.18,6.06 18.71,11.17 2.68,3.03 7.64,10.35 11.11,16.41 11.66,20.34 16.6,25.81 27.74,30.78 5.55,2.48 8.3,6.09 11.68,15.37 3.53,9.69 4.65,18.2 5.77,44 0.61,14.04 1.69,30.67 2.41,36.87 3.94,34.18 17.83,66.48 52.44,121.9 10.25,16.41 22.67,37.46 27.73,46.98 15.74,29.61 24.71,42.03 35.55,49.22 7.26,4.8 18.69,8.27 23.67,7.18 2.92,-0.65 4.25,0.21 10.71,6.87 4.48,4.64 11.09,13.8 16.89,23.43 11.32,18.79 18.17,27.59 26.16,33.64 6.89,5.21 8.32,5.61 6.96,1.92 -0.56,-1.49 -0.99,-6.78 -0.96,-11.65 0.05,-7.14 0.73,-10.39 3.39,-16.24 1.84,-4.04 4.69,-8.56 6.36,-10.11 2.74,-2.52 2.95,-2.56 2.09,-0.41 -0.53,1.3 -1.19,9.39 -1.49,17.96 -1.35,39.12 13.83,68.86 39.19,76.78 9.04,2.82 23.3,3.06 24.3,0.4 0.37,-0.97 -0.25,-8.2 -1.36,-15.93 -2.32,-16.18 -1.83,-19.4 4.41,-29.02 l 3.93,-6.07 1.45,13.91 c 3.28,31.52 12.93,54.21 31.5,74.1 l 6.89,7.37 -9.4,-4.04 c -5.17,-2.23 -17.36,-5.89 -27.11,-8.14 -22.24,-5.13 -28.1,-7.44 -40.08,-15.8 -21.81,-15.2 -34.67,-30.65 -47.22,-56.7 -6.32,-13.11 -6.39,-13.08 -4.59,1.67 1.99,16.3 7.21,29.61 20.13,51.38 l 2.54,4.28 -5.11,-1.84 c -6.66,-2.39 -12.55,-1.28 -17.25,3.27 -2.76,2.67 -4.74,6.89 -7.9,16.88 -11.11,35.09 -9.82,73.38 3.13,93.12 3.58,5.48 13.12,13.66 14.4,12.38 0.33,-0.33 -0.74,-5.36 -2.38,-11.18 -3.66,-12.97 -4.07,-23.34 -1.16,-28.91 1.18,-2.25 2.51,-3.59 3.01,-3.03 0.49,0.56 2.04,5.53 3.46,11.12 3.49,13.8 10.6,27.88 17.53,34.77 3.09,3.07 6.07,5.26 6.66,4.9 1.79,-1.08 1.01,-7.67 -2.09,-17.67 -1.66,-5.35 -2.84,-11.57 -2.61,-13.79 l 0.42,-4.05 2.14,4.76 c 1.17,2.61 4.84,10.94 8.11,18.44 15.25,34.96 31.24,56.73 51.59,70.26 l 7.02,4.66 -9.16,0 c -16.44,0 -24.15,-5.35 -38.36,-26.64 -10.47,-15.7 -16.96,-22.47 -20.99,-21.91 -2.34,0.32 -2.91,1.16 -3.21,4.73 -0.19,2.38 0.45,6.27 1.43,8.62 1.78,4.28 1.78,4.28 -1.19,4.28 -5.2,0 -11.29,-3.45 -19.26,-10.9 -7.02,-6.57 -15.2,-11.61 -18.91,-11.66 -1.52,-0.02 -7,12.57 -11.69,26.84 -6.58,20.02 -10.85,43.89 -12.04,67.2 -1.06,20.7 -3.28,26.87 -34.71,96.45 -10.64,23.55 -17.24,42.65 -21.29,61.6 -2.86,13.42 -3.17,17.37 -3.22,40.44 -0.05,28.54 1.52,40.84 7.76,60.65 5.43,17.25 11.07,29.62 35.97,78.86 23.82,47.09 29.54,61.07 33.37,81.46 2.34,12.49 2.41,28.14 0.16,36.99 -0.92,3.65 -2.25,12.85 -2.95,20.34 -2.6,28.3 -1.15,47.01 5.16,66.6 2.76,8.56 4.21,8.56 2.04,0 -0.59,-2.33 -1.38,-6.78 -1.77,-10.11 l -0.72,-5.95 4.13,8.21 c 17.5,34.72 56.29,59.83 102.07,66.05 11.9,1.61 36.11,1.58 46.03,-0.07 4.28,-0.71 8.84,-1.41 10.23,-1.57 10.06,-1.13 44.81,-30.52 62.38,-52.76 11.85,-14.98 20.22,-32.82 18.81,-40.08 -0.34,-1.77 -1.28,-0.95 -4.33,3.81 -5.09,7.93 -19.66,21.79 -32.14,30.57 -26.35,18.52 -58.99,29.63 -90.27,30.71 -11.54,0.4 -12.05,-0.78 -0.84,-1.93 10.5,-1.08 20.7,-3.52 33.43,-8 41.62,-14.66 75.16,-47.49 83.06,-81.32 2.11,-9.04 1.67,-20.22 -1.04,-26.64 l -1.51,-3.57 -3.45,2.36 c -8.36,5.72 -29.25,15.3 -48.76,22.34 -18.67,6.75 -43.29,12.09 -55.3,11.99 l -7.73,-0.06 13.68,-3.99 c 35.79,-10.44 63.61,-23.23 80.15,-36.85 10.59,-8.71 15.39,-20.09 11.28,-26.71 -1.3,-2.09 -1.87,-1.79 -7.55,4.04 -20.73,21.24 -69.38,40.39 -110.05,43.32 -20.1,1.44 -37.16,-3.29 -48.4,-13.45 -2.62,-2.36 -5.08,-3.98 -5.47,-3.58 -1.75,1.74 -0.61,10.94 2.04,16.53 2.96,6.27 8.07,11.75 14.96,16.07 l 4.16,2.6 -5.35,-0.78 c -11.41,-1.65 -23.28,-9.89 -27.47,-19.08 -2.85,-6.26 -2.79,-15.34 0.15,-21.89 l 2.35,-5.23 -5,0.82 c -12.6,2.06 -24.56,10.56 -31.16,22.14 -3.5,6.14 -4,4.4 -1.77,-6.19 3.43,-16.29 15.72,-28.23 29.13,-28.28 l 4.88,-0.02 -1.11,-6.07 c -1.39,-7.61 -3.57,-11.04 -8.53,-13.38 -5.16,-2.45 -8.39,-6.13 -11.66,-13.26 -2.49,-5.42 -2.73,-7.61 -2.73,-24.97 0,-10.47 -0.43,-19.89 -0.95,-20.93 -0.51,-1.03 -2.38,-2.57 -4.04,-3.34 -3.06,-1.41 -3.09,-1.54 -2.46,-11.29 1.1,-17.01 8.67,-30.94 23.51,-43.23 22.75,-18.86 59.93,-26.85 93.36,-20.07 l 7.13,1.45 -13.79,0.82 c -44.72,2.66 -79.41,17.96 -90.92,40.09 -2.47,4.76 -3.16,20.41 -1,22.6 0.95,0.97 4.38,-0.26 13.06,-4.65 11.66,-5.9 18.32,-8.31 18.32,-6.65 0,0.47 -1.29,2.38 -2.98,4.4 -8.26,9.87 -10.84,22.1 -6.7,31.76 1.79,4.18 2.54,8.44 2.54,14.39 0,4.63 0.59,9.54 1.31,10.88 1.19,2.21 1.58,1.84 4.23,-3.87 4.19,-9.06 10.04,-15.64 19.44,-21.88 32.23,-21.4 78.25,-18.48 105.13,6.67 8.33,7.79 10.01,8.14 14.78,3.08 1.39,-1.46 2.83,-4.1 3.3,-6 0.75,-3.06 0.12,-4.07 -6.42,-10.28 -12.28,-11.65 -32.35,-19.87 -60.9,-24.95 -8.2,-1.47 -15.66,-2.95 -16.64,-3.31 -1,-0.36 2.14,-1.93 7.13,-3.57 6.66,-2.17 12.67,-3.07 23.73,-3.56 l 14.8,-0.65 -4.16,-3.79 c -7.69,-6.99 -24.02,-11.57 -49,-13.72 -18.79,-1.62 -18.95,-1.66 -13.32,-3.31 10.32,-3.01 24.27,-4.09 35.09,-2.73 17.52,2.2 28.18,6.41 54.71,21.58 15.1,8.65 23.46,12.61 24.43,11.6 0.84,-0.87 -2.23,-8.92 -6.97,-18.32 -7.08,-14.03 -18.63,-30.15 -29.49,-41.15 -5.64,-5.71 -9.74,-10.11 -9.02,-9.7 13.24,7.75 29.59,23.26 39.81,37.77 14.11,20.04 22.96,40.91 38.38,90.5 8.28,26.64 14.33,41.28 18.49,44.72 1.89,1.56 1.97,1.31 1.19,-3.68 -4.15,-26.74 -5.29,-31.76 -20.46,-90.39 -4.06,-15.69 -11.64,-53.04 -15.98,-78.73 -2.64,-15.66 -4.59,-34.85 -7.15,-70.41 -3.13,-43.53 -7.11,-83.21 -8.94,-89.08 -0.35,-1.12 -2.05,-2.3 -3.84,-2.66 -9.79,-1.94 -20.36,-11.01 -27.41,-23.5 -7.65,-13.56 -12.39,-36.34 -10.38,-49.83 0.78,-5.18 1.04,-5.47 8.06,-8.83 7.14,-3.41 11.37,-7.53 10.01,-9.73 -0.4,-0.65 -2.52,-1.57 -4.66,-2.02 -4.66,-1 -17.48,-7.86 -24.02,-12.86 -11.18,-8.53 -23.19,-21.64 -23.19,-25.32 0,-0.46 2.25,1.27 5.11,3.91 6.25,5.8 14.03,8.54 38.3,13.5 9.87,2.02 18.98,3.94 20.39,4.3 1.86,0.48 2.79,-0.06 3.4,-1.96 0.88,-2.77 40.66,-43.05 44.59,-45.15 4.04,-2.16 8.27,-1.36 11.06,2.1 10.26,12.67 20.45,20.43 47.22,35.89 14.74,8.52 14.91,8.58 21.64,7.91 19.5,-1.96 36.67,-14.07 65.64,-46.3 5.77,-6.42 10.72,-11.42 11.01,-11.12 0.3,0.29 -1.09,6 -3.06,12.66 -4.73,15.94 -4.71,17.05 0.27,15.97 8.13,-1.77 13.73,-5.98 30.12,-22.63 9.24,-9.39 17.18,-17.12 17.57,-17.12 2.54,0 -16.24,31.16 -29.17,48.4 -9.09,12.12 -12.58,15.18 -26.97,23.62 -11.53,6.78 -16.89,12.18 -16.89,17.06 0,4.26 2.74,6.65 10.82,9.45 8.57,2.97 15.5,6.56 18.01,9.34 3.3,3.64 7.91,14.74 9.98,24.02 8.19,36.75 -16.72,80.99 -45.59,80.99 -2.73,0 -3.92,0.54 -3.92,1.78 0,3.26 3.17,9.4 8.72,16.9 3.09,4.16 5.08,7.49 4.48,7.49 -0.59,0 -5.11,-2.7 -10.11,-6.03 -8.55,-5.7 -16.89,-14.07 -34.26,-34.41 -8.74,-10.23 -14.45,-14.53 -18.66,-14.03 -2.5,0.3 -3.18,1.3 -4.28,6.3 -0.74,3.33 -2.21,7.83 -3.36,10.23 -2.28,4.75 -9.65,13.57 -8.65,10.34 2.38,-7.7 4.41,-30.09 4.07,-44.95 -0.21,-9.16 -0.2,-16.65 0.03,-16.65 0.23,0 7.55,6.94 16.23,15.39 15.82,15.39 22.41,20.39 35.8,27.16 7.25,3.67 19.42,7.4 24.14,7.4 7.24,0 16.96,-15.7 21.51,-34.73 3.24,-13.55 3.13,-23.94 -0.35,-30.8 -3.32,-6.57 -5.7,-6.99 -19.25,-3.39 -24.41,6.47 -43.86,-3.39 -72.12,-36.57 -27.45,-32.23 -37.46,-41.5 -49.31,-45.67 -8.09,-2.85 -8.76,-2.82 -15.94,0.65 -13.68,6.61 -23.49,16.84 -28.03,29.2 -2.52,6.86 -2.43,26.05 0.2,41.63 1.05,6.22 5.34,23.31 9.55,38.06 9.46,33.09 10.86,43.29 12.32,89.67 2.79,88.72 4.54,100.55 26.78,181.49 8.17,29.73 15.43,61.38 17.82,77.66 7.73,52.8 -1.04,91.71 -28.32,125.7 -10.82,13.49 -19.83,21.43 -34.82,30.7 -15.58,9.62 -39.87,20.92 -47.69,22.17 -1.84,0.3 -7.73,1.88 -13.2,3.56 -14.14,4.32 -22.36,5.42 -40.67,5.42 -30.33,0 -55,-6.77 -76.24,-20.91 -9.04,-6.01 -20.12,-17.39 -23.64,-24.28 -4.1,-8.02 -4.74,-6.43 -1.81,4.52 8.28,30.92 25.62,57.53 47.22,72.43 15.29,10.55 30.08,15.63 49.11,16.87 l 13.09,0.84 -6.55,2.14 c -4.98,1.64 -11.83,2.3 -28.84,2.8 -14.27,0.42 -22.67,1.12 -23.34,1.96 -1.53,1.93 5.2,40.44 13.21,75.64 26.53,116.55 75.13,201.15 146.61,255.19 13.79,10.43 51.38,34.5 71.36,45.7 39.98,22.4 88,38.63 158.77,53.65 18.02,3.83 19.03,3.91 45.19,3.74 14.75,-0.1 29.7,0.27 33.3,0.82 9.5,1.47 25.33,1.48 36.87,0.02 z m -262.24,-31.37 c -51.38,-25.3 -59.58,-29.79 -77.66,-42.59 -58.37,-41.3 -102.19,-92.85 -135.25,-159.09 -26.42,-52.95 -45.74,-112.75 -64.18,-198.62 -3.55,-16.53 -6.3,-26.62 -7.76,-28.54 -25.27,-33 -41.46,-62.44 -71.31,-129.63 -9.45,-21.29 -22.4,-49.34 -28.82,-62.44 l -11.65,-23.79 6.24,6.72 c 3.44,3.7 10.25,13.62 15.14,22.07 14,24.14 21.44,34.9 29.64,42.89 4.16,4.05 7.77,7.25 7.97,7.05 1.49,-1.5 3.96,-28.18 3.98,-43.17 0.04,-26.76 -4.05,-46.24 -14.21,-67.67 -9.68,-20.39 -21.58,-36.03 -58.84,-77.3 -28.56,-31.64 -39.62,-44.64 -53.1,-62.44 -33.21,-43.84 -58.44,-90.98 -79.18,-147.95 -6.62,-18.2 -19.99,-61.2 -19.25,-61.96 0.25,-0.26 4.09,8.56 8.48,19.5 4.41,10.98 15.85,37.35 25.4,58.51 l 17.36,38.54 14.89,20.22 c 32.85,44.6 58.21,74.94 82.99,99.31 10.46,10.3 14.84,13.95 14.26,11.89 -4.45,-15.62 -19.63,-46.27 -37.42,-75.52 -30.67,-50.43 -39.49,-66.65 -47.77,-87.89 -4.96,-12.73 -10.56,-31.87 -10.47,-35.8 0.03,-1.31 7.36,12.01 16.36,29.73 16.97,33.42 26.07,49.3 39.18,68.39 9.64,14.03 24.31,32.15 31.8,39.28 l 5.59,5.31 -0.79,-8.32 c -1.9,-19.97 -6.59,-36.51 -22.14,-78.14 -15.36,-41.15 -22.64,-68.25 -22.44,-83.61 0.06,-4.37 0.28,-4.04 2.73,4.17 6.46,21.52 15.59,40.75 29.56,62.2 l 8.45,12.96 5.1,-9.27 c 17.46,-31.74 31.78,-76.95 51.02,-161.04 3.68,-16.05 10.07,-39.55 14.23,-52.32 10.86,-33.3 10.37,-30.09 7.07,-46.75 -3.78,-19.02 -4.86,-37.07 -2.86,-47.8 0.86,-4.63 1.43,-12.14 1.28,-16.89 -0.38,-11.92 2.56,-26.4 8.97,-44.24 11.41,-31.76 11.99,-35.43 7.62,-48.17 -8.36,-24.38 -28.86,-51.02 -45.81,-59.55 -8.09,-4.06 -19.13,-5.36 -26.05,-3.06 -10.54,3.5 -23.08,22.89 -25.7,39.77 -2.43,15.53 -8.43,23.39 -40.9,53.54 -8.32,7.73 -17.41,17.1 -20.06,20.68 -6.56,8.87 -13.48,24.14 -15.19,33.53 -2.12,11.66 -2.61,12.05 -3.68,2.98 -2.52,-21.41 3.96,-45.26 17.48,-64.34 8.37,-11.83 23.59,-23.47 36.67,-28.06 6.4,-2.24 9.3,-7.15 15.69,-26.53 7.18,-21.77 12.2,-31.3 20.35,-38.61 l 6.42,-5.75 -3.8,-2.71 c -5.71,-4.06 -16.48,-8.15 -21.53,-8.17 -6.37,-0.04 -16.06,2.22 -23.55,5.49 -11.49,5.02 -21.64,12 -48.76,33.53 l -11.3,8.96 3.44,-5.94 c 18.79,-32.47 38.76,-53.32 62.57,-65.33 l 6.54,-3.29 -6.54,-1.51 c -19.03,-4.39 -37.23,-3.1 -54.59,3.86 -17.1,6.86 -27.24,14.35 -65.77,48.61 -7.37,6.55 -16.74,14.47 -20.75,17.54 l -7.32,5.59 9.99,-13.32 c 5.53,-7.38 11.96,-17.09 14.4,-21.77 11.79,-22.6 52.44,-56.06 84.55,-69.59 8.96,-3.77 8.69,-3.98 -8.08,-6 -39.52,-4.77 -83.25,10.42 -130.35,45.28 -16.18,11.97 -40.48,31.98 -46.49,38.28 -28.18,29.55 -61.32,120.12 -78.23,213.84 -10.13,56.13 -10.15,102.63 -0.1,165.79 10.96,68.86 33.9,131.48 65.77,179.58 11.6,17.52 23.95,32.47 46.86,56.73 38.63,40.91 42.32,45.76 56.61,74.33 25.89,51.79 55.54,97.17 110.56,169.24 86.9,113.82 108.25,143.85 134.21,188.86 7.98,13.84 8.86,13.8 8.99,-0.48 0.1,-10.45 0.35,-9.15 -7.42,-37.7 -3.18,-11.65 -5.77,-21.61 -5.73,-22 0.12,-1.29 5.95,12.01 10.61,24.26 7.77,20.39 13.64,40.2 24.32,82.06 14,54.95 17.78,68.54 24.07,86.59 13.6,39 30.69,69.06 54.72,96.21 3.89,4.4 9.23,11.61 11.69,15.82 8.72,14.85 23.96,33.54 42.79,52.45 34.81,34.96 64.23,55.22 96.46,66.43 6.45,2.24 17.96,6.3 25.45,8.97 19.15,6.82 68.93,18.84 77.9,18.8 1.31,-0.01 -17.36,-9.73 -41.62,-21.68 z m 404.95,15.89 c 13.01,-2.1 36.04,-10.5 55.07,-20.07 35.96,-18.08 63.85,-39.09 100.2,-75.48 33.87,-33.91 59.21,-64.58 101.53,-122.86 12.01,-16.53 22.02,-29.93 22.22,-29.74 0.61,0.59 -5.03,21.06 -7.28,26.42 -1.1,2.62 -5.64,12.48 -10.12,22 -8.01,17 -15.88,36.79 -14.99,37.7 1.75,1.78 31.19,-16.84 46.42,-29.36 9.02,-7.42 34.77,-32.49 56.22,-54.73 20.41,-21.17 40.54,-40.5 49.75,-47.77 9.63,-7.61 27.91,-20.02 29.49,-20.02 1.44,0 25.24,-22.95 37.61,-36.27 22.74,-24.49 47.15,-55.07 71.79,-89.91 14.99,-21.21 56.6,-84.32 72.45,-109.89 57.09,-92.08 107.66,-196.71 145.42,-300.9 9.77,-26.96 13.36,-38.76 21.95,-72.3 8.12,-31.64 12.79,-45.73 24.12,-72.67 52.27,-124.28 78.64,-244.73 75.4,-344.42 -1.3,-40.08 -4.04,-60.38 -12,-88.72 -10.48,-37.35 -26.16,-71.96 -55.04,-121.55 -1.59,-2.74 -2.61,-5 -2.25,-5 0.36,0 4.53,4.64 9.3,10.35 32.27,38.61 58.39,95.03 70.43,152.11 5.33,25.25 7.06,42.1 7.17,69.7 0.05,14.15 0.42,25.04 0.83,24.26 2.38,-4.61 5.01,-39.13 5.03,-66.13 0.05,-39.36 -2.94,-64.62 -11.79,-99.9 -17.19,-68.5 -54.69,-129.65 -104.58,-170.52 -39.13,-32.06 -66.29,-43.59 -102.88,-43.71 -12.13,-0.03 -28.92,2.69 -30.27,4.92 -0.34,0.57 0.6,1.42 2.03,1.84 1.47,0.42 8.02,3.45 14.57,6.73 37.46,18.76 65.95,45.73 82.56,78.12 3.3,6.43 6.04,12.16 6.04,12.61 0,0.46 -7.13,-6.04 -15.82,-14.41 -36.51,-35.18 -68.97,-59.83 -93.24,-70.8 -14.98,-6.77 -32.7,-9.73 -41.98,-7 -2.85,0.84 -2.74,1.01 2.85,4.37 21.05,12.64 41.62,32.65 49.24,47.88 4.46,8.92 7,19.28 6,24.5 -0.29,1.49 -3.25,-1.54 -9.74,-9.99 -28.53,-37.09 -53.7,-50.52 -91.05,-48.59 l -12.72,0.66 -4.72,-4.76 c -6.61,-6.66 -13.12,-10.94 -23.95,-15.72 -21.03,-9.28 -42.22,-13.58 -71.71,-14.55 -18.44,-0.61 -20.41,-0.46 -32.59,2.48 -40.2,9.72 -72.3,37.79 -103.05,90.11 -2.17,3.69 -4.09,6.68 -4.22,6.55 -0.49,-0.49 4.09,-20.11 7.27,-31.16 1.71,-5.95 4.47,-13.62 6.23,-17.25 1.72,-3.57 3.39,-7.05 3.68,-7.67 0.3,-0.62 -3.62,2.31 -8.74,6.54 -37.11,30.7 -67.46,68.34 -83.86,104.01 -16.05,34.92 -22.6,65.64 -22.67,106.32 -0.03,21.52 -0.34,21.91 -5.5,6.66 -3.09,-9.16 -3.21,-10.47 -3.21,-35.09 0,-27.11 1,-35.36 7.15,-59.11 1.63,-6.3 2.75,-11.62 2.48,-11.87 -0.71,-0.68 -22.1,21.87 -29.89,31.5 -12.87,15.93 -21.53,32.71 -26.19,50.78 -1.01,3.92 -2.48,14.87 -3.26,24.26 -2.51,30.19 2.36,71.6 12.77,108.71 4.68,16.65 7.57,23.38 15.16,35.32 24.91,39.18 51.75,67.34 113.83,119.48 39.6,33.27 52.27,44.71 72.07,65.1 30.79,31.7 51.95,62.32 71.35,103.23 7.39,15.58 9.83,20.34 17.67,34.49 14.46,26.09 24.28,59.11 30.42,102.28 2.08,14.57 2.84,65.41 1.25,83.37 -3.86,43.53 -13.82,84.08 -27.59,112.27 -3.19,6.54 -5.49,10.82 -5.1,9.51 12.67,-43.02 17.56,-73.97 19.14,-121.07 1.18,-35.32 -2.62,-81.61 -9,-109.65 -2.68,-11.8 -3.28,-9.75 -4.32,14.86 -3.17,74.69 -15.86,155.15 -34.91,221.22 -6.23,21.64 -19.68,61.03 -23.98,70.28 -2.95,6.34 -3,6.54 6.53,-30.44 20.88,-81.11 31.47,-158.02 31.51,-228.95 0.04,-66.24 -8.18,-111.61 -27.29,-150.68 -6.98,-14.27 -20.33,-33.58 -28.91,-41.8 l -4.16,-3.99 0.62,14.87 c 0.95,22.55 -2.52,36.39 -18.6,74.33 -13.01,30.68 -14.74,36.09 -14.86,46.38 l -0.1,8.69 -2.58,-3.21 c -2.79,-3.48 -5.15,-11.18 -5.15,-16.77 0,-5.75 3.39,-16.89 10.61,-34.85 10.75,-26.76 12.97,-38.36 10.79,-56.61 -4.13,-34.73 -22.25,-61.54 -52.68,-77.99 -5.24,-2.83 -12.52,-6.27 -16.18,-7.64 l -6.66,-2.5 11.89,-2.2 c 6.55,-1.21 15.97,-2.2 20.94,-2.2 l 9.04,0 -13.92,-16.06 c -17.84,-20.57 -31.25,-33.34 -44.36,-42.22 l -10.35,-7.01 -6.9,1.53 c -13.67,3.03 -23.31,10.23 -26.44,19.75 -7.18,21.88 19.54,61.26 60.81,89.63 12.02,8.26 28.53,16.83 38.18,19.8 3.81,1.18 6.9,2.56 6.9,3.08 0,1.14 -11.3,4.52 -15.1,4.52 -7.85,0 -20.7,-4.43 -38.54,-13.31 -10.58,-5.26 -21.27,-10.27 -23.9,-11.18 l -4.76,-1.67 0.85,5.71 c 1.57,10.63 9.93,26.88 21.12,41.03 1.88,2.38 3.13,4.4 2.71,4.4 -0.43,0 -3.51,-1.84 -6.96,-4.17 -3.45,-2.32 -6.61,-4.16 -7.14,-4.16 -0.52,0 -2.49,-1.14 -4.39,-2.56 -7.51,-5.57 -17.12,0.07 -23.42,13.74 -3.09,6.71 -3.34,8.33 -3.28,21.53 0.04,10.11 0.57,15.47 1.84,18.37 l 1.78,4.11 3.21,-5.48 c 4.28,-7.29 11.42,-13.24 18.79,-15.65 8.33,-2.71 12.02,-2.52 18.92,1.01 12.34,6.31 19.02,16.91 21.38,33.91 1.69,12.25 1.11,19.39 -4.87,59.47 -8.67,58.03 -8.88,83.4 -0.89,105.73 8.05,22.48 9.29,26.41 10.62,33.65 1.77,9.65 1.76,45.67 -0.01,61.01 -4.97,43.06 -16.37,86.91 -29.18,112.27 -6.86,13.58 -12.09,27.95 -20.62,56.62 -12.58,42.25 -12.75,43.17 -16.88,89.19 -9.33,104.19 -19.8,152.54 -41.47,191.48 -41.83,75.16 -94.16,136.47 -150.48,176.27 -20.69,14.62 -40.25,25.99 -57.8,33.59 -4.87,2.11 -9.45,4.37 -10.11,4.98 -1.55,1.48 18.44,1.31 27.95,-0.24 z M 1958.3,3013.59 c 35.92,-6.42 79.22,-31.98 97.33,-57.47 4.22,-5.94 9.61,-16.17 8.52,-16.17 -0.13,0 -5.35,3.77 -11.54,8.32 -21.73,16.02 -46.14,28.17 -68.02,33.86 -25.34,6.58 -42.15,6.92 -54.12,1.08 -7.7,-3.76 -21.59,-16.62 -33.77,-31.25 -10.99,-13.2 -13.6,-15.58 -17.13,-15.58 -3.57,0 -3.64,1.3 -0.24,4.29 3.11,2.74 11.91,21.16 15.79,33.06 4.15,12.72 8.46,20.53 14.78,26.8 12.42,12.31 28.42,16.63 48.4,13.06 z m -9.51,-45.29 3.8,-1.35 -1.81,-4.29 c -2.26,-5.34 -1.4,-15.93 1.91,-23.43 2.54,-5.76 1.92,-6.26 -4.14,-3.36 -8.79,4.2 -14.75,14.07 -14.75,24.42 0,3.44 0.7,4.92 3.21,6.8 3.79,2.84 6.42,3.11 11.78,1.21 z m -26.64,-10.84 c 0.98,-0.8 2.7,-4.91 3.85,-9.19 5.82,-21.78 16.84,-30.13 39.91,-30.26 10.23,-0.06 12.04,0.29 19.03,3.62 4.28,2.05 9.43,5.13 11.54,6.92 5.24,4.44 11.06,16.51 11.06,22.93 0,4.52 0.3,5.12 2.62,5.12 4.32,0 12.06,-4.4 17.56,-9.99 l 5.27,-5.35 -4.59,-6.66 c -12.59,-18.26 -39.77,-30.36 -64.27,-28.62 -25.69,1.83 -43.52,10.87 -51.02,25.88 -5.29,10.59 -3.63,23.12 3.45,25.97 3.33,1.34 3.52,1.33 5.59,-0.37 z m 132.49,-20.53 c 9.03,-4.37 12.69,-8.65 10.43,-12.2 -0.7,-1.11 -2.94,-2.19 -4.96,-2.38 -3.31,-0.32 -4.21,0.35 -8.69,6.54 -2.75,3.81 -6.38,8.42 -8.08,10.29 l -3.09,3.39 2.97,-0.78 c 1.63,-0.42 6.78,-2.61 11.42,-4.86 z m -2.05,-295.97 c -3.39,-18.2 -13.32,-50.08 -15.91,-51.09 -0.94,-0.36 -2.5,0.19 -3.57,1.26 -7.2,7.19 -4.87,24.14 5.36,39.01 3.19,4.64 13.76,16.05 14.86,16.05 0.13,0 -0.21,-2.38 -0.74,-5.23 z m 1355.68,-60.18 c 27.32,-42.65 42.26,-90.15 46.57,-148.07 1.37,-18.43 1.47,-57.42 0.19,-73.14 -0.77,-9.39 -0.88,-9.73 -1.6,-4.76 -0.43,2.99 -1.11,9.04 -1.53,13.68 -1.08,11.97 -4.78,36.63 -8.84,58.99 -14.82,81.59 -35.48,152.45 -51.08,175.18 -2.03,2.98 -3.66,5.78 -3.66,6.31 0,1.42 10.43,-13.32 19.95,-28.19 z M 2107.32,2442.27 c 9.63,-3.28 31.62,-13.5 30.8,-14.31 -0.26,-0.26 -3.09,0.3 -6.3,1.25 -7.37,2.2 -25.56,2.22 -32.82,0.03 -2.98,-0.89 -7.78,-2.81 -10.53,-4.2 -3.57,-1.8 -5.47,-2.2 -6.48,-1.36 -0.79,0.66 -4.28,1.76 -7.85,2.48 -12.49,2.53 -13.66,3.83 -9.93,11.07 1.1,2.15 2.06,3.94 2.2,4.11 0.13,0.16 4.16,1.36 9.04,2.68 10.71,2.91 19.62,2.42 31.87,-1.75 z m -174.71,-43.04 c 0,-0.82 -0.77,-4.46 -1.72,-8.14 -0.96,-3.69 -1.43,-7.38 -1.07,-8.27 0.36,-0.88 -0.42,-2.16 -1.73,-2.85 -1.3,-0.68 -5.13,-5 -8.44,-9.52 -3.32,-4.52 -7.41,-9.15 -9.04,-10.22 -2.85,-1.89 -3.02,-1.85 -4.11,1.01 -2.08,5.46 1.03,12.24 14.06,30.68 7.99,11.3 9.26,12.6 10.56,10.82 0.79,-1.07 1.49,-2.72 1.49,-3.51 z M 2089,2364.21 c 2.62,-0.72 6.5,-2.97 8.63,-5 3.14,-3 3.86,-4.63 3.86,-8.8 0,-4.87 -0.16,-5.11 -3.56,-5.11 -1.95,0 -6.96,1.41 -11,3.09 -4.29,1.78 -9.83,3.15 -13.09,3.21 -5.11,0.11 -5.57,0.36 -4.9,2.62 1.36,4.52 4.18,7.93 7.94,9.58 4.6,2.04 6.06,2.08 12.12,0.41 z m 60.07,-21.07 c 8.58,-6.94 11.87,-14.61 11.82,-27.57 -0.03,-8.68 -3.36,-18.16 -8.99,-25.57 -3.25,-4.29 -16.28,-14.87 -18.29,-14.87 -0.47,0 -0.79,5.83 -0.72,13.08 0.12,12.85 0.07,13.09 -2.62,13.09 -4.45,0 -11.06,-3.37 -19.98,-10.19 -4.63,-3.55 -10.74,-7.27 -13.56,-8.25 l -5.11,-1.78 0.74,9.28 c 0.87,10.82 2.9,17.92 7.99,27.94 11.05,21.77 23.85,31.56 38.25,29.29 3.92,-0.63 7.75,-2.25 10.47,-4.45 z m 544.46,-117.96 c 1.85,-9.25 2.44,-14.51 4.35,-38.77 2.7,-34.37 6.62,-49.16 15.48,-58.39 l 5.02,-5.24 -2.24,-9.75 c -8.16,-35.44 -20.91,-57.96 -47,-82.95 -12.72,-12.2 -12.76,-12.27 -5.11,-7.12 28.44,19.09 49.46,44.28 61.28,73.42 l 3.42,8.44 3.57,-1.19 c 8.8,-2.93 14.99,-10.59 14.99,-18.55 0,-7.34 -5.09,-19.5 -15.11,-36.15 -5.65,-9.4 -12.47,-19.41 -15.22,-22.36 -2.75,-2.95 -11.03,-12.85 -18.41,-22 -23.46,-29.14 -30.02,-34.84 -58.42,-50.69 -34.49,-19.25 -48.94,-28.59 -63.15,-40.85 l -7.5,-6.46 -2.66,8.32 c -10.18,31.88 -4.27,63.27 19.55,103.95 2.68,4.58 12.42,19.2 21.65,32.52 9.23,13.32 16.77,24.42 16.77,24.68 0,1.11 -9.28,-4.33 -16.06,-9.4 -3.96,-2.97 -11.89,-9.68 -17.84,-15.1 -5.94,-5.42 -14.67,-12.95 -19.62,-16.95 l -8.92,-7.19 -0.88,4.05 c -0.94,4.32 -0.38,11.89 2.16,29.37 1.94,13.32 1.3,17.82 -2.71,19.34 -2.78,1.04 -2.92,1.47 -2.19,6.7 2.48,17.73 9.67,36.22 20.23,52.1 12.29,18.49 29.53,33.54 74.84,65.34 11.06,7.76 23.9,17.47 28.55,21.59 4.63,4.12 8.76,7.12 9.15,6.66 0.39,-0.45 1.31,-3.8 2.03,-7.37 z m 88.45,-171.61 c 24.99,-49.64 86.61,-93.88 169.39,-121.61 l 16.53,-5.53 20.22,0.77 c 25.68,0.97 57.01,3.62 78.97,6.7 16.64,2.33 47.84,8.24 56.01,10.62 3.1,0.9 4.47,0.79 5.83,-0.45 4.18,-3.81 9.04,-4.54 29.61,-4.43 l 20.7,0.11 4.4,-3.46 c 13.65,-10.72 47.45,-19.14 76.82,-19.14 l 11.18,0 17.61,-9.51 c 14.75,-7.98 18.85,-10.83 25.33,-17.6 4.21,-4.4 10.44,-9.92 13.68,-12.11 9.64,-6.51 19.86,-14.78 46.38,-37.54 35.08,-30.11 46.78,-38.56 68.27,-49.3 11.4,-5.71 12.96,-7 37.93,-31.48 52.36,-51.32 93.61,-100.89 132.16,-158.81 30.59,-45.95 51.92,-83.61 83.97,-148.19 17.76,-35.8 19.69,-40.3 21.9,-51.26 4.57,-22.6 6.29,-42.19 5.56,-63.39 -1.13,-32.82 -0.34,-30.42 -19.21,-57.8 -94.29,-136.77 -205.14,-258.77 -331.77,-365.144 -285.12,-239.52 -635.68,-385.539 -997.23,-415.371 -106.66,-8.801 -194.33,-6.844 -318.14,7.105 -187.19,21.09 -358.86,66.734 -518.53,137.871 -36.04,16.055 -77.9,36.434 -77.9,37.918 0,2.516 6.12,30.684 9.06,41.746 8.28,31.047 21.79,67.313 48.1,129.156 25.76,60.536 33.43,79.629 41.03,102.161 6.41,19.031 13.78,44.838 13.01,45.568 -0.2,0.19 -3.41,-5.131 -7.2,-11.908 -3.76,-6.739 -12.31,-21.887 -19,-33.66 -58.41,-102.754 -76.09,-143.332 -86.82,-199.207 -2.61,-13.559 -3.67,-49.192 -1.85,-61.844 0.78,-5.352 1.15,-10.02 0.83,-10.348 -1.95,-1.984 -79.82,41.781 -123.82,69.598 -162.19,102.511 -301.81,226.66 -443.666,394.469 -58.609,69.34 -77.504,104.23 -70.136,129.52 1.683,5.76 3.355,8.32 9.417,14.37 21.692,21.64 78.258,48.06 103.114,48.16 3.863,0.02 5.433,1.21 16.023,12.15 14.82,15.31 20.938,22.48 46.985,55.07 41.733,52.21 114.233,131.08 149.753,162.91 26.29,23.55 44.13,37.01 101.69,76.71 24.97,17.23 36.33,25.88 45.43,34.61 19.11,18.34 31.28,28.28 72.67,59.37 l 38.77,29.13 10,14.87 c 26.73,39.72 57.84,71.03 86.09,86.64 8.33,4.6 25.81,11 34.02,12.46 3.09,0.55 4.05,0.21 5.14,-1.81 1.89,-3.58 0.44,-8.57 -5.45,-18.68 -5.9,-10.11 -7.75,-15.58 -5.28,-15.58 3.27,0 16.28,15.46 25.14,29.85 13.01,21.17 23.08,30.09 36.82,32.6 3.45,0.63 4.52,0.44 4.52,-0.78 0,-0.88 -4.75,-15.7 -10.52,-32.83 -5.78,-17.12 -10.37,-31.22 -10.17,-31.22 1.38,0 12.69,18.08 21.95,35.09 11.97,22 20.31,34.21 26.69,39.1 4.4,3.37 12.35,7.18 13.2,6.33 0.33,-0.33 -0.24,-3.45 -1.25,-6.9 -1.26,-4.33 -1.84,-11.18 -1.84,-21.88 0,-32.71 -3.15,-38.78 -31.99,-61.73 -22.36,-17.78 -27.15,-23.28 -38.16,-43.76 -15.2,-28.31 -20.26,-56.77 -14.25,-80.16 6.81,-26.51 30.17,-46.68 64.66,-55.83 10.82,-2.88 12.62,-3.04 19.98,-1.82 10.34,1.72 17.02,4.42 19.87,8.06 l 2.25,2.85 8.62,-14.03 c 6.14,-10 11.4,-16.76 18.26,-23.49 l 9.63,-9.46 0.65,5.77 c 0.5,4.4 1.46,6.45 4.05,8.62 l 3.38,2.86 13.06,-13.8 c 21.72,-22.95 47.32,-42.67 67.1,-51.69 l 8.45,-3.85 -2.71,-8.45 c -5.26,-16.37 -11.09,-28.3 -29.23,-59.82 -8.84,-15.34 -19.33,-36.14 -18.61,-36.86 1.12,-1.12 14.94,14.98 30.74,35.79 23.65,31.16 35,42.33 52.63,51.82 7.85,4.22 26.65,11.27 27.59,10.34 0.68,-0.64 -12.8,-37.42 -25.38,-69.29 -15.55,-39.37 -22.41,-58.15 -28.3,-77.42 -4.03,-13.21 -9.06,-33.95 -8.4,-34.61 0.13,-0.14 2.29,4.63 4.83,10.7 26.49,63.15 69.48,138.43 121.69,213.12 23.69,33.9 70.49,97.23 71.26,96.45 0.27,-0.26 -7.37,-16.17 -16.94,-35.32 -21.71,-43.41 -36.36,-74.41 -46.88,-99.18 -9.24,-21.77 -20.61,-51.74 -19.9,-52.45 0.7,-0.7 15.99,16.41 23.38,26.16 7.42,9.79 11.91,18.91 16.17,32.83 9.43,30.84 33.14,67.91 73.03,114.17 7.58,8.8 17.54,20.89 22.02,26.76 15.82,20.69 21.3,26.92 26.19,29.8 9.11,5.34 19.49,2.91 28.67,-6.73 l 4.99,-5.23 0.54,-20.22 c 0.42,-16.05 1.01,-21.61 2.9,-27 5.05,-14.45 13.21,-20.22 29.02,-20.51 9.28,-0.18 9.44,-0.23 12.53,-4.35 8.39,-11.15 16.86,-33.29 23.72,-61.96 3.05,-12.72 3.81,-14.49 8.13,-18.91 9.7,-9.92 33.41,-23.47 59.33,-33.91 7.14,-2.87 13.15,-5.22 13.38,-5.22 0.23,0 0.59,2.27 0.79,5 0.5,6.6 4.5,9.55 13.9,10.23 11.78,0.84 36.38,-7 44.24,-14.1 3.04,-2.74 3.06,-2.91 1.47,-9.09 -1.99,-7.71 -3.88,-12.13 -13.91,-32.47 -7.62,-15.46 -10.02,-21.87 -12.46,-33.3 l -1.14,-5.35 7.18,7.73 c 17.8,19.15 31.62,38.82 39.7,56.49 2.55,5.59 5.04,10.11 5.57,10.11 0.52,0 7.73,-3.5 15.93,-7.73 8.21,-4.23 16.28,-7.73 17.84,-7.73 3.25,0 3.12,-0.95 -2.37,-16.65 -4.75,-13.58 -11.68,-28.19 -23.12,-48.76 -5.29,-9.52 -11.54,-21.17 -13.94,-25.99 l -4.34,-8.74 5.59,4.01 c 8.19,5.88 21.04,20.13 29.2,32.38 3.98,5.98 11.77,20.16 17.43,31.69 l 10.22,20.88 16.12,-0.48 c 14.27,-0.42 17.43,-0.13 27.65,2.54 11.78,3.08 25.49,9.22 32.59,14.59 3.45,2.61 4.25,2.79 6.66,1.48 4.45,-2.42 18.43,-1.74 26.28,1.29 15.46,5.95 35.13,22.08 48.08,39.45 6.58,8.8 8.16,10.28 9.96,9.31 3.76,-2.04 7.26,-8.36 8.03,-14.54 l 0.77,-6.07 8.94,9.63 c 35.75,38.54 48.7,103.95 35.05,176.97 -2.85,15.22 -7.89,33.52 -11.77,42.7 -1.1,2.61 -3.12,13.38 -4.45,23.84 -2.09,16.36 -2.34,22.66 -1.72,44.07 0.39,13.79 1.03,27.13 1.42,29.79 l 0.72,4.82 19.26,10.88 c 57.68,32.57 87.18,53.45 113.17,80.1 20.46,20.98 37.71,45.9 51.6,74.57 2.94,6.06 5.46,10.94 5.66,10.94 0.2,0 2.03,-3.33 4.13,-7.49 z m -227.73,-175.55 c 4.93,-7.21 6.89,-19.86 6.85,-44.12 -0.04,-24.38 -1.95,-39.25 -5.06,-39.25 -3.81,0 -10.24,5.35 -14.69,12.25 -14.3,22.12 -13.6,52.78 1.66,72.91 3.52,4.64 4.1,4.97 6.26,3.57 1.33,-0.87 3.51,-3.22 4.98,-5.36"
         style="fill-opacity:1;fill-rule:nonzero;stroke:none;fill:#000000"
         id="path30" /><path
         d="m 1019.23,3969.56 c -64.578,-5.98 -129.226,-58.03 -150.265,-120.99 -6.274,-18.76 -8.231,-32.82 -7.461,-53.52 1.519,-40.91 18.324,-77.31 50.215,-108.79 23.363,-23.06 49.593,-37.51 80.156,-44.15 14.035,-3.05 44.125,-3.11 58.275,-0.11 53.28,11.27 103.96,50.95 127.91,100.13 23.79,48.88 18.91,103.66 -13.57,152.23 -35.63,53.29 -88.17,80.5 -145.26,75.2 z m 6.18,-50.18 c 43.53,-6.56 83.93,-37.21 105.54,-80.08 15.47,-30.69 18.14,-59.85 7.96,-87.06 -4.86,-12.96 -11.05,-22.35 -21.56,-32.66 -21.49,-21.07 -53.64,-32.24 -83.85,-29.12 -18.91,1.95 -30.14,5.35 -47.688,14.43 -41.562,21.52 -72.019,63.29 -77.437,106.22 -7.078,56.07 40.449,108.52 99.555,109.87 3.25,0.08 11.18,-0.65 17.48,-1.6"
         style="fill-opacity:1;fill-rule:nonzero;stroke:none;fill:#000000"
         id="path32" /><path
         d="m 3523.72,3954.25 c -0.34,-11.07 -0.91,-14.52 -3.15,-19.09 -3.32,-6.78 -155.33,-186.64 -162.34,-192.09 -6.48,-5.02 -14.63,-7.48 -24.86,-7.48 -4.87,0 -7.94,-0.43 -7.55,-1.07 0.99,-1.62 70.34,-59.83 84.5,-70.92 29.38,-23.02 53.52,-35.67 75.99,-39.81 15.94,-2.95 37.72,-0.33 53.17,6.39 22.47,9.78 42.7,30.83 49.86,51.89 7.72,22.72 2.21,51.2 -13.67,70.65 -3.1,3.8 -5.42,7.08 -5.15,7.31 0.26,0.23 4.69,-0.94 9.93,-2.62 8.31,-2.66 10.76,-2.95 20.28,-2.35 18.79,1.18 32.12,8.35 43.43,23.35 14.73,19.52 16.59,42.69 5.32,66 -11.6,23.98 -26.52,39.74 -79.8,84.3 -20.33,17 -38.81,32.67 -41.2,34.93 l -4.35,4.1 -0.41,-13.49 z m 46.68,-70.41 c 22,-16.63 31.75,-32.93 30.48,-50.96 -1.7,-24.03 -26.21,-44.24 -49.51,-40.83 -12.28,1.8 -28.42,10.92 -42.7,24.13 l -7.37,6.82 28.78,34.2 c 15.82,18.79 29.13,34.19 29.55,34.19 0.43,0 5.3,-3.41 10.77,-7.55 z m -80.28,-91.35 c 21.05,-15.72 37.03,-33.05 43.72,-47.38 5.01,-10.76 5.81,-25.93 2,-37.82 -4.59,-14.29 -15.04,-25.77 -29.78,-32.74 -6.73,-3.18 -9.28,-3.72 -19.63,-4.13 -10.11,-0.41 -13.28,-0.03 -21.17,2.49 -17.08,5.46 -32.25,16.54 -46.57,34.02 -3.8,4.64 -6.63,8.9 -6.39,9.63 0.59,1.79 68,82.06 68.9,82.06 0.39,0 4.4,-2.75 8.92,-6.13"
         style="fill-opacity:1;fill-rule:nonzero;stroke:none;fill:#000000"
         id="path34" /><path
         d="m 3762.95,3760.21 c 0,-6.18 -4.97,-21.88 -8.65,-27.35 -2.54,-3.78 -33.93,-32.14 -92.8,-83.85 -48.88,-42.93 -91.11,-79.58 -93.72,-81.35 -6.69,-4.51 -15.82,-6.17 -26.4,-4.8 -4.76,0.62 -8.75,0.96 -8.98,0.76 -0.23,-0.2 13.92,-16.83 31.52,-37.05 l 31.93,-36.69 0.84,10.94 c 1.04,13.56 3.59,19.26 12.6,28.09 3.73,3.66 44.71,39.58 91.22,79.96 l 84.44,73.32 5.17,-5.71 c 2.84,-3.14 8.39,-9.99 12.33,-15.22 21.9,-29.14 22.99,-51.36 3.43,-69.99 -16.13,-15.36 -34.61,-18.43 -58.04,-9.64 -9.92,3.73 -23.66,11.9 -34.01,20.22 -4.52,3.64 -8.42,6.39 -8.69,6.13 -1.6,-1.6 -19.25,-67.55 -25.2,-94.19 -14.61,-65.41 -16.57,-90.07 -8.59,-108.35 1.71,-3.92 46.55,-57.2 49.85,-59.23 0.53,-0.33 0.28,2.98 -0.56,7.38 -3.39,17.98 -4.19,31.75 -2.89,50.43 3.19,45.9 8.3,84.37 16.31,122.85 3,14.39 5.78,26.54 6.17,27 0.4,0.46 4.4,-1.57 9.04,-4.58 19.98,-12.98 32.77,-17.31 51.14,-17.31 31.16,0 60.74,23 67.76,52.69 3.93,16.6 1.05,38.41 -7.57,57.44 -4.15,9.16 -14.51,25.51 -21.94,34.61 -7.76,9.51 -74.7,86.23 -75.24,86.23 -0.27,0 -0.47,-1.19 -0.47,-2.74"
         style="fill-opacity:1;fill-rule:nonzero;stroke:none;fill:#000000"
         id="path36" /><path
         d="m 723.094,3746.7 c -17.008,-13.34 -26.008,-21.77 -37.602,-35.25 -25.945,-30.16 -41.984,-59.59 -50.121,-91.93 -2.992,-11.9 -3.258,-14.87 -3.258,-36.16 0,-17.72 0.496,-25.49 2.114,-32.94 9.605,-44.36 33.625,-79.92 69.718,-103.21 51.727,-33.38 118.219,-30.55 171.617,7.29 30.907,21.91 51.594,44.3 79.043,85.57 l 13.606,20.46 -14.57,37.1 c -9.852,25.1 -14.821,36.4 -15.344,34.91 -0.426,-1.22 -1.125,-5.77 -1.567,-10.17 -2.39,-24.02 -16.05,-60.32 -31.695,-84.2 -21.219,-32.4 -59.086,-55.83 -97.976,-60.62 -24.379,-3.01 -54.243,4.85 -76.946,20.25 -9.277,6.29 -24.578,20.81 -31.652,30.02 -11.852,15.45 -20.438,36.63 -23.039,56.85 -6.867,53.43 34.351,113.02 90.367,130.65 l 9.992,3.14 -20.457,17.79 c -11.297,9.82 -20.828,17.91 -21.289,18.07 -0.461,0.17 -5.351,-3.24 -10.941,-7.62"
         style="fill-opacity:1;fill-rule:nonzero;stroke:none;fill:#000000"
         id="path38" /><path
         d="m 4043.09,3402.82 c -0.43,-1.3 -2.85,-5.59 -5.39,-9.51 -8.34,-12.9 -2.29,-11.31 -142.15,-37.24 -67.43,-12.49 -126.77,-22.99 -132.01,-23.35 -11.37,-0.77 -19.03,0.67 -32.59,6.18 -5.59,2.27 -10.24,3.97 -10.4,3.81 -0.17,-0.17 11.46,-18.44 25.81,-40.56 14.34,-22.12 26.32,-39.51 26.58,-38.59 0.26,0.9 1.13,4.87 1.91,8.68 1.65,8.09 6.72,14.58 13.9,17.82 2.49,1.13 21.89,5.73 43.18,10.25 29.85,6.33 38.96,7.88 40.02,6.78 1.83,-1.93 56.07,-85.75 56.94,-88.01 0.84,-2.2 -43.21,-62.47 -49.75,-68.08 -7.6,-6.51 -14.39,-7.81 -25.57,-4.89 -3.45,0.9 -6.18,1.35 -6.18,1.01 0,-0.32 13.49,-21.34 30.02,-46.79 l 30.04,-46.21 0.81,13.44 c 0.94,15.46 3.8,25.55 9.86,34.85 2.17,3.34 39.94,56.85 83.93,118.93 44,62.08 81,114.31 82.24,116.07 l 2.26,3.21 -20.39,31.28 c -11.25,17.25 -20.82,31.74 -21.35,32.29 -0.52,0.56 -1.3,-0.06 -1.72,-1.37 z m -20.88,-62.43 c 0,-1.19 -66.89,-89.44 -67.79,-89.44 -1.19,0 -43.97,65.09 -43.3,65.89 0.35,0.42 106.81,23.49 109.67,23.77 0.83,0.08 1.42,-0.02 1.42,-0.22"
         style="fill-opacity:1;fill-rule:nonzero;stroke:none;fill:#000000"
         id="path40" /><path
         d="m 409.02,3326.59 c -23.247,-25.28 -39.172,-53.4 -47.157,-83.25 -2.566,-9.61 -3.07,-14.15 -3.172,-28.66 -0.101,-14.99 0.247,-18.41 2.649,-26.17 7.418,-23.9 24.969,-42.71 48.492,-51.96 7.504,-2.94 9.633,-3.23 24.856,-3.28 15.226,-0.06 17.55,0.23 27.117,3.37 13.672,4.48 24.383,11.04 49.117,30.07 24.144,18.58 37.148,27.2 51.262,33.99 18.55,8.92 33.367,7.36 44.449,-4.69 6.543,-7.12 9.508,-14.28 10.301,-24.86 1.754,-23.46 -9.321,-46.1 -34.891,-71.31 -15.699,-15.48 -28.305,-25.06 -44.004,-33.44 -8.445,-4.51 -10.828,-6.27 -9.156,-6.78 6.422,-1.96 60.254,-16.2 61.246,-16.2 2.07,0 13.25,10.7 22.238,21.29 24.266,28.58 40.965,61.6 46.074,91.1 2.493,14.39 1.602,36.91 -1.945,49.23 -9.789,34.02 -38.855,59.69 -69.812,61.66 -25.094,1.6 -53.403,-11.21 -90.508,-40.96 -15.578,-12.49 -32.641,-23.86 -43.051,-28.68 -16.176,-7.49 -30.129,-6.43 -40.676,3.09 -5.98,5.39 -8.914,11.2 -10.418,20.59 -2.66,16.64 3.578,35.8 17.852,54.83 8.121,10.83 18.613,18.82 35.023,26.69 12.012,5.76 13.52,6.79 11.656,8.04 -4.164,2.8 -46.367,26.88 -47.097,26.88 -0.391,0 -5.086,-4.76 -10.445,-10.59"
         style="fill-opacity:1;fill-rule:nonzero;stroke:none;fill:#000000"
         id="path42" /><path
         d="m 4128.66,3199.81 c -15.11,-2.1 -27.57,-3.88 -27.84,-3.98 -0.26,-0.1 2.14,-1.92 5.36,-4.04 9.66,-6.41 22.2,-19.81 28.76,-30.75 6.29,-10.47 21.71,-42.79 21.68,-45.43 -0.01,-0.79 -46.93,-23.3 -104.38,-50.07 l -104.36,-48.64 -10.11,-0.54 c -8.8,-0.47 -11.17,-0.13 -18.31,2.56 -4.52,1.7 -8.37,2.93 -8.57,2.74 -0.34,-0.35 40.8,-88.85 41.75,-89.8 0.65,-0.65 0.94,0.12 3.47,9.28 2.37,8.56 7.61,16.39 14.01,20.93 4.22,2.98 56.97,27.88 201.59,95.12 l 11.06,5.14 6.46,-13.32 c 9.34,-19.27 12.68,-30.18 13.4,-43.65 0.51,-9.75 0.25,-12.09 -1.96,-17.13 -1.41,-3.21 -2.29,-6.09 -1.96,-6.41 0.62,-0.61 58.39,6.48 62.91,7.73 1.43,0.39 1.78,1.04 1.07,1.96 -0.59,0.75 -23.18,48.88 -50.19,106.92 l -49.12,105.54 -3.68,-0.17 c -2.04,-0.1 -15.94,-1.89 -31.04,-3.99"
         style="fill-opacity:1;fill-rule:nonzero;stroke:none;fill:#000000"
         id="path44" /><path
         d="m 592.957,3037.59 c -1.699,-2.73 -20.785,-13.39 -28.039,-15.66 -7.5,-2.34 -10.465,-2.41 -99.902,-2.36 -50.664,0.04 -118.145,0.38 -149.852,0.78 l -57.68,0.71 -13.023,-32.53 c -7.145,-17.84 -13.695,-34.16 -14.512,-36.15 l -1.484,-3.63 7.847,1.13 c 9.754,1.41 17.879,-0.23 25.215,-5.09 8.121,-5.38 183.45,-178.48 189.809,-187.4 5.508,-7.72 9.988,-19.14 12.543,-31.99 0.758,-3.81 1.59,-6.69 1.851,-6.42 0.711,0.71 35.981,88.3 35.68,88.6 -0.133,0.13 -3.449,-1.08 -7.375,-2.69 -16.551,-6.77 -20.695,-4.62 -57.324,29.71 -15.816,14.83 -28.781,27.59 -28.781,28.34 0,0.76 8.945,23.49 19.863,50.49 l 19.859,49.12 37.524,-0.66 c 20.691,-0.36 40.187,-1.19 43.469,-1.84 9.871,-1.98 15.308,-5.98 19.539,-14.39 2.035,-4.05 3.652,-8.07 3.652,-9.1 0,-1.19 0.414,-1.42 1.164,-0.65 1.52,1.54 41.93,101.64 41.293,102.28 -0.355,0.35 -0.891,0.11 -1.336,-0.6 z M 353.816,2966 c 29.496,-0.79 53.625,-1.52 53.758,-1.62 0.266,-0.22 -29.258,-73.43 -29.851,-74.02 -0.317,-0.32 -69.336,63.3 -80.993,74.66 l -3.566,3.47 3.566,-0.53 c 1.965,-0.3 27.59,-1.18 57.086,-1.96"
         style="fill-opacity:1;fill-rule:nonzero;stroke:none;fill:#000000"
         id="path46" /><path
         d="m 4265.03,2951.37 c -3.65,-8.45 -9.34,-14.91 -16.61,-18.88 -3.27,-1.78 -56.44,-20.71 -118.16,-42.08 l -112.21,-38.82 -10.29,-0.13 c -9.75,-0.11 -10.78,0.14 -19.8,4.76 l -9.51,4.88 3.33,-9.64 c 1.83,-5.3 8.93,-25.92 15.81,-45.9 6.88,-19.98 12.89,-37.24 13.38,-38.42 0.7,-1.67 1.47,-0.71 3.53,4.41 3.51,8.68 9.73,17.12 15.68,21.29 3.2,2.24 38.53,14.96 108.11,38.94 134.51,46.36 127.76,44.21 137.25,43.67 5.6,-0.31 9.98,-1.49 15.93,-4.24 4.52,-2.1 8.33,-3.65 8.48,-3.45 0.49,0.65 -30.72,90.07 -31.43,90.05 -0.4,-0.01 -1.95,-2.88 -3.49,-6.44"
         style="fill-opacity:1;fill-rule:nonzero;stroke:none;fill:#000000"
         id="path48" /><path
         d="m 194.5,2838.62 c -1.219,-3.45 -56.52,-225.75 -56.508,-227.16 0.012,-1.18 52.266,-34.34 53.129,-33.71 0.129,0.1 -0.84,4.22 -2.141,9.1 -3.097,11.61 -4.066,27.83 -2.378,39.72 1.793,12.61 10.824,49.36 12.128,49.36 0.59,0 51.559,-12.62 113.165,-28.01 95.738,-23.92 112.906,-28.53 117.679,-31.59 6.422,-4.11 11.207,-9.74 15.543,-18.3 1.988,-3.93 3.235,-5.34 3.672,-4.17 1.316,3.57 24.273,96.34 23.84,96.34 -0.258,0 -3.094,-1.86 -6.184,-4.05 -9.039,-6.41 -13.086,-7.99 -22.121,-8.65 -8.008,-0.59 -14.035,0.78 -116.078,26.31 -59.226,14.83 -109.609,27.48 -112.031,28.13 -4.164,1.13 -4.363,1.4 -3.703,5 2.441,13.32 8.328,32.64 12.75,41.86 6.218,12.96 11.8,19.63 19.734,23.57 4.399,2.18 5.559,3.26 4.461,4.14 -0.82,0.66 -11.238,7.13 -23.254,14.45 -12.012,7.32 -23.867,14.59 -26.461,16.24 -3.449,2.18 -4.844,2.56 -5.242,1.42"
         style="fill-opacity:1;fill-rule:nonzero;stroke:none;fill:#000000"
         id="path50" /><path
         d="m 4235.21,2798.3 c -25.33,-4.95 -44.49,-19.81 -56.61,-43.88 -6.12,-12.15 -8.51,-21.65 -13.08,-51.97 -6.32,-41.99 -12.41,-65.26 -19.68,-75.29 -13.54,-18.67 -38.76,-18.77 -56.89,-0.23 -17.62,18.01 -24.17,46.97 -20.23,89.43 1.54,16.53 3.45,25.86 8.09,39.49 1.94,5.7 3.37,10.46 3.14,10.46 -0.22,0 -13.61,-7.29 -29.67,-16.17 l -29.26,-16.18 0.02,-14.98 c 0.06,-70.17 27.65,-127.65 71.94,-149.88 13.54,-6.8 23.43,-9.13 38.65,-9.13 35.51,0 58.14,16.65 72.91,53.64 5.66,14.14 8.27,25.68 12.64,55.77 8.43,58.04 18.71,75.88 43.73,75.88 9.51,0 16.75,-3.46 25.33,-12.13 8.37,-8.46 13.61,-18.43 17.3,-32.94 5.35,-21.08 3.69,-40.56 -5.32,-62.2 -2.02,-4.88 -3.66,-9.15 -3.66,-9.58 0,-0.42 12.61,2.42 27.95,6.3 l 27.95,7.08 0,5.59 c 0,30.33 -7.27,65.66 -18.58,90.27 -8.42,18.31 -24.2,38.2 -37.67,47.48 -17.35,11.94 -39.73,16.94 -59,13.17"
         style="fill-opacity:1;fill-rule:nonzero;stroke:none;fill:#000000"
         id="path52" /><path
         d="m 132.07,2563.77 c -0.031,-0.52 -3,-21.76 -6.597,-47.21 -3.602,-25.45 -6.543,-46.59 -6.543,-46.98 0,-0.39 2.855,1.44 6.304,4.04 3.45,2.61 8.293,5.61 10.704,6.62 10.015,4.24 12.843,3.96 136.414,-13.47 65.054,-9.18 120.636,-17.52 123.449,-18.52 7.711,-2.76 13.914,-7.69 20.008,-15.89 3.089,-4.16 5.718,-7.34 5.914,-7.14 0.445,0.45 13.562,93.96 13.562,96.69 0,1.55 -1.43,0.89 -6.066,-2.8 -8.922,-7.09 -16.024,-10.13 -24.856,-10.63 -9.754,-0.56 -234.531,30.74 -246.543,34.32 -6.66,1.99 -9.179,3.51 -14.273,8.61 -3.449,3.45 -7.34,7.76 -8.801,9.75 -1.48,2.02 -2.641,3.15 -2.676,2.61"
         style="fill-opacity:1;fill-rule:nonzero;stroke:none;fill:#000000"
         id="path54" /><path
         d="m 4368.95,2539.16 c -5.43,-5.63 -11.95,-9.79 -19.56,-12.47 -5.35,-1.88 -227.51,-22.1 -244.52,-22.24 -10.82,-0.1 -19.18,3.05 -28.9,10.91 -5.47,4.42 -7.38,5.42 -7.38,3.87 0,-1.14 3.75,-44.65 8.33,-96.62 4.58,-51.98 8.33,-95.65 8.33,-96.99 0,-2.21 3.09,-3.2 32.82,-10.47 18.08,-4.42 32.98,-7.86 33.18,-7.67 0.2,0.2 -2.79,4.64 -6.63,9.87 -9.57,13.02 -14.66,23.79 -18.82,39.84 -6.98,26.91 -9.45,48.76 -8.69,76.95 l 0.37,13.32 4.99,0.65 c 2.75,0.36 54.47,4.97 114.89,10.23 89.91,7.84 110.95,9.35 115.72,8.32 6.3,-1.36 14.03,-5.05 22.35,-10.7 4.28,-2.9 5.43,-3.26 5.74,-1.84 0.33,1.49 -6.38,83.13 -7.26,88.36 -0.14,0.87 -2.32,-0.59 -4.96,-3.32"
         style="fill-opacity:1;fill-rule:nonzero;stroke:none;fill:#000000"
         id="path56" /><path
         d="m 315.164,2414.76 c -13.914,-2.75 -24.918,-8.74 -36.75,-20.01 -15.062,-14.35 -25.293,-30.3 -38.191,-59.56 -19.508,-44.24 -32.184,-62.13 -46.844,-66.12 -7.492,-2.04 -18.664,-0.71 -24.973,2.97 -10.261,5.99 -18.097,19.03 -21.16,35.2 -1.586,8.38 -0.445,30.57 2.051,39.84 2.937,10.93 7.875,20.34 17.164,32.71 l 8.484,11.3 -11.656,0.77 c -6.422,0.43 -19.207,0.99 -28.48,1.25 l -16.829,0.48 -2.445,-8.45 c -5.347,-18.48 -7.43,-31.99 -8.121,-52.68 -0.961,-28.78 1.875,-47.49 10.297,-67.91 21.535,-52.21 81.25,-70.1 122.883,-36.82 16.019,12.81 21.765,21.59 40.437,61.79 24.524,52.81 36.16,67.19 55.422,68.53 15.223,1.05 28.258,-6.88 36.211,-22.03 11.074,-21.09 10.598,-47.33 -1.496,-82.54 -6.66,-19.38 -11.898,-30.27 -20.762,-43.17 -4.254,-6.18 -7.554,-11.29 -7.293,-11.29 0.262,0 12.129,2.69 26.403,6 14.273,3.31 27.906,6.46 30.328,7.02 4.398,1.01 4.398,1.01 3.238,-2.08 -3.394,-9.04 -13.91,-28.66 -19.703,-36.75 -22.625,-31.64 -65.07,-79.86 -95.449,-108.44 l -15.7,-14.77 -1.96,5.23 c -1.079,2.87 -4.598,10.52 -7.79,16.95 -4.734,9.51 -7.57,13.43 -15.105,20.88 -15.027,14.85 -30.566,21.5 -50.187,21.48 -38.137,-0.06 -64.618,-24.7 -72.797,-67.75 -3.446,-18.14 -2.547,-36.75 4.652,-96.34 3.59,-29.73 6.777,-55.21 7.074,-56.55 0.469,-2.14 1.485,-1.53 8.383,5.06 8.207,7.84 13.383,11.06 21.406,13.29 9.516,2.65 238.86,31.3 245.356,30.65 7.965,-0.8 14.59,-4.02 22.476,-10.94 l 6.305,-5.53 -0.063,3.39 c -0.031,1.86 -2.597,23.96 -5.707,49.18 l -5.648,45.79 -4.926,-7.26 c -7.672,-11.3 -14.242,-16.13 -24.926,-18.33 -6.304,-1.3 -227.441,-28.53 -231.675,-28.53 -2.18,0 -2.75,0.83 -3.422,4.99 -3.551,22.01 -2.864,43.36 1.797,56.02 5.14,13.96 17.203,23.01 34.328,25.75 30.258,4.84 55.695,-18.38 68.996,-62.97 l 2.484,-8.33 16.172,13.38 c 25.109,20.77 38.059,32.4 65.649,58.98 41.746,40.21 54.449,56.11 59.16,74.05 2.09,7.96 2.09,7.96 -2.309,43.88 -3.789,30.92 -4.172,36.15 -2.738,37.58 3.793,3.79 10.547,30.09 13.258,51.62 4.64,36.86 0.144,70.06 -13.043,96.33 -6.211,12.37 -10.641,18.5 -20.313,28.1 -16.113,16.01 -34.488,24.12 -56.371,24.87 -6.898,0.23 -13.953,0.16 -15.582,-0.16"
         style="fill-opacity:1;fill-rule:nonzero;stroke:none;fill:#000000"
         id="path58" /><path
         d="m 4096.66,2310.63 c -0.39,-4.15 -1.78,-23.37 -3.09,-42.63 -1.3,-19.27 -2.62,-37.64 -2.91,-40.74 l -0.54,-5.65 6.54,5.32 c 8.42,6.85 14.27,8.58 22.96,6.8 5.59,-1.15 74.14,-32.12 76.71,-34.66 0.75,-0.74 -5.95,-107.21 -6.78,-107.75 -2.07,-1.32 -75.52,-22.48 -79.33,-22.85 -9.51,-0.92 -15.29,1.44 -22.88,9.36 -5.02,5.23 -6.85,6.53 -6.85,4.87 0,-1.24 -1.63,-25.21 -3.63,-53.28 -1.99,-28.06 -3.47,-51.98 -3.27,-53.16 0.25,-1.52 2.27,0.36 6.89,6.42 6.99,9.16 15.26,16.32 23.79,20.62 2.95,1.48 67.91,22.61 144.5,46.99 76.6,24.39 139.26,44.4 139.39,44.51 0.43,0.38 5.11,66.04 5.11,71.75 l 0,4.99 -6.83,-3.21 c -5.72,-2.69 -8.45,-3.21 -16.65,-3.21 l -9.82,0 -115.65,57.86 c -72.79,36.41 -118.31,59.85 -122.8,63.23 -7.47,5.63 -12.05,11.28 -19.56,24.13 l -4.58,7.84 -0.72,-7.55 z M 4286,2157.84 c 27.71,-12.89 49.88,-23.8 49.36,-24.29 -0.84,-0.77 -106.53,-32.01 -107.04,-31.64 -0.17,0.12 5.22,77.84 5.47,79.03 0.21,0.94 6.42,-1.81 52.21,-23.1"
         style="fill-opacity:1;fill-rule:nonzero;stroke:none;fill:#000000"
         id="path60" /><path
         d="m 4368.89,1990.93 c -5.94,-3.86 -14.66,-8.26 -19.62,-9.91 -4.91,-1.64 -61.37,-13.76 -125.47,-26.94 -64.1,-13.18 -121.58,-25.28 -127.73,-26.88 -17.13,-4.47 -25.34,-8.99 -36.39,-20.04 -9.88,-9.87 -22.8,-27.75 -21.17,-29.3 0.52,-0.5 64.34,-40.89 141.88,-89.81 77.54,-48.91 142.38,-89.91 144.14,-91.16 l 3.22,-2.26 0.7,3.93 c 5.84,32.23 13.24,75.33 13,75.64 -0.21,0.26 -2.17,-0.87 -4.31,-2.48 -11.66,-8.76 -21.69,-10.98 -31.4,-6.97 -8.2,3.39 -191.45,111.3 -189.57,111.64 0.98,0.18 56.85,10.22 124.28,22.33 67.43,12.11 123.59,22.24 124.94,22.53 2.21,0.49 3.01,3.87 8.68,36.57 3.44,19.87 6.51,37 6.85,38.18 0.85,3.03 -0.25,2.56 -12.03,-5.07"
         style="fill-opacity:1;fill-rule:nonzero;stroke:none;fill:#000000"
         id="path62" /><path
         d="m 388.574,1884.68 c 10.793,-11.06 17.485,-19.75 21.875,-28.42 11.645,-22.99 18.781,-50.9 23.051,-90.15 l 0.715,-6.54 -50.25,-11.53 c -27.59,-6.34 -50.406,-11.41 -50.606,-11.25 -0.195,0.17 -2.5,9.7 -5.136,21.23 -6.707,29.38 -6.328,40.04 1.875,52.45 1.886,2.85 2.363,4.41 1.359,4.41 -2.496,0.02 -50.16,-11.09 -51.141,-11.91 -0.457,-0.39 2.981,-17.24 7.614,-37.33 4.66,-20.22 7.965,-37.07 7.375,-37.6 -1.907,-1.71 -76.61,-18.19 -77.59,-17.11 -1.328,1.46 -16.723,69.45 -16.723,73.85 0,6.56 3.301,14.63 9.379,22.95 3.391,4.65 5.766,8.33 5.367,8.33 -1.652,0 -58.273,-13.21 -60.058,-14.01 -1.676,-0.75 0.476,-11.14 17.957,-86.78 10.914,-47.22 20.105,-86.17 20.398,-86.47 0.297,-0.29 3.801,3.4 7.86,8.27 9.253,11.12 13.726,13.26 40.722,19.48 155.918,35.92 214.531,48.91 220.735,48.91 7.375,0 16.511,-3.41 23.668,-8.82 5.589,-4.23 6.335,-4.52 5.765,-2.25 -0.293,1.18 -10.324,44.54 -22.297,96.4 -11.976,51.85 -22.027,94.52 -22.351,94.85 -0.438,0.44 -63.992,7.73 -67.442,7.73 -0.328,0 3.235,-3.93 7.879,-8.69"
         style="fill-opacity:1;fill-rule:nonzero;stroke:none;fill:#000000"
         id="path64" /><path
         d="m 3995.69,1674.36 c -16.8,-51.74 -30.43,-94.24 -30.27,-94.38 0.17,-0.12 12.49,-9.39 27.36,-20.57 14.86,-11.18 27.06,-19.88 27.06,-19.32 0,0.55 -1.32,6.53 -2.92,13.32 -1.6,6.77 -3.26,15.78 -3.68,20.04 -2.22,22.41 9.5,68.14 25.47,99.42 l 4.32,8.44 48.64,-15.81 c 26.76,-8.71 48.85,-16.04 49.12,-16.3 1.02,-1.02 -14.34,-43.65 -17.83,-49.47 -4.17,-6.97 -9.17,-11.43 -17.5,-15.62 l -5.35,-2.7 26.17,-8.56 c 14.39,-4.71 26.32,-8.46 26.52,-8.33 0.2,0.14 5.63,16.53 12.07,36.4 7.82,24.14 12.25,36.11 13.32,36.03 0.88,-0.06 18.43,-5.59 38.89,-12.25 29.49,-9.59 37.13,-12.5 36.57,-13.91 -0.39,-0.98 -5.57,-16.77 -11.47,-34.97 -5.91,-18.2 -11.97,-34.95 -13.42,-37.11 -4.87,-7.2 -11.15,-11.01 -28.15,-17.08 -0.99,-0.35 12.07,-5.15 29.08,-10.68 17.01,-5.54 31.22,-9.63 31.66,-9.1 1.3,1.54 54.99,168.03 54.38,168.64 -0.32,0.33 -2.97,-0.41 -5.82,-1.62 -9.64,-4.07 -16.29,-5.36 -24.03,-4.65 -5.18,0.48 -40.85,11.63 -119.94,37.49 -61.96,20.26 -114.76,37.94 -117.44,39.32 -8.17,4.2 -12.58,9.02 -16.87,18.42 -2.22,4.88 -4.36,8.95 -4.72,8.98 -0.36,0.03 -14.42,-42.34 -31.22,-94.07"
         style="fill-opacity:1;fill-rule:nonzero;stroke:none;fill:#000000"
         id="path66" /><path
         d="m 219.246,1559.77 14.332,-37.47 4.539,8.68 c 5.223,10 10.781,15.63 17.227,17.46 4.347,1.24 200.039,4.28 217.402,3.38 l 7.254,-0.38 -94.371,-82.65 c -51.852,-45.42 -95.227,-83.6 -96.274,-84.74 -1.75,-1.92 -0.917,-4.64 10.348,-33.9 6.731,-17.48 13,-33.69 13.914,-35.97 l 1.668,-4.16 7.074,13.73 c 5.575,10.82 8.907,15.64 15.7,22.71 4.746,4.95 48.464,45.65 97.226,90.51 48.762,44.87 91.176,84.63 94.328,88.42 6.903,8.32 11.899,17.84 14.403,27.48 1.949,7.49 5.125,35.61 4.132,36.59 -0.57,0.56 -307.91,7.76 -331.816,7.77 l -11.414,0 14.328,-37.46"
         style="fill-opacity:1;fill-rule:nonzero;stroke:none;fill:#000000"
         id="path68" /><path
         d="m 3935.04,1510.41 -19.98,-39.25 8.44,3.63 c 10.94,4.7 16.96,5.44 25.81,3.17 8.08,-2.08 172.25,-85.21 170.78,-86.48 -0.52,-0.46 -45.91,-10.05 -100.85,-21.3 -123.33,-25.28 -141.78,-29.29 -152.23,-33.05 -18.44,-6.63 -36.57,-17.5 -46.82,-28.07 l -6.34,-6.54 12.31,-6.48 c 6.77,-3.57 63.09,-32.3 125.29,-63.93 62.2,-31.62 115.66,-59.22 118.93,-61.4 6.92,-4.62 8.96,-7.22 15.55,-19.82 l 4.91,-9.4 17.78,35.21 c 9.79,19.38 17.48,35.17 17.12,35.14 -0.36,-0.04 -3.86,-0.84 -7.79,-1.78 -9.27,-2.23 -19.37,-2.18 -26.16,0.12 -4.29,1.46 -162.93,81.63 -164.36,83.07 -0.2,0.19 59.16,12.23 131.95,26.75 72.78,14.53 133.22,26.67 134.33,27 1.9,0.55 32.45,58.54 31.4,59.59 -0.27,0.26 -4.52,-0.37 -9.52,-1.41 -10.94,-2.28 -16.55,-2.34 -23.43,-0.27 -4.39,1.33 -203.01,102.87 -216.33,110.6 -10.19,5.91 -14.97,12.98 -19.24,28.44 l -1.57,5.71 -19.98,-39.25"
         style="fill-opacity:1;fill-rule:nonzero;stroke:none;fill:#000000"
         id="path70" /><path
         d="m 597.008,1434.06 c -4.086,-16.06 -10.215,-24.84 -21.742,-31.16 -19.864,-10.88 -209.11,-106.56 -214.075,-108.24 -7.632,-2.56 -15.699,-2.4 -24.855,0.5 -4.164,1.31 -7.863,2.37 -8.328,2.37 -0.699,0 15.387,-32.35 39.035,-78.5 2.254,-4.4 4.125,-6.88 4.434,-5.89 0.3,0.97 1.398,4.47 2.488,7.91 2.812,8.92 8.219,16.33 15.293,20.94 3.406,2.22 53.758,28.28 112.031,57.97 l 105.848,53.94 10.168,0.48 c 8.566,0.4 11.531,0 18.793,-2.5 l 8.621,-2.98 -22.832,44.78 c -12.555,24.62 -22.996,44.96 -23.192,45.2 -0.195,0.22 -0.965,-1.97 -1.687,-4.82"
         style="fill-opacity:1;fill-rule:nonzero;stroke:none;fill:#000000"
         id="path72" /><path
         d="m 554.691,1237.11 c -64.222,-44.97 -118.757,-82.75 -121.308,-84.02 -3.551,-1.78 -8.031,-2.48 -19.09,-2.98 l -14.449,-0.65 22.179,-31.76 c 12.211,-17.48 22.5,-31.38 22.895,-30.92 0.398,0.47 1.359,3.45 2.184,6.78 2.464,9.99 6.023,16.69 11.847,22.33 5.473,5.29 149.965,107.08 150.809,106.23 0.258,-0.26 -17.176,-59.22 -38.715,-130.94 l -39.188,-130.465 18.911,-26.938 c 10.433,-14.863 19.308,-26.668 19.8,-26.339 0.493,0.324 1.996,4.398 3.34,9.039 3.379,11.652 7.778,18.523 15.75,24.593 16.77,12.766 193.684,134.54 199.207,137.12 7.239,3.38 17.957,3.86 27.828,1.23 3.45,-0.92 6.305,-1.44 6.305,-1.14 0,0.29 -9.273,13.74 -20.637,29.91 -11.359,16.17 -22.582,32.24 -24.972,35.74 -2.356,3.45 -4.375,5.87 -4.41,5.29 -1.196,-18.43 -4.286,-27.19 -12.301,-34.85 -4.52,-4.32 -154.297,-109.73 -154.965,-109.05 -0.133,0.13 13.375,46.5 30.035,103.11 36.578,124.28 40.43,138.32 42.219,153.77 1.883,16.3 0.609,35.32 -3.176,47.34 -1.605,5.11 -3.062,9.37 -3.191,9.34 -0.129,-0.04 -52.688,-36.79 -116.907,-81.77"
         style="fill-opacity:1;fill-rule:nonzero;stroke:none;fill:#000000"
         id="path74" /><path
         d="m 3794.46,1246.5 c -3.91,-3.12 -12.54,-11.29 -19.1,-18.07 -34.2,-35.36 -52.01,-71.24 -53.67,-108.11 -1.3,-28.66 6.93,-51.27 25.32,-69.56 15.27,-15.2 30.92,-22.14 49.95,-22.14 12.67,0 22.48,2.06 37.7,7.91 13.83,5.31 21.88,9.73 44.48,24.42 33.78,21.94 52.94,30.39 66.48,29.33 20.51,-1.62 32.68,-19.2 29.03,-41.91 -2.45,-15.23 -10.22,-29.76 -23.08,-43.17 -10.44,-10.888 -19.51,-16.614 -36.28,-22.923 l -14.62,-5.504 23.31,-16.293 23.31,-16.296 3.21,2.332 c 5.92,4.293 29.61,29.066 36.21,37.867 20.34,27.117 31.51,54.817 32.75,81.227 0.81,17.13 -1.25,27.8 -7.96,41.39 -8.77,17.77 -27.46,34.06 -45.66,39.8 -6.95,2.19 -11.18,2.66 -23.91,2.66 -24.59,0 -32.82,-3.25 -73.25,-28.88 -33.3,-21.12 -52.18,-30.28 -65.66,-31.86 -13.43,-1.59 -27.07,6.05 -33.9,18.99 -2.91,5.52 -3.19,7.26 -3.14,19.15 0.05,11.06 0.53,14.32 3.12,21.05 5.16,13.46 10.49,21.05 24.84,35.45 19.02,19.07 36.32,31.14 58.32,40.71 6.42,2.8 11.28,5.41 10.83,5.83 -0.94,0.85 -59.59,22.42 -60.78,22.35 -0.39,-0.02 -3.92,-2.61 -7.85,-5.75"
         style="fill-opacity:1;fill-rule:nonzero;stroke:none;fill:#000000"
         id="path76" /><path
         d="m 3639.85,1047.54 c -17.65,-21.06 -32.27,-38.68 -32.46,-39.13 -0.2,-0.46 1.66,-0.36 4.16,0.22 6.9,1.6 18.4,1.28 24.85,-0.7 3.23,-0.98 8.8,-4.05 12.49,-6.87 15.34,-11.72 183.05,-153.271 185.18,-156.298 4.6,-6.535 6.35,-11.301 7.73,-21.051 l 1.42,-9.992 28.37,33.777 c 15.58,18.551 29.38,35.063 30.62,36.629 l 2.26,2.855 -11.59,-0.121 c -10.23,-0.101 -12.37,0.254 -18.14,3.036 -4.35,2.093 -37.22,28.875 -98.12,79.921 -50.42,42.274 -92.82,78.214 -94.34,79.984 -5.45,6.32 -8.72,15.22 -9.54,25.92 l -0.78,10.11 -32.11,-38.29"
         style="fill-opacity:1;fill-rule:nonzero;stroke:none;fill:#000000"
         id="path78" /><path
         d="m 834.98,1055.39 c 0.157,-20.9 6.926,-13.19 -94.878,-108.144 C 639.961,853.84 644.934,857.773 625.453,856.605 l -11.18,-0.667 4.165,-4.458 c 2.296,-2.46 16.421,-17.601 31.515,-33.777 l 27.352,-29.316 1.367,8.922 c 1.84,12.011 6.14,20.902 13.738,28.414 13.559,13.406 123.68,115.41 128.801,119.312 6.516,4.961 17.125,10.348 24.383,12.375 8.144,2.278 23.07,1.762 32.109,-1.109 20.824,-6.621 44.922,-30.313 55.149,-54.215 4.988,-11.656 5.804,-28.395 1.953,-39.844 -5.278,-15.676 -8.223,-18.84 -77.797,-83.664 -35.914,-33.465 -67.11,-62.07 -69.336,-63.578 -6.738,-4.574 -13.438,-6.375 -24.496,-6.578 -5.711,-0.106 -10.231,-0.512 -10.086,-0.906 0.398,-1.071 64.148,-69.391 65.148,-69.817 0.461,-0.195 1.114,4.047 1.457,9.52 0.672,10.582 2.746,16.886 7.668,23.308 1.653,2.161 34.106,32.993 72.164,68.563 38.059,35.57 72.258,68.328 76.051,72.844 14.25,16.968 20.602,35.562 19.422,56.851 -0.762,13.742 -2.777,21.883 -8.977,36.274 -17.164,39.839 -63.41,78.968 -101.183,85.609 -13.559,2.383 -13.391,1.894 -3.688,10.692 l 8.684,7.88 -18.793,20.16 c -10.309,11.06 -22.707,24.29 -27.473,29.31 l -8.683,9.16 0.093,-12.48"
         style="fill-opacity:1;fill-rule:nonzero;stroke:none;fill:#000000"
         id="path80" /><path
         d="m 3585.14,978.438 c -26.75,-14.043 -57.08,-40.145 -73.51,-63.27 -7.64,-10.758 -17.8,-31.758 -21.29,-44.004 -2.27,-7.941 -2.71,-12.371 -2.66,-26.762 0.05,-15.461 0.39,-18.226 3.26,-26.757 4.52,-13.442 10.81,-23.547 21.1,-33.895 17.24,-17.348 35.88,-23.402 62.4,-20.258 17.66,2.09 31.52,5.996 56.26,15.856 48.52,19.336 66.21,22.488 80.99,14.429 19.2,-10.465 21.37,-36.312 5.01,-59.621 -14.64,-20.847 -34.51,-32.89 -61.98,-37.566 -8.56,-1.461 -15.33,-2.953 -15.17,-3.348 0.17,-0.39 9.01,-9.691 19.63,-20.633 l 19.32,-19.921 7.5,4.218 c 40.79,22.977 74.09,60.817 85.45,97.11 2.41,7.691 2.78,11.3 2.73,26.164 -0.05,15.582 -0.35,18.015 -3.1,25.215 -4.53,11.89 -10.1,20.457 -19.49,29.968 -14.52,14.723 -32.89,22.121 -54.89,22.121 -16.47,0 -26.4,-2.546 -58.16,-14.922 -40.31,-15.707 -63.44,-21.941 -75.4,-20.316 -23.57,3.199 -35.7,27.031 -26.72,52.484 7.96,22.559 27.2,40.09 62.52,56.969 17.25,8.242 30.02,12.637 43.65,15.016 6.78,1.183 8.34,1.828 7.13,2.941 -0.85,0.785 -12.48,7.992 -25.92,16.055 -13.44,8.062 -25.45,15.324 -26.76,16.176 -2.08,1.351 -3.57,0.922 -11.9,-3.449"
         style="fill-opacity:1;fill-rule:nonzero;stroke:none;fill:#000000"
         id="path82" /><path
         d="m 3052.1,602.023 c -21.76,-10.226 -39.22,-18.98 -38.89,-19.503 0.32,-0.504 1.55,-0.961 2.62,-0.969 4.4,-0.043 14.45,-5.86 16.81,-9.735 4.04,-6.621 3.13,-14.75 -6.35,-56.613 -4.77,-21.051 -9,-38.613 -9.39,-39.008 -0.4,-0.39 -23.85,13.004 -52.15,29.793 -28.31,16.785 -52.3,30.27 -53.34,29.985 -4.4,-1.207 -74.93,-34.637 -74.93,-35.516 0,-0.5 1.07,-0.949 2.26,-0.949 5.71,0 31.4,-7.59 40.56,-11.985 16.77,-8.046 122.38,-69.418 122.44,-71.148 0.03,-0.852 -10.4,-44.898 -23.2,-97.941 -12.79,-53.043 -22.98,-96.657 -22.65,-96.985 0.56,-0.551 82.65,37.449 84.44,39.086 0.51,0.473 -1.67,1.246 -4.76,1.684 -14.39,2.047 -20.11,8.051 -19.86,20.836 0.11,5.113 24.29,109.929 25.69,111.32 0.13,0.129 28.84,-16.602 63.69,-37.109 l 63.45,-37.344 40.25,18.73 40.26,18.731 -6.19,0.965 c -20.45,3.179 -28.08,4.89 -36.15,8.097 -10.11,4.016 -150.18,84.051 -151.07,86.321 -0.31,0.785 8.06,38.296 18.58,83.25 10.52,44.957 19.15,82.496 19.15,83.312 0,0.832 -0.39,1.434 -0.89,1.367 -0.5,-0.066 -18.62,-8.445 -40.38,-18.672"
         style="fill-opacity:1;fill-rule:nonzero;stroke:none;fill:#000000"
         id="path84" /><path
         d="m 3351.62,609.16 c -3.53,-6.66 -18.12,-38.59 -17.77,-38.914 0.26,-0.25 9.57,-4.746 20.63,-9.969 l 20.16,-9.511 6.36,13.32 c 3.52,7.371 7.9,16.664 9.81,20.812 l 3.45,7.493 -9.81,4.578 c -5.43,2.535 -14.51,6.754 -20.34,9.457 -5.82,2.699 -10.71,4.875 -10.94,4.875 -0.23,0 -0.92,-0.953 -1.55,-2.141"
         style="fill-opacity:1;fill-rule:nonzero;stroke:none;fill:#000000"
         id="path86" /><path
         d="m 1147.85,586.324 c -11.3,-4.492 -20.85,-8.422 -21.11,-8.679 -0.42,-0.426 15.58,-42.223 16.53,-43.172 0.43,-0.426 42.34,15.699 43.3,16.648 0.19,0.195 -1.85,5.945 -4.52,12.727 -2.68,6.777 -6.47,16.535 -8.39,21.586 -1.95,5.113 -3.88,9.191 -4.34,9.156 -0.46,-0.031 -10.17,-3.774 -21.47,-8.266"
         style="fill-opacity:1;fill-rule:nonzero;stroke:none;fill:#000000"
         id="path88" /><path
         d="m 1464.77,573.242 c 3.69,-9.156 4.65,-17.433 2.84,-24.617 -2.18,-8.684 -110.2,-217.215 -115.88,-223.707 -6.4,-7.316 -13.53,-11.356 -28.52,-16.164 -1.18,-0.383 -1.97,-1.008 -1.66,-1.32 0.51,-0.508 82.66,-29.137 83.61,-29.137 0.2,0 -1.12,2.734 -2.99,6.183 -4.71,8.684 -6.15,15.895 -4.77,23.668 1.53,8.563 91.78,190.098 92.95,186.957 0.44,-1.179 3.54,-45.191 6.91,-97.878 6.7,-104.778 7.72,-117.813 10.26,-130.231 2.36,-11.535 9.57,-26.012 17.07,-34.25 l 6.28,-6.898 2.49,3.332 c 5.89,7.847 165.37,195.402 165.79,194.976 0.67,-0.664 -43.29,-187.961 -46.15,-196.644 -3.1,-9.395 -9.39,-16.567 -19.02,-21.696 l -7.49,-3.992 18.37,-6.242 c 10.08,-3.426 32.47,-11.105 49.6,-17.008 l 31.22,-10.765 -5.88,8.328 c -7.21,10.226 -10.07,18.281 -10.08,28.422 -0.01,9.003 47.59,231.675 51.82,242.379 2.58,6.566 9.09,14.011 16.82,19.257 2.38,1.614 4.4,3.313 4.4,3.696 0,0.394 -17.78,6.804 -39.42,14.214 -34.02,11.645 -39.61,13.254 -40.74,11.715 -0.72,-0.98 -33.43,-39.961 -72.66,-86.582 -67.16,-79.8 -71.41,-84.597 -72.19,-81.406 -0.46,1.863 -3.54,53.16 -6.84,113.934 -3.3,60.773 -6.12,110.621 -6.25,110.714 -0.75,0.543 -80.99,27.899 -81.82,27.899 -0.52,0 0.34,-3.211 1.93,-7.137"
         style="fill-opacity:1;fill-rule:nonzero;stroke:none;fill:#000000"
         id="path90" /><path
         d="m 2778.38,492.488 -44.42,-12.843 7.5,-4.239 c 8.8,-4.976 14.01,-10.113 17.66,-17.406 1.4,-2.812 17.26,-56.254 35.25,-118.812 34.61,-120.356 35.05,-122.184 31.6,-134.036 -0.77,-2.644 -3.2,-7.789 -5.49,-11.593 -2.28,-3.805 -3.62,-6.84 -3.03,-6.84 1.02,0 90.39,25.469 93.84,26.742 0.96,0.351 -1.31,2.09 -5.35,4.101 -9.04,4.497 -16.39,10.758 -20.05,17.086 -2.96,5.11 -66.35,224.422 -68.65,237.504 -1.55,8.801 0.05,17.086 5,25.809 3.98,7.016 4.12,7.488 2.11,7.422 -0.85,-0.028 -21.58,-5.844 -45.97,-12.895"
         style="fill-opacity:1;fill-rule:nonzero;stroke:none;fill:#000000"
         id="path92" /><path
         d="m 2668.07,465.078 c -22.35,-4.426 -41.19,-8.242 -41.98,-8.504 -0.78,-0.262 1.43,-2.363 4.88,-4.64 3.45,-2.278 7.56,-6.047 9.08,-8.325 5.31,-7.968 3.89,-12.488 -17.31,-55.066 -10.3,-20.691 -19.2,-37.566 -19.72,-37.402 -0.52,0.164 -20.16,19.183 -43.71,42.339 l -42.75,42.043 -40.74,-7.91 c -22.36,-4.34 -41.27,-8.07 -41.92,-8.265 -0.66,-0.2 5.71,-3.86 14.28,-8.207 8.8,-4.469 19.09,-10.825 23.9,-14.758 8.09,-6.617 102.76,-97.551 102.76,-98.699 0,-0.329 -20.59,-40.024 -45.73,-88.188 -25.15,-48.168 -46.06,-88.422 -46.45,-89.437 -0.57,-1.497 8.03,-0.153 45.73,7.136 25.57,4.946 46.45,9.379 46.45,9.871 0,0.489 -0.6,0.891 -1.31,0.891 -3.57,0 -14.59,6.625 -16.62,9.992 -2.59,4.285 -2.98,12.606 -0.87,18.672 1.33,3.805 49.25,97.109 50.77,98.832 0.4,0.457 24.52,-22.445 53.53,-50.844 42.58,-41.668 53.29,-51.558 55.31,-51.074 4.64,1.113 82.11,16.051 83.25,16.051 2.55,0 -1.43,2.18 -7.61,4.172 -11.54,3.711 -22.99,9.535 -31.64,16.094 -4.71,3.57 -34.85,31.812 -66.95,62.746 l -58.4,56.254 5.53,10.941 c 3.05,6.027 20.68,40.437 39.25,76.59 18.56,36.156 33.71,65.972 33.71,66.363 0,1.102 -3.33,0.531 -44.72,-7.668"
         style="fill-opacity:1;fill-rule:nonzero;stroke:none;fill:#000000"
         id="path94" /><path
         d="m 1919.17,442.309 c -58.99,-5.239 -109.15,-39.028 -135.08,-90.989 -11.84,-23.73 -16.18,-44.363 -15.22,-72.429 1.13,-33.539 11.1,-60.536 32.11,-86.938 35.67,-44.816 99.76,-69.555 186.58,-72.015 l 10.35,-0.293 23.6,29.671 c 12.97,16.293 24.01,30.317 24.49,31.102 1.02,1.664 1.02,1.664 -13.48,-4.383 -23.23,-9.683 -62.45,-15.539 -87.78,-13.109 -25.45,2.441 -44.73,9.238 -65.65,23.14 -20.45,13.598 -34.62,29.489 -43.53,48.821 -14.78,32.074 -13.64,72.902 3,107.035 16.09,33 42.56,53.43 78.71,60.766 14.73,2.988 41.51,1.871 57.44,-2.395 22.6,-6.051 40.89,-15.637 55.67,-29.176 7.25,-6.644 7.89,-6.988 8.5,-4.515 0.36,1.48 2.57,12.785 4.93,25.273 2.37,12.488 4.52,23.422 4.82,24.441 0.41,1.403 -3.51,3.446 -16.47,8.582 -25.4,10.067 -46.5,14.93 -75.76,17.461 -15.24,1.321 -21.88,1.313 -37.23,-0.05"
         style="fill-opacity:1;fill-rule:nonzero;stroke:none;fill:#000000"
         id="path96" /><path
         d="m 2370.27,420.359 c -20.57,-0.816 -38.85,-1.543 -40.55,-1.605 -3.01,-0.117 -4.02,-2.797 -39.72,-106.266 -20.16,-58.394 -36.98,-106.547 -37.41,-107.035 -0.42,-0.492 -21.74,45.785 -47.39,102.871 l -46.62,103.77 -13.38,-0.063 c -7.35,-0.031 -27.24,-0.488 -44.12,-1.008 l -30.75,-0.953 4.17,-4.34 c 2.32,-2.421 5.76,-6.601 7.78,-9.457 7.35,-10.371 7.62,-5.113 -6.96,-137.125 -7.25,-65.648 -13.52,-120.746 -13.91,-122.378 -2.2,-9.04 -6.71,-16.223 -15.57,-24.801 l -9.16,-8.856 11.3,0.774 c 6.23,0.425 22.47,1.039 36.27,1.367 13.79,0.328 28.81,0.914 33.54,1.308 l 8.56,0.711 -4.4,3.782 c -10.13,8.695 -13.52,15.011 -14.16,26.308 -0.29,5.199 3.12,44.719 9.1,105.254 5.27,53.281 9.71,97.68 9.88,98.594 0.16,0.914 20.57,-42.281 45.31,-95.918 24.74,-53.637 47.77,-102.242 51.14,-107.93 4.01,-6.777 8.99,-13.074 14.45,-18.258 8.44,-8.023 22.63,-16.75 24.26,-14.921 0.52,0.586 20.14,56.074 43.59,123.269 23.44,67.195 42.77,122.039 42.93,121.844 0.16,-0.195 6.5,-45.254 14.09,-100.199 10.34,-74.805 13.63,-101.481 13.12,-106.383 -0.85,-8.086 -4,-14.785 -10.29,-21.883 l -4.85,-5.469 6.3,-0.023 c 11.54,-0.043 84.78,2.508 91.23,3.176 l 6.3,0.652 -7.26,4.66 c -10.94,7.031 -18.86,16.742 -21.41,26.262 -0.65,2.422 -9.23,55.898 -19.08,118.93 -14.85,95.023 -17.83,116.171 -17.5,124.164 0.42,9.804 0.79,10.82 9.18,24.617 1.87,3.094 2.19,4.347 1.06,4.222 -0.88,-0.097 -18.49,-0.847 -39.07,-1.664"
         style="fill-opacity:1;fill-rule:nonzero;stroke:none;fill:#000000"
         id="path98" /><path
         d="m 2659.85,3413.65 c -24.52,-27.35 -43.35,-61.13 -54.9,-98.47 -4.89,-15.82 -8.72,-37.19 -8.57,-47.93 l 0.1,-7.97 3.26,12.49 c 11.1,42.52 30.31,86.46 57.94,132.48 5.42,9.04 9.76,16.7 9.56,16.89 -0.19,0.2 -3.55,-3.21 -7.39,-7.49"
         style="fill-opacity:1;fill-rule:nonzero;stroke:none;fill:#000000"
         id="path100" /><path
         d="m 2520.12,3200.82 c -2.28,-0.23 -12.72,-1.24 -23.18,-2.25 -72.19,-6.96 -151.54,-28.26 -208.13,-55.87 -26.52,-12.95 -36.96,-20.4 -59.94,-42.81 l -19.86,-19.37 -9.35,-20.09 c -32.18,-69.22 -38.13,-86.8 -39.59,-116.91 -0.59,-12.37 -0.48,-13.53 1.25,-12.13 1.03,0.84 2.73,4.04 3.72,7.01 2.1,6.31 4.88,9.87 7.69,9.87 1.75,0 2.21,-3.03 3.39,-22.29 0.76,-12.25 2.21,-25.52 3.23,-29.44 2.07,-7.97 9.92,-24.51 13.83,-29.14 l 2.51,-2.97 -0.66,2.97 c -0.36,1.63 -1.86,11.3 -3.33,21.41 -2.19,15.12 -2.68,23.67 -2.74,47.57 -0.03,19.86 0.45,31.41 1.52,36.28 4.48,20.33 11.92,38.85 20.71,51.49 l 3.88,5.59 0.79,-23.19 c 1.41,-41.27 7.68,-74.2 19.71,-103.47 7.48,-18.19 20.85,-39.24 24.93,-39.24 3.89,0 12.73,-5.48 19.03,-11.78 3.58,-3.57 10.75,-12.96 15.82,-20.69 l 9.27,-14.16 0.84,9.04 c 0.46,5 0.54,9.84 0.18,10.82 -0.59,1.6 -0.18,1.58 3.74,-0.12 10.45,-4.55 29.26,-10.35 43.06,-13.28 20.21,-4.29 47.64,-4.43 66.6,-0.35 6.89,1.49 12.91,3.09 13.44,3.59 0.52,0.49 -2.38,0.11 -6.55,-0.85 -10.82,-2.52 -42.45,-2.41 -56.25,0.19 -60.06,11.32 -110.22,46.36 -123.79,86.46 -5.68,16.77 -4.69,34.24 2.83,50.31 5.57,11.89 20.3,32.87 29.03,41.34 11.95,11.59 27.95,22.56 46.62,31.96 26.06,13.13 50.66,20.1 79.68,22.57 14.99,1.27 37.58,0.56 37.58,-1.2 0,-1.77 5.95,-4.81 12.73,-6.49 3.79,-0.95 17.6,-3.1 30.68,-4.79 35.68,-4.62 48.92,-8.24 58.87,-16.07 5.39,-4.25 9.52,-12.13 9.52,-18.2 l 0,-4.4 -8.09,3.1 c -45.31,17.35 -91.25,25.45 -135.22,23.84 -31.16,-1.14 -57.73,-6.82 -78.5,-16.79 -9.75,-4.68 -25.81,-15.15 -20.21,-13.18 55.54,19.52 84.29,25.26 120.71,24.1 23.9,-0.77 36.04,-2.86 57.32,-9.9 17.13,-5.67 22.58,-8.58 36.87,-19.67 15.46,-12.01 28.89,-19.76 35.8,-20.69 11.18,-1.5 11.7,-2.21 3.8,-5.19 -12.97,-4.9 -30.32,-3.33 -47.45,4.28 -4.01,1.78 -13.32,6.67 -20.81,10.93 -15.44,8.79 -25.69,11.78 -51.61,15.09 -18.2,2.32 -44.77,1.77 -61.61,-1.27 -36.39,-6.58 -71.57,-22.45 -102.88,-46.43 l -12.37,-9.47 0,-7.73 c 0,-6.3 0.5,-8.35 2.66,-11.06 3.87,-4.85 9.36,-5.15 27.43,-1.51 18.68,3.76 26.92,3.9 34.14,0.59 24.93,-11.45 54.82,-17.75 84.2,-17.75 31.51,0 65.44,8.92 83.61,21.97 3.21,2.31 6.09,4.19 6.42,4.19 1.7,0 -5.83,-10.11 -12.49,-16.77 -14.82,-14.82 -33.06,-22 -66.24,-26.08 -11.48,-1.41 -50.31,-1.04 -64.58,0.61 -8.54,0.99 -1.79,-1.01 21.4,-6.34 26.65,-6.12 38.65,-7.71 50.43,-6.7 22.7,1.95 38.18,8.73 73.26,32.11 24.5,16.32 38.22,23.84 49.48,27.12 l 6.06,1.76 -2.75,-6.66 c -3.54,-8.56 -3.68,-15.45 -0.41,-19.62 3.43,-4.36 4.41,-4.05 5.91,1.9 1.9,7.56 5.08,13.68 11.79,22.71 6.97,9.4 7.82,11.76 6.91,19.27 l -0.63,5.23 4.04,0 c 2.24,0 9.87,-1.87 17.13,-4.2 16.65,-5.35 21.55,-5.64 25.68,-1.5 l 3.1,3.09 -5.83,1.93 c -9.18,3.04 -20.81,12.82 -38.17,32.08 -28.72,31.88 -42.09,44.18 -55.55,51.12 -6.65,3.42 -19.5,5.91 -40.43,7.82 -30.93,2.82 -42.22,5.2 -42.22,8.85 0,0.91 1.6,3.03 3.51,4.64 1.9,1.62 3.17,3.3 2.79,3.69 -1.4,1.4 -34.49,0.7 -47.45,-1.02 -65.53,-8.65 -130.81,-37.1 -169.24,-73.75 l -9.4,-8.96 -0.52,3.57 c -2.07,14.12 6.02,35.2 19.62,51.14 41.84,49.02 149.9,88.11 235.77,85.28 25.45,-0.84 37.67,-3.04 55.07,-9.9 31.99,-12.63 52.29,-24.39 66.6,-38.56 14.97,-14.84 21.96,-26 35.27,-56.32 4.28,-9.76 9.75,-21.25 12.16,-25.57 4.06,-7.26 16.21,-21.53 18.33,-21.53 1.78,0 -16.88,53.04 -23.31,66.24 -3.53,7.26 -9.71,17.57 -13.73,22.9 -4.04,5.35 -7.05,9.96 -6.72,10.28 0.33,0.33 4.99,-0.53 10.34,-1.91 15.34,-3.94 15.69,-2.03 0.96,5.29 -12.71,6.32 -18.68,10.05 -48.05,30.09 -17.13,11.68 -32.8,19.76 -47.46,24.48 -8.34,2.69 -12.96,3.23 -37.58,4.43 -31.39,1.53 -69.42,0.14 -88.48,-3.24 -25.78,-4.57 -56.37,-14.66 -115.36,-38.08 -39.01,-15.49 -70.55,-27.72 -71.48,-27.72 -0.26,0 -0.47,1.79 -0.47,3.93 0,10.77 13.91,27.68 33.18,40.3 26.01,17.06 69.45,33.17 113.69,42.18 l 16.65,3.39 -18.43,0.59 c -16.77,0.54 -18.11,0.74 -14.87,2.22 19.92,9.04 63.99,19.07 144.5,32.89 21.29,3.65 39.19,6.84 39.85,7.1 1.42,0.56 -23.32,0.42 -29.15,-0.17 z m -117.07,-226.26 c 0.1,-10.59 5.43,-22.27 12.54,-27.43 3.57,-2.59 4.2,-3.54 2.73,-4.11 -9.05,-3.47 -29.37,5.97 -33.33,15.48 -0.88,2.13 -1.63,7.14 -1.63,10.95 l 0,7.01 5.65,3.15 c 3.09,1.73 7.53,3.16 9.81,3.16 l 4.16,0 0.07,-8.21 z m 87.34,2.05 c 11.54,-4.42 18.33,-9.08 18.77,-12.88 1.93,-16.64 -41.72,-43.22 -79.18,-48.21 -17.25,-2.29 -25.76,-2.16 -39.37,0.6 -20.69,4.2 -34.77,11.26 -41.61,20.86 -2.12,2.97 -5.51,6.24 -7.62,7.36 -4.75,2.5 -14.51,2.48 -19.99,-0.02 -4.62,-2.12 -16.05,-4.37 -22.23,-4.37 -3.93,0 -4,0.07 -2.38,2.56 0.92,1.41 8.02,6.26 15.87,10.82 7.85,4.56 16.51,10.38 19.33,12.99 5.29,4.89 17.01,11.09 23.43,12.39 3.57,0.72 3.57,0.72 4.97,-6.65 5.33,-27.95 30.94,-46.71 61.03,-44.7 30.33,2.02 50.66,19.5 52.15,44.82 l 0.54,9.28 3.69,-0.72 c 2.01,-0.39 7.73,-2.26 12.6,-4.13"
         style="fill-opacity:1;fill-rule:nonzero;stroke:none;fill:#000000"
         id="path102" /><path
         d="m 2702.09,3139.28 c 0,-0.4 2.03,-4.05 4.58,-8.21 16.48,-26.94 23.63,-63.39 22.63,-115.48 -0.52,-27.83 -0.01,-28.59 6.21,-9.16 14.09,44.01 5.89,94.52 -19.68,121.31 -6.81,7.14 -13.74,12.95 -13.74,11.54"
         style="fill-opacity:1;fill-rule:nonzero;stroke:none;fill:#000000"
         id="path104" /><path
         d="m 2662.85,2909.74 c -18.33,-19.32 -40.44,-34.58 -74.58,-51.45 -12.6,-6.23 -22.95,-11.61 -22.95,-11.94 0,-1.28 22.72,1.02 31.99,3.23 30.4,7.24 55.87,28.65 71.19,59.81 2.16,4.4 3.81,8.46 3.62,8.91 -0.19,0.46 -4.42,-3.44 -9.27,-8.56"
         style="fill-opacity:1;fill-rule:nonzero;stroke:none;fill:#000000"
         id="path106" /><path
         d="m 2142.69,2905.22 c 0.24,-1.5 1.24,-15.34 2.24,-30.68 3.12,-48.29 7.96,-65.97 19.71,-72.07 3.22,-1.67 3.45,-1.63 3.45,0.47 0,1.25 -2.63,11.06 -5.86,21.88 -7.21,24.15 -8.34,29.77 -9.57,47.93 -0.82,12.02 -1.59,15.78 -4.84,23.79 -4.15,10.23 -5.8,13.03 -5.13,8.68"
         style="fill-opacity:1;fill-rule:nonzero;stroke:none;fill:#000000"
         id="path108" /><path
         d="m 2789.86,2760.07 c -3.54,-4.1 -13.15,-16.23 -21.42,-27.06 -25.37,-33.18 -36.72,-44.56 -51.96,-52.09 -8.24,-4.06 -9.69,-4.4 -19.09,-4.4 -9.04,0 -10.97,0.42 -17.42,3.8 -4.04,2.13 -10.31,6.6 -14.15,10.11 l -6.9,6.31 0.65,-8.15 c 0.59,-7.34 1.23,-8.98 6.5,-16.59 9.15,-13.2 10.65,-19.61 6.13,-26.16 -13.53,-19.61 -33.38,-33.25 -55.74,-38.3 -15.46,-3.5 -15.81,-3.74 -6.9,-4.74 14.2,-1.6 35.09,4.45 57.21,16.57 5.54,3.04 24.8,15.17 42.63,26.88 26.05,17.1 32.87,22.11 34.24,25.16 6.27,13.94 15.61,30.56 27.65,49.23 14.88,23.07 27.81,46.86 25.47,46.86 -0.26,0 -3.4,-3.39 -6.9,-7.43"
         style="fill-opacity:1;fill-rule:nonzero;stroke:none;fill:#000000"
         id="path110" /><path
         d="m 2248.37,2542.94 c 0.65,-0.58 7.38,-5.24 14.87,-10.32 53.76,-36.43 84.19,-64.8 104.01,-96.93 9.87,-16.02 13.48,-24.39 24.41,-56.62 9.43,-27.82 15.57,-41.07 21.43,-46.23 2.73,-2.41 2.73,-2.41 2.08,-0.03 -0.36,1.33 -1.01,6.07 -1.45,10.71 -1.31,13.64 -6.35,37.1 -11.01,51.14 -5.67,17.12 -19.6,44.66 -29.71,58.75 -21.21,29.52 -51.96,55.33 -88.71,74.43 -18.32,9.52 -39.87,18.58 -35.92,15.1"
         style="fill-opacity:1;fill-rule:nonzero;stroke:none;fill:#000000"
         id="path112" /><path
         d="m 2198.28,2311.05 c -0.17,-27.35 -4.14,-39.02 -21.49,-63.27 -9.88,-13.8 -13.19,-20.36 -14.28,-28.31 l -0.72,-5.23 12.73,12.26 c 29.61,28.54 38.97,46.77 37.12,72.3 -0.61,8.32 -1.44,11.34 -5,18.08 -7.72,14.62 -8.23,14.27 -8.36,-5.83"
         style="fill-opacity:1;fill-rule:nonzero;stroke:none;fill:#000000"
         id="path114" /><path
         d="m 2216.86,2324.49 c 0,-0.33 2.69,-3.93 6.06,-8.09 12,-14.83 19.24,-34.01 19.38,-51.38 0.11,-12.31 -2.14,-17.13 -18.34,-39.25 -15.5,-21.16 -18.29,-26.97 -18.34,-38.05 -0.04,-9.76 3.52,-18.08 11.46,-26.76 l 4.89,-5.35 -1.07,4.75 c -0.59,2.63 -1.04,9.28 -1.01,14.87 0.04,7.97 0.71,11.7 3.15,17.6 4.12,9.99 10.66,19.17 19.62,27.54 18.32,17.1 22.86,47.86 10.86,73.43 -4.02,8.57 -14.47,20.48 -21.68,24.72 -5,2.94 -14.98,6.92 -14.98,5.97"
         style="fill-opacity:1;fill-rule:nonzero;stroke:none;fill:#000000"
         id="path116" /><path
         d="m 1711.98,1886.82 c -1.91,-20.26 1.72,-40.31 13.65,-75.52 3.87,-11.41 8.16,-25.1 9.48,-30.32 2.88,-11.3 4.88,-31.03 3.98,-39.25 -0.79,-7.21 0.93,-6.07 3.57,2.38 3.27,10.46 4.42,18.31 4.42,30.09 0,15.05 -2.97,29.01 -10.42,49 -3.29,8.81 -8.75,23.49 -12.12,32.52 -3.36,9.04 -7.19,21.66 -8.5,27.95 -1.31,6.31 -2.56,11.64 -2.79,11.84 -0.23,0.19 -0.8,-3.69 -1.27,-8.69"
         style="fill-opacity:1;fill-rule:nonzero;stroke:none;fill:#000000"
         id="path118" /><path
         d="m 1688.26,2872.99 c -8.13,-17.87 -22.47,-41.15 -48.12,-78.13 -50.07,-72.2 -56.34,-81.7 -63.85,-96.93 -9.2,-18.68 -11.74,-30.14 -8.38,-37.94 1.47,-3.4 1.51,-3.33 2.91,4.16 2.95,15.85 17.47,39.73 49.81,81.94 24.24,31.64 33.72,44.53 43.12,58.64 9.2,13.79 20.3,33.95 20.3,36.86 0,1.11 1.3,6.55 2.88,12.02 3.4,11.77 6.66,27.2 5.92,27.94 -0.26,0.27 -2.31,-3.56 -4.59,-8.56"
         style="fill-opacity:1;fill-rule:nonzero;stroke:none;fill:#000000"
         id="path120" /><path
         d="m 1767.43,2335.43 c -4.3,-11 -4.23,-29.26 0.14,-43.65 5.94,-19.5 20.23,-37.6 35.41,-44.83 7.97,-3.8 18.4,-6.47 13.79,-3.53 -12.84,8.19 -16.15,10.97 -21.15,17.79 -8.99,12.27 -12.97,22.6 -21.17,54.95 -5.15,20.34 -5.85,22.27 -7.02,19.27"
         style="fill-opacity:1;fill-rule:nonzero;stroke:none;fill:#000000"
         id="path122" /><path
         d="m 3105.74,2890.59 c 0.39,-1.96 1.25,-10.46 1.91,-18.91 5.39,-68.98 -8.86,-166.22 -31.91,-217.76 -2.34,-5.23 -20.95,-37.34 -41.36,-71.35 -20.41,-34.02 -42.33,-70.95 -48.72,-82.07 -20.5,-35.68 -35.24,-64.98 -33.56,-66.71 0.25,-0.27 4.69,6.89 9.88,15.93 12.81,22.3 35.95,56.73 57.71,85.87 63.33,84.8 69.77,96.75 84.3,156.39 9.44,38.77 13.01,64.35 13.93,100.02 0.73,27.95 -0.38,47.6 -3.86,68.27 -2.35,14.03 -6.52,31.3 -7.88,32.7 -0.77,0.8 -0.92,0 -0.44,-2.38"
         style="fill-opacity:1;fill-rule:nonzero;stroke:none;fill:#000000"
         id="path124" /><path
         d="m 3055.46,2740.74 c -12.81,-53.96 -39.58,-111.08 -81.65,-174.23 -24.32,-36.51 -71.42,-99.05 -94.03,-124.88 -17.44,-19.92 -39.03,-50.42 -53.45,-75.52 -9.29,-16.17 -21.09,-38.65 -20.29,-38.65 0.32,0 5.5,7.02 11.57,15.7 25.79,36.87 50.08,68.38 83.6,108.46 72.42,86.58 121.56,165.94 144.8,233.82 7.24,21.17 13.66,53.04 12.68,63.03 -0.33,3.37 -0.94,1.91 -3.23,-7.73"
         style="fill-opacity:1;fill-rule:nonzero;stroke:none;fill:#000000"
         id="path126" /><path
         d="m 3268.02,2400.6 c 1.23,-24.5 0.71,-83.1 -0.89,-98.71 -9.22,-90.39 -33.51,-154.77 -73.15,-193.82 -7.37,-7.26 -16.61,-15.12 -20.69,-17.61 -8.36,-5.09 -8.41,-5.02 -5.75,6.51 0.87,3.81 1.27,6.87 0.87,6.84 -0.39,-0.03 -4.89,-6.12 -10.06,-13.61 -11.15,-16.18 -19.07,-24.54 -27.16,-28.66 l -6.07,-3.1 2.85,3.81 c 7.57,10.11 10.59,15.07 10.59,17.36 0,2.16 -0.83,1.75 -6.06,-2.99 -15.58,-14.1 -34.67,-25.87 -46.27,-28.51 -12.13,-2.78 -23.8,-0.71 -32.94,5.82 -5.74,4.11 -6.1,3.68 -4.04,-4.88 0.98,-4.05 0.84,-4.46 -1.79,-5.12 -6.42,-1.61 -25.69,2.1 -37.22,7.17 -8.69,3.81 -22.18,14.15 -29.13,22.33 -9.26,10.89 -16.18,27.47 -16.18,38.77 0,2.73 -1.07,4.01 -5.95,7.15 -8.3,5.33 -11.19,9.26 -14.61,19.85 -3.94,12.22 -4.26,13.79 -5.56,27.59 -1.03,10.98 -0.71,19.38 1.91,50.07 0.52,6.06 0.31,9.89 -0.65,11.65 l -1.43,2.62 -3.33,-2.5 c -3.11,-2.33 -3.57,-2.38 -6.9,-0.64 -7.36,3.83 -14.07,15.15 -20.96,35.37 -9.91,29.03 -8.29,63.86 4.52,97.4 5.41,14.15 13.56,28.85 20.59,37.11 5.29,6.21 5.25,6.18 -2.72,-1.44 -21.36,-20.46 -36.94,-50.06 -41.63,-79.08 -6.24,-38.53 4.93,-74.39 33.21,-106.68 l 7.71,-8.8 -0.72,-18.32 c -2.01,-51.73 13.3,-95.22 43.77,-124.33 16.57,-15.83 35.56,-25.67 55.9,-28.98 11.42,-1.86 29.8,-1.6 36.03,0.51 5,1.68 5.44,1.65 9.64,-0.8 6.58,-3.83 17.12,-3.25 43.64,2.42 29.86,6.37 47.42,13.56 74.1,30.33 24.85,15.63 49.04,37.26 54.82,49.02 1.75,3.57 2.89,6.87 2.5,7.26 -0.4,0.4 -4.4,-2.69 -9.04,-6.96 -4.64,-4.27 -11.43,-9.33 -15.34,-11.42 -6.66,-3.56 -19.5,-7.38 -24.62,-7.33 -2.06,0.02 -1.9,0.37 1.19,2.67 32.18,23.9 56.98,66.68 69.42,119.73 6.96,29.67 9.67,55.89 9.67,93.36 0,37.82 -3.56,70.93 -10.55,98.11 l -2.29,8.92 0.77,-15.46"
         style="fill-opacity:1;fill-rule:nonzero;stroke:none;fill:#000000"
         id="path128" /><path
         d="m 2819.5,2266.21 c -5.32,-15.58 -6.86,-65.17 -2.83,-90.98 9.47,-60.66 34,-99.89 67.98,-108.73 7.37,-1.91 26.31,-2.48 28.9,-0.87 0.93,0.58 -1.31,2.25 -6.43,4.77 -13.55,6.69 -24.57,14.69 -35.63,25.86 -12.72,12.86 -22.17,27.59 -29.13,45.43 -10.85,27.81 -15.57,53.88 -21.16,116.79 -0.54,6.18 -1.21,9.19 -1.7,7.73"
         style="fill-opacity:1;fill-rule:nonzero;stroke:none;fill:#000000"
         id="path130" /><path
         d="m 2880.48,1807.5 c 0,-0.98 1.07,-8.68 2.38,-17.13 1.31,-8.42 4.82,-37.58 7.8,-64.69 7.51,-68.51 10.95,-89.88 19.8,-123.1 2.6,-9.75 5.49,-17.28 9.15,-23.78 24.21,-43.11 41.9,-111.09 49.99,-192.08 7.4,-74.09 6.92,-176.73 -1.17,-249.63 -1.15,-10.35 -1.59,-11.59 -5.8,-16.65 -8.67,-10.42 -15.32,-23.79 -27.91,-56.14 -10.14,-26.04 -19.48,-43.5 -27.12,-50.71 l -2.85,-2.68 1.48,8.56 c 2.48,14.39 6.35,66.64 4.82,65.15 -0.33,-0.31 -4.37,-15.91 -8.97,-34.59 -15.42,-62.675 -37.81,-143.698 -55.42,-200.632 -8.79,-28.425 -10.29,-35.55 -2.93,-13.914 12.31,36.153 31.64,67.371 54.71,88.387 4.89,4.449 6.8,7.828 15.12,26.738 43.76,99.431 67.05,172.331 87.75,274.731 l 5.24,25.92 -2.34,8.56 c -4.17,15.31 -6.06,32.95 -7.76,72.55 -2.27,52.81 -3.74,60.74 -15.62,84.44 -7.48,14.92 -10.06,24.26 -13.5,49 -7.54,54.12 -8.33,57.74 -18.53,85.99 -2.9,8.04 -7.67,24.38 -10.57,36.27 -2.91,11.88 -9.31,34.25 -14.19,49.6 -15.15,47.57 -16.83,54.79 -21.47,92.17 -3.39,27.35 -6.38,39.9 -14.85,62.32 -6.16,16.29 -7.24,18.58 -7.24,15.34"
         style="fill-opacity:1;fill-rule:nonzero;stroke:none;fill:#000000"
         id="path132" /><path
         d="m 2922.59,1522.18 c 0,-31.87 -1.47,-46.35 -7.79,-77.06 -8.46,-41.09 -22.24,-80.76 -53.97,-155.32 -22.57,-53.05 -31.23,-74.56 -29.22,-72.55 0.65,0.65 5.3,8.68 10.34,17.84 5.05,9.18 14.35,25.45 20.73,36.27 30.09,51.02 43.89,77.55 54.06,103.94 13.94,36.16 19.11,62.95 18.94,98.24 -0.1,23.31 -1.64,35.82 -7.04,57.09 -5.99,23.64 -6.05,23.55 -6.05,-8.45"
         style="fill-opacity:1;fill-rule:nonzero;stroke:none;fill:#000000"
         id="path134" /><path
         d="m 2472.44,1427.34 c -3.53,-3.89 -15.21,-16.36 -25.92,-27.65 -51.82,-54.71 -85.5,-98.34 -103.45,-134.04 -2.75,-5.47 -4.78,-10.23 -4.49,-10.52 0.3,-0.3 4.26,4.69 8.83,11.12 11.72,16.48 25.86,33.18 50.13,59.23 37.34,40.07 48.93,53.83 62.28,73.97 8.6,12.96 20.32,33.68 19.51,34.49 -0.26,0.26 -3.33,-2.68 -6.89,-6.6"
         style="fill-opacity:1;fill-rule:nonzero;stroke:none;fill:#000000"
         id="path136" /><path
         d="m 1746.61,1300.62 c -9.05,-21.17 -27.91,-58.87 -47.06,-94.07 -54.14,-99.55 -66.78,-124.82 -82.7,-165.32 -7.15,-18.19 -12.48,-33.84 -12.48,-36.63 0,-1.86 13.15,16.29 21.29,29.38 7.93,12.76 19.93,34.49 28.56,51.73 16.62,33.18 32.2,59.11 55.11,91.7 9.02,12.82 25.39,51.73 34.73,82.54 5.4,17.84 8.01,32.77 7.55,43.28 l -0.36,8.21 -4.64,-10.82"
         style="fill-opacity:1;fill-rule:nonzero;stroke:none;fill:#000000"
         id="path138" /><path
         d="m 2819.83,985.098 c -2.09,-5.098 -12.05,-28.188 -22.12,-51.258 -27.64,-63.391 -38.6,-92.008 -48.63,-127.02 -5.18,-18.078 -10.87,-46.375 -11.96,-59.465 l -0.78,-9.394 7.32,16.055 c 31.59,69.336 56.17,136.496 69.66,190.289 4.62,18.433 11.29,49.093 10.79,49.593 -0.26,0.262 -2.18,-3.687 -4.28,-8.8"
         style="fill-opacity:1;fill-rule:nonzero;stroke:none;fill:#000000"
         id="path140" /></g></g></svg>