<?xml version="1.0" encoding="utf-8" ?>
<!DOCTYPE svg PUBLIC "-//W3C//DTD SVG 1.1//EN" "http://www.w3.org/Graphics/SVG/1.1/DTD/svg11.dtd">
<svg height="380" version="1.1" width="709" xmlns="http://www.w3.org/2000/svg">
<ellipse cx="22" cy="38" fill="#000000" rx="8.0" ry="8.0" stroke="#000000" stroke-width="1"/>
<rect fill="#00ff" height="42" rx="44" ry="44" stroke="#00ff" stroke-width="1" width="194" x="63" y="15"/>
<rect fill="#ffffff" height="44" rx="44" ry="44" stroke="#000000" stroke-width="1" width="196" x="62" y="14"/>
<rect fill="#ffffff" height="42" rx="44" ry="44" stroke="#ffffff" stroke-width="1" width="194" x="63" y="15"/>
<text font-family="Dialog" font-size="12" x="81" y="33">
Získanie obrazu z kamery</text>
<polyline fill="none" points="31,38 62,38" stroke="#000000" stroke-width="1"/>
<line fill="#000000" stroke="#000000" stroke-width="1" x1="50" x2="62" y1="45" y2="38"/>
<line fill="#000000" stroke="#000000" stroke-width="1" x1="50" x2="62" y1="31" y2="38"/>
<rect fill="#00ff" height="42" rx="44" ry="44" stroke="#00ff" stroke-width="1" width="145" x="319" y="15"/>
<rect fill="#ffffff" height="44" rx="44" ry="44" stroke="#000000" stroke-width="1" width="147" x="318" y="14"/>
<rect fill="#ffffff" height="42" rx="44" ry="44" stroke="#ffffff" stroke-width="1" width="145" x="319" y="15"/>
<text font-family="Dialog" font-size="12" x="330" y="33">
Spracovanie obrazu</text>
<polyline fill="none" points="257,38 318,38" stroke="#000000" stroke-width="1"/>
<line fill="#000000" stroke="#000000" stroke-width="1" x1="306" x2="318" y1="45" y2="38"/>
<line fill="#000000" stroke="#000000" stroke-width="1" x1="306" x2="318" y1="31" y2="38"/>
<rect fill="#00ff" height="33" rx="35" ry="35" stroke="#00ff" stroke-width="1" width="150" x="519" y="15"/>
<rect fill="#ffffff" height="35" rx="35" ry="35" stroke="#000000" stroke-width="1" width="152" x="518" y="14"/>
<rect fill="#ffffff" height="33" rx="35" ry="35" stroke="#ffffff" stroke-width="1" width="150" x="519" y="15"/>
<text font-family="Dialog" font-size="12" x="530" y="33">
Segmentácia obrazu</text>
<polyline fill="none" points="464,38 518,38" stroke="#000000" stroke-width="1"/>
<line fill="#000000" stroke="#000000" stroke-width="1" x1="506" x2="518" y1="45" y2="38"/>
<line fill="#000000" stroke="#000000" stroke-width="1" x1="506" x2="518" y1="31" y2="38"/>
<rect fill="#00ff" height="42" rx="44" ry="44" stroke="#00ff" stroke-width="1" width="116" x="511" y="103"/>
<rect fill="#ffffff" height="44" rx="44" ry="44" stroke="#000000" stroke-width="1" width="118" x="510" y="102"/>
<rect fill="#ffffff" height="42" rx="44" ry="44" stroke="#ffffff" stroke-width="1" width="116" x="511" y="103"/>
<text font-family="Dialog" font-size="12" x="526" y="121">
Detekcia ruky</text>
<polyline fill="none" points="574,48 574,102" stroke="#000000" stroke-width="1"/>
<line fill="#000000" stroke="#000000" stroke-width="1" x1="567" x2="574" y1="90" y2="102"/>
<line fill="#000000" stroke="#000000" stroke-width="1" x1="581" x2="574" y1="90" y2="102"/>
<text font-family="Dialog" font-size="12" x="576" y="82">
Pre každý segment</text>
<polygon fill="#ffffff" points="366,102 382,118 366,134 350,118" stroke="#ffffff" stroke-width="1"/>
<polygon fill="none" points="366,102 382,118 366,134 350,118" stroke="#000000" stroke-width="1"/>
<polyline fill="none" points="511,118 382,118" stroke="#000000" stroke-width="1"/>
<line fill="#000000" stroke="#000000" stroke-width="1" x1="394" x2="382" y1="111" y2="118"/>
<line fill="#000000" stroke="#000000" stroke-width="1" x1="394" x2="382" y1="125" y2="118"/>
<rect fill="#00ff" height="33" rx="35" ry="35" stroke="#00ff" stroke-width="1" width="172" x="95" y="103"/>
<rect fill="#ffffff" height="35" rx="35" ry="35" stroke="#000000" stroke-width="1" width="174" x="94" y="102"/>
<rect fill="#ffffff" height="33" rx="35" ry="35" stroke="#ffffff" stroke-width="1" width="172" x="95" y="103"/>
<text font-family="Dialog" font-size="12" x="106" y="121">
Pridanie do postupnosti</text>
<polyline fill="none" points="350,118 267,118" stroke="#000000" stroke-width="1"/>
<line fill="#000000" stroke="#000000" stroke-width="1" x1="279" x2="267" y1="111" y2="118"/>
<line fill="#000000" stroke="#000000" stroke-width="1" x1="279" x2="267" y1="125" y2="118"/>
<text font-family="Dialog" font-size="12" x="299" y="98">
Yes</text>
<rect fill="#00ff" height="33" rx="35" ry="35" stroke="#00ff" stroke-width="1" width="117" x="95" y="255"/>
<rect fill="#ffffff" height="35" rx="35" ry="35" stroke="#000000" stroke-width="1" width="119" x="94" y="254"/>
<rect fill="#ffffff" height="33" rx="35" ry="35" stroke="#ffffff" stroke-width="1" width="117" x="95" y="255"/>
<text font-family="Dialog" font-size="12" x="111" y="273">
Detekcia ruky</text>
<polyline fill="none" points="156,136 156,254" stroke="#000000" stroke-width="1"/>
<line fill="#000000" stroke="#000000" stroke-width="1" x1="149" x2="156" y1="242" y2="254"/>
<line fill="#000000" stroke="#000000" stroke-width="1" x1="163" x2="156" y1="242" y2="254"/>
<polygon fill="#ffffff" points="358,254 374,270 358,286 342,270" stroke="#ffffff" stroke-width="1"/>
<polygon fill="none" points="358,254 374,270 358,286 342,270" stroke="#000000" stroke-width="1"/>
<polyline fill="none" points="211,270 342,270" stroke="#000000" stroke-width="1"/>
<line fill="#000000" stroke="#000000" stroke-width="1" x1="330" x2="342" y1="277" y2="270"/>
<line fill="#000000" stroke="#000000" stroke-width="1" x1="330" x2="342" y1="263" y2="270"/>
<rect fill="#00ff" height="33" rx="35" ry="35" stroke="#00ff" stroke-width="1" width="123" x="511" y="255"/>
<rect fill="#ffffff" height="35" rx="35" ry="35" stroke="#000000" stroke-width="1" width="125" x="510" y="254"/>
<rect fill="#ffffff" height="33" rx="35" ry="35" stroke="#ffffff" stroke-width="1" width="123" x="511" y="255"/>
<text font-family="Dialog" font-size="12" x="522" y="273">
Vykonanie akcie</text>
<polyline fill="none" points="374,270 510,270" stroke="#000000" stroke-width="1"/>
<line fill="#000000" stroke="#000000" stroke-width="1" x1="498" x2="510" y1="277" y2="270"/>
<line fill="#000000" stroke="#000000" stroke-width="1" x1="498" x2="510" y1="263" y2="270"/>
<text font-family="Dialog" font-size="12" x="431" y="265">
Yes</text>
<ellipse cx="362" cy="354" fill="#000000" rx="12.0" ry="12.0" stroke="#000000" stroke-width="1"/>
<ellipse cx="362" cy="354" fill="#ffffff" rx="11.0" ry="11.0" stroke="#ffffff" stroke-width="1"/>
<ellipse cx="361" cy="353" fill="#000000" rx="7.5" ry="7.5" stroke="#000000" stroke-width="1"/>
<ellipse cx="362" cy="202" fill="#000000" rx="12.0" ry="12.0" stroke="#000000" stroke-width="1"/>
<ellipse cx="362" cy="202" fill="#ffffff" rx="11.0" ry="11.0" stroke="#ffffff" stroke-width="1"/>
<ellipse cx="361" cy="201" fill="#000000" rx="7.5" ry="7.5" stroke="#000000" stroke-width="1"/>
<polyline fill="none" points="358,286 361,342" stroke="#000000" stroke-width="1"/>
<line fill="#000000" stroke="#000000" stroke-width="1" x1="353" x2="361" y1="330" y2="342"/>
<line fill="#000000" stroke="#000000" stroke-width="1" x1="367" x2="361" y1="329" y2="342"/>
<text font-family="Dialog" font-size="12" x="367" y="319">
No</text>
<polyline fill="none" points="366,134 362,190" stroke="#000000" stroke-width="1"/>
<line fill="#000000" stroke="#000000" stroke-width="1" x1="355" x2="362" y1="177" y2="190"/>
<line fill="#000000" stroke="#000000" stroke-width="1" x1="369" x2="362" y1="178" y2="190"/>
<text font-family="Dialog" font-size="12" x="337" y="165">
No</text>
</svg>
