<?xml version="1.0" encoding="UTF-8" standalone="no"?>
<!-- Created with Inkscape (http://www.inkscape.org/) -->

<svg
   xmlns:dc="http://purl.org/dc/elements/1.1/"
   xmlns:cc="http://creativecommons.org/ns#"
   xmlns:rdf="http://www.w3.org/1999/02/22-rdf-syntax-ns#"
   xmlns:svg="http://www.w3.org/2000/svg"
   xmlns="http://www.w3.org/2000/svg"
   xmlns:sodipodi="http://sodipodi.sourceforge.net/DTD/sodipodi-0.dtd"
   xmlns:inkscape="http://www.inkscape.org/namespaces/inkscape"
   width="408.88303"
   height="523.68469"
   id="svg2"
   version="1.1"
   inkscape:version="0.48.3.1 r9886"
   sodipodi:docname="dffnn.svg">
  <defs
     id="defs4">
    <marker
       inkscape:stockid="Arrow2Lend"
       orient="auto"
       refY="0"
       refX="0"
       id="Arrow2Lend"
       style="overflow:visible">
      <path
         id="path3979"
         style="fill-rule:evenodd;stroke-width:0.625;stroke-linejoin:round"
         d="M 8.7185878,4.0337352 -2.2072895,0.01601326 8.7185884,-4.0017078 c -1.7454984,2.3720609 -1.7354408,5.6174519 -6e-7,8.035443 z"
         transform="matrix(-1.1,0,0,-1.1,-1.1,0)"
         inkscape:connector-curvature="0" />
    </marker>
    <marker
       inkscape:stockid="Arrow2Lstart"
       orient="auto"
       refY="0"
       refX="0"
       id="Arrow2Lstart"
       style="overflow:visible">
      <path
         id="path3976"
         style="fill-rule:evenodd;stroke-width:0.625;stroke-linejoin:round"
         d="M 8.7185878,4.0337352 -2.2072895,0.01601326 8.7185884,-4.0017078 c -1.7454984,2.3720609 -1.7354408,5.6174519 -6e-7,8.035443 z"
         transform="matrix(1.1,0,0,1.1,1.1,0)"
         inkscape:connector-curvature="0" />
    </marker>
    <marker
       inkscape:stockid="Arrow1Lstart"
       orient="auto"
       refY="0"
       refX="0"
       id="Arrow1Lstart"
       style="overflow:visible">
      <path
         id="path3958"
         d="M 0,0 5,-5 -12.5,0 5,5 0,0 z"
         style="fill-rule:evenodd;stroke:#000000;stroke-width:1pt"
         transform="matrix(0.8,0,0,0.8,10,0)"
         inkscape:connector-curvature="0" />
    </marker>
  </defs>
  <sodipodi:namedview
     id="base"
     pagecolor="#ffffff"
     bordercolor="#666666"
     borderopacity="1.0"
     inkscape:pageopacity="0.0"
     inkscape:pageshadow="2"
     inkscape:zoom="0.70000001"
     inkscape:cx="42.279336"
     inkscape:cy="169.98958"
     inkscape:document-units="px"
     inkscape:current-layer="layer1"
     showgrid="false"
     inkscape:window-width="1366"
     inkscape:window-height="744"
     inkscape:window-x="0"
     inkscape:window-y="24"
     inkscape:window-maximized="1"
     fit-margin-top="0"
     fit-margin-left="0"
     fit-margin-right="0"
     fit-margin-bottom="0" />
  <metadata
     id="metadata7">
    <rdf:RDF>
      <cc:Work
         rdf:about="">
        <dc:format>image/svg+xml</dc:format>
        <dc:type
           rdf:resource="http://purl.org/dc/dcmitype/StillImage" />
        <dc:title />
      </cc:Work>
    </rdf:RDF>
  </metadata>
  <g
     inkscape:label="Layer 1"
     inkscape:groupmode="layer"
     id="layer1"
     transform="translate(-167.60573,-76.5903)">
    <path
       sodipodi:type="arc"
       style="fill:none;stroke:#000000;stroke-width:4.38369465;stroke-linecap:round;stroke-linejoin:round;stroke-miterlimit:4;stroke-opacity:1;stroke-dasharray:none;stroke-dashoffset:0"
       id="path2999"
       sodipodi:cx="290.71429"
       sodipodi:cy="283.07648"
       sodipodi:rx="70.714287"
       sodipodi:ry="82.14286"
       d="m 361.42858,283.07648 c 0,45.36625 -31.65986,82.14286 -70.71429,82.14286 -39.05442,0 -70.71428,-36.77661 -70.71428,-82.14286 0,-45.36625 31.65986,-82.14286 70.71428,-82.14286 39.05443,0 70.71429,36.77661 70.71429,82.14286 z"
       transform="matrix(0.49172358,0,0,0.42330985,60.426535,313.49489)" />
    <path
       sodipodi:type="arc"
       style="fill:none;stroke:#000000;stroke-width:4.38369465;stroke-linecap:round;stroke-linejoin:round;stroke-miterlimit:4;stroke-opacity:1;stroke-dasharray:none;stroke-dashoffset:0"
       id="path2999-9"
       sodipodi:cx="290.71429"
       sodipodi:cy="283.07648"
       sodipodi:rx="70.714287"
       sodipodi:ry="82.14286"
       d="m 361.42858,283.07648 c 0,45.36625 -31.65986,82.14286 -70.71429,82.14286 -39.05442,0 -70.71428,-36.77661 -70.71428,-82.14286 0,-45.36625 31.65986,-82.14286 70.71428,-82.14286 39.05443,0 70.71429,36.77661 70.71429,82.14286 z"
       transform="matrix(0.49172358,0,0,0.42330985,172.87297,313.49489)" />
    <path
       sodipodi:type="arc"
       style="fill:none;stroke:#000000;stroke-width:4.38369465;stroke-linecap:round;stroke-linejoin:round;stroke-miterlimit:4;stroke-opacity:1;stroke-dasharray:none;stroke-dashoffset:0"
       id="path2999-6"
       sodipodi:cx="290.71429"
       sodipodi:cy="283.07648"
       sodipodi:rx="70.714287"
       sodipodi:ry="82.14286"
       d="m 361.42858,283.07648 c 0,45.36625 -31.65986,82.14286 -70.71429,82.14286 -39.05442,0 -70.71428,-36.77661 -70.71428,-82.14286 0,-45.36625 31.65986,-82.14286 70.71428,-82.14286 39.05443,0 70.71429,36.77661 70.71429,82.14286 z"
       transform="matrix(0.49172358,0,0,0.42330985,285.31937,313.49489)" />
    <path
       sodipodi:type="arc"
       style="fill:none;stroke:#000000;stroke-width:4.38369465;stroke-linecap:round;stroke-linejoin:round;stroke-miterlimit:4;stroke-opacity:1;stroke-dasharray:none;stroke-dashoffset:0"
       id="path2999-1"
       sodipodi:cx="290.71429"
       sodipodi:cy="283.07648"
       sodipodi:rx="70.714287"
       sodipodi:ry="82.14286"
       d="m 361.42858,283.07648 c 0,45.36625 -31.65986,82.14286 -70.71429,82.14286 -39.05442,0 -70.71428,-36.77661 -70.71428,-82.14286 0,-45.36625 31.65986,-82.14286 70.71428,-82.14286 39.05443,0 70.71429,36.77661 70.71429,82.14286 z"
       transform="matrix(0.49172358,0,0,0.42330985,397.7658,313.49489)" />
    <path
       sodipodi:type="arc"
       style="fill:none;stroke:#000000;stroke-width:4.38369465;stroke-linecap:round;stroke-linejoin:round;stroke-miterlimit:4;stroke-opacity:1;stroke-dasharray:none;stroke-dashoffset:0"
       id="path2999-66"
       sodipodi:cx="290.71429"
       sodipodi:cy="283.07648"
       sodipodi:rx="70.714287"
       sodipodi:ry="82.14286"
       d="m 361.42858,283.07648 c 0,45.36625 -31.65986,82.14286 -70.71429,82.14286 -39.05442,0 -70.71428,-36.77661 -70.71428,-82.14286 0,-45.36625 31.65986,-82.14286 70.71428,-82.14286 39.05443,0 70.71429,36.77661 70.71429,82.14286 z"
       transform="matrix(0.49172358,0,0,0.42330985,117.6676,151.10455)" />
    <path
       sodipodi:type="arc"
       style="fill:none;stroke:#000000;stroke-width:4.38369465;stroke-linecap:round;stroke-linejoin:round;stroke-miterlimit:4;stroke-opacity:1;stroke-dasharray:none;stroke-dashoffset:0"
       id="path2999-3"
       sodipodi:cx="290.71429"
       sodipodi:cy="283.07648"
       sodipodi:rx="70.714287"
       sodipodi:ry="82.14286"
       d="m 361.42858,283.07648 c 0,45.36625 -31.65986,82.14286 -70.71429,82.14286 -39.05442,0 -70.71428,-36.77661 -70.71428,-82.14286 0,-45.36625 31.65986,-82.14286 70.71428,-82.14286 39.05443,0 70.71429,36.77661 70.71429,82.14286 z"
       transform="matrix(0.49172358,0,0,0.42330985,231.95332,151.10455)" />
    <path
       sodipodi:type="arc"
       style="fill:none;stroke:#000000;stroke-width:4.38369465;stroke-linecap:round;stroke-linejoin:round;stroke-miterlimit:4;stroke-opacity:1;stroke-dasharray:none;stroke-dashoffset:0"
       id="path2999-0"
       sodipodi:cx="290.71429"
       sodipodi:cy="283.07648"
       sodipodi:rx="70.714287"
       sodipodi:ry="82.14286"
       d="m 361.42858,283.07648 c 0,45.36625 -31.65986,82.14286 -70.71429,82.14286 -39.05442,0 -70.71428,-36.77661 -70.71428,-82.14286 0,-45.36625 31.65986,-82.14286 70.71428,-82.14286 39.05443,0 70.71429,36.77661 70.71429,82.14286 z"
       transform="matrix(0.49172358,0,0,0.42330985,340.52474,151.10455)" />
    <path
       sodipodi:type="arc"
       style="fill:none;stroke:#000000;stroke-width:4.38369465;stroke-linecap:round;stroke-linejoin:round;stroke-miterlimit:4;stroke-opacity:1;stroke-dasharray:none;stroke-dashoffset:0"
       id="path2999-8"
       sodipodi:cx="290.71429"
       sodipodi:cy="283.07648"
       sodipodi:rx="70.714287"
       sodipodi:ry="82.14286"
       d="m 361.42858,283.07648 c 0,45.36625 -31.65986,82.14286 -70.71429,82.14286 -39.05442,0 -70.71428,-36.77661 -70.71428,-82.14286 0,-45.36625 31.65986,-82.14286 70.71428,-82.14286 39.05443,0 70.71429,36.77661 70.71429,82.14286 z"
       transform="matrix(0.49172358,0,0,0.42330985,229.09617,-7.4668791)" />
    <path
       sodipodi:type="arc"
       style="fill:#000000;fill-opacity:1;stroke:#000000;stroke-width:4.38369465;stroke-linecap:round;stroke-linejoin:round;stroke-miterlimit:4;stroke-opacity:1;stroke-dasharray:none;stroke-dashoffset:0"
       id="path2999-75"
       sodipodi:cx="290.71429"
       sodipodi:cy="283.07648"
       sodipodi:rx="70.714287"
       sodipodi:ry="82.14286"
       d="m 361.42858,283.07648 c 0,45.36625 -31.65986,82.14286 -70.71429,82.14286 -39.05442,0 -70.71428,-36.77661 -70.71428,-82.14286 0,-45.36625 31.65986,-82.14286 70.71428,-82.14286 39.05443,0 70.71429,36.77661 70.71429,82.14286 z"
       transform="matrix(0.20619138,0,0,0.17750388,179.03045,535.02784)" />
    <path
       sodipodi:type="arc"
       style="fill:#000000;fill-opacity:1;stroke:#000000;stroke-width:4.38369465;stroke-linecap:round;stroke-linejoin:round;stroke-miterlimit:4;stroke-opacity:1;stroke-dasharray:none;stroke-dashoffset:0"
       id="path2999-75-4"
       sodipodi:cx="290.71429"
       sodipodi:cy="283.07648"
       sodipodi:rx="70.714287"
       sodipodi:ry="82.14286"
       d="m 361.42858,283.07648 c 0,45.36625 -31.65986,82.14286 -70.71429,82.14286 -39.05442,0 -70.71428,-36.77661 -70.71428,-82.14286 0,-45.36625 31.65986,-82.14286 70.71428,-82.14286 39.05443,0 70.71429,36.77661 70.71429,82.14286 z"
       transform="matrix(0.20619138,0,0,0.17750388,327.73934,535.02784)" />
    <path
       sodipodi:type="arc"
       style="fill:#000000;fill-opacity:1;stroke:#000000;stroke-width:4.38369465;stroke-linecap:round;stroke-linejoin:round;stroke-miterlimit:4;stroke-opacity:1;stroke-dasharray:none;stroke-dashoffset:0"
       id="path2999-75-5"
       sodipodi:cx="290.71429"
       sodipodi:cy="283.07648"
       sodipodi:rx="70.714287"
       sodipodi:ry="82.14286"
       d="m 361.42858,283.07648 c 0,45.36625 -31.65986,82.14286 -70.71429,82.14286 -39.05442,0 -70.71428,-36.77661 -70.71428,-82.14286 0,-45.36625 31.65986,-82.14286 70.71428,-82.14286 39.05443,0 70.71429,36.77661 70.71429,82.14286 z"
       transform="matrix(0.20619138,0,0,0.17750388,228.60008,535.02784)" />
    <path
       sodipodi:type="arc"
       style="fill:#000000;fill-opacity:1;stroke:#000000;stroke-width:4.38369465;stroke-linecap:round;stroke-linejoin:round;stroke-miterlimit:4;stroke-opacity:1;stroke-dasharray:none;stroke-dashoffset:0"
       id="path2999-75-3"
       sodipodi:cx="290.71429"
       sodipodi:cy="283.07648"
       sodipodi:rx="70.714287"
       sodipodi:ry="82.14286"
       d="m 361.42858,283.07648 c 0,45.36625 -31.65986,82.14286 -70.71429,82.14286 -39.05442,0 -70.71428,-36.77661 -70.71428,-82.14286 0,-45.36625 31.65986,-82.14286 70.71428,-82.14286 39.05443,0 70.71429,36.77661 70.71429,82.14286 z"
       transform="matrix(0.20619138,0,0,0.17750388,426.8786,535.02784)" />
    <path
       sodipodi:type="arc"
       style="fill:#000000;fill-opacity:1;stroke:#000000;stroke-width:4.38369465;stroke-linecap:round;stroke-linejoin:round;stroke-miterlimit:4;stroke-opacity:1;stroke-dasharray:none;stroke-dashoffset:0"
       id="path2999-75-1"
       sodipodi:cx="290.71429"
       sodipodi:cy="283.07648"
       sodipodi:rx="70.714287"
       sodipodi:ry="82.14286"
       d="m 361.42858,283.07648 c 0,45.36625 -31.65986,82.14286 -70.71429,82.14286 -39.05442,0 -70.71428,-36.77661 -70.71428,-82.14286 0,-45.36625 31.65986,-82.14286 70.71428,-82.14286 39.05443,0 70.71429,36.77661 70.71429,82.14286 z"
       transform="matrix(0.20619138,0,0,0.17750388,377.30897,535.02784)" />
    <path
       sodipodi:type="arc"
       style="fill:#000000;fill-opacity:1;stroke:#000000;stroke-width:4.38369465;stroke-linecap:round;stroke-linejoin:round;stroke-miterlimit:4;stroke-opacity:1;stroke-dasharray:none;stroke-dashoffset:0"
       id="path2999-75-82"
       sodipodi:cx="290.71429"
       sodipodi:cy="283.07648"
       sodipodi:rx="70.714287"
       sodipodi:ry="82.14286"
       d="m 361.42858,283.07648 c 0,45.36625 -31.65986,82.14286 -70.71429,82.14286 -39.05442,0 -70.71428,-36.77661 -70.71428,-82.14286 0,-45.36625 31.65986,-82.14286 70.71428,-82.14286 39.05443,0 70.71429,36.77661 70.71429,82.14286 z"
       transform="matrix(0.20619138,0,0,0.17750388,278.1697,535.02784)" />
    <path
       style="fill:none;stroke:#000000;stroke-width:1px;stroke-linecap:butt;stroke-linejoin:miter;stroke-opacity:1;marker-start:url(#Arrow2Lstart)"
       d="m 211.31025,467.1869 24.33664,103.88858"
       id="path5154"
       inkscape:connector-type="polyline"
       inkscape:connector-curvature="0"
       inkscape:connection-start="#path2999"
       inkscape:connection-start-point="d4"
       inkscape:connection-end="#path2999-75"
       inkscape:connection-end-point="d4" />
    <path
       style="fill:none;stroke:#000000;stroke-width:1px;stroke-linecap:butt;stroke-linejoin:miter;stroke-opacity:1;marker-start:url(#Arrow2Lstart)"
       d="M 529.08998,466.10441 491.69681,571.52939"
       id="path5158"
       inkscape:connector-type="polyline"
       inkscape:connector-curvature="0"
       inkscape:connection-start="#path2999-1"
       inkscape:connection-start-point="d4"
       inkscape:connection-end="#path2999-75-3"
       inkscape:connection-end-point="d4" />
    <path
       style="fill:none;stroke:#000000;stroke-width:1px;stroke-linecap:butt;stroke-linejoin:miter;stroke-opacity:1;marker-start:url(#Arrow2Lstart)"
       d="M 309.67833,467.55443 291.11991,570.92136"
       id="path5166"
       inkscape:connector-type="polyline"
       inkscape:connector-curvature="0"
       inkscape:connection-start="#path2999-9"
       inkscape:connection-start-point="d4"
       inkscape:connection-end="#path2999-75-5"
       inkscape:connection-end-point="d4" />
    <path
       style="fill:none;stroke:#000000;stroke-width:1px;stroke-linecap:butt;stroke-linejoin:miter;stroke-opacity:1;marker-start:url(#Arrow2Lstart)"
       d="m 320.87111,467.73221 15.12502,103.1146"
       id="path5168"
       inkscape:connector-type="polyline"
       inkscape:connector-curvature="0"
       inkscape:connection-start="#path2999-9"
       inkscape:connection-start-point="d4"
       inkscape:connection-end="#path2999-75-82"
       inkscape:connection-end-point="d4" />
    <path
       style="fill:none;stroke:#000000;stroke-width:1px;stroke-linecap:butt;stroke-linejoin:miter;stroke-opacity:1;marker-start:url(#Arrow2Lstart)"
       d="M 419.29476,466.92632 391.44584,571.18474"
       id="path5176"
       inkscape:connector-type="polyline"
       inkscape:connector-curvature="0"
       inkscape:connection-start="#path2999-6"
       inkscape:connection-start-point="d4"
       inkscape:connection-end="#path2999-75-4"
       inkscape:connection-end-point="d4" />
    <path
       sodipodi:type="arc"
       style="fill:#000000;fill-opacity:1;stroke:#000000;stroke-width:4.38369465;stroke-linecap:round;stroke-linejoin:round;stroke-miterlimit:4;stroke-opacity:1;stroke-dasharray:none;stroke-dashoffset:0"
       id="path2999-75-47"
       sodipodi:cx="290.71429"
       sodipodi:cy="283.07648"
       sodipodi:rx="70.714287"
       sodipodi:ry="82.14286"
       d="m 361.42858,283.07648 c 0,45.36625 -31.65986,82.14286 -70.71429,82.14286 -39.05442,0 -70.71428,-36.77661 -70.71428,-82.14286 0,-45.36625 31.65986,-82.14286 70.71428,-82.14286 39.05443,0 70.71429,36.77661 70.71429,82.14286 z"
       transform="matrix(0.20619138,0,0,0.17750388,129.46082,535.02784)" />
    <path
       sodipodi:type="arc"
       style="fill:#000000;fill-opacity:1;stroke:#000000;stroke-width:4.38369465;stroke-linecap:round;stroke-linejoin:round;stroke-miterlimit:4;stroke-opacity:1;stroke-dasharray:none;stroke-dashoffset:0"
       id="path2999-75-3-0"
       sodipodi:cx="290.71429"
       sodipodi:cy="283.07648"
       sodipodi:rx="70.714287"
       sodipodi:ry="82.14286"
       d="m 361.42858,283.07648 c 0,45.36625 -31.65986,82.14286 -70.71429,82.14286 -39.05442,0 -70.71428,-36.77661 -70.71428,-82.14286 0,-45.36625 31.65986,-82.14286 70.71428,-82.14286 39.05443,0 70.71429,36.77661 70.71429,82.14286 z"
       transform="matrix(0.20619138,0,0,0.17750388,476.44823,535.02784)" />
    <path
       style="fill:none;stroke:#000000;stroke-width:1px;stroke-linecap:butt;stroke-linejoin:miter;stroke-opacity:1;marker-start:url(#Arrow2Lstart)"
       d="m 200.19308,467.95196 -9.45413,102.80271"
       id="path5218"
       inkscape:connector-type="polyline"
       inkscape:connector-curvature="0"
       inkscape:connection-start="#path2999"
       inkscape:connection-start-point="d4"
       inkscape:connection-end="#path2999-75-47"
       inkscape:connection-end-point="d4" />
    <path
       style="fill:none;stroke:#000000;stroke-width:1px;stroke-linecap:butt;stroke-linejoin:miter;stroke-opacity:1;marker-start:url(#Arrow2Lstart)"
       d="m 539.72735,468.08202 -2.92141,102.61811"
       id="path5220"
       inkscape:connector-type="polyline"
       inkscape:connector-curvature="0"
       inkscape:connection-start="#path2999-1"
       inkscape:connection-start-point="d4"
       inkscape:connection-end="#path2999-75-3-0"
       inkscape:connection-end-point="d4" />
    <path
       style="fill:none;stroke:#000000;stroke-width:1px;stroke-linecap:butt;stroke-linejoin:miter;stroke-opacity:1;marker-start:url(#Arrow2Lstart)"
       d="m 430.32217,468.03631 6.06924,102.68299"
       id="path5258"
       inkscape:connector-type="polyline"
       inkscape:connector-curvature="0"
       inkscape:connection-start="#path2999-6"
       inkscape:connection-start-point="d4"
       inkscape:connection-end="#path2999-75-1"
       inkscape:connection-end-point="d4" />
    <path
       style="fill:none;stroke:#000000;stroke-width:1px;stroke-linecap:butt;stroke-linejoin:miter;stroke-opacity:1;marker-start:url(#Arrow2Lstart)"
       d="m 271.81355,303.86409 32.81562,96.52938"
       id="path5283"
       inkscape:connector-type="polyline"
       inkscape:connector-curvature="0"
       inkscape:connection-start="#path2999-66"
       inkscape:connection-start-point="d4"
       inkscape:connection-end="#path2999-9"
       inkscape:connection-end-point="d4" />
    <path
       style="fill:none;stroke:#000000;stroke-width:1px;stroke-linecap:butt;stroke-linejoin:miter;stroke-opacity:1;marker-start:url(#Arrow2Lstart)"
       d="m 385.76318,303.97639 31.64848,96.30479"
       id="path5285"
       inkscape:connector-type="polyline"
       inkscape:connector-curvature="0"
       inkscape:connection-start="#path2999-3"
       inkscape:connection-start-point="d4"
       inkscape:connection-end="#path2999-6"
       inkscape:connection-end-point="d4" />
    <path
       style="fill:none;stroke:#000000;stroke-width:1px;stroke-linecap:butt;stroke-linejoin:miter;stroke-opacity:1;marker-start:url(#Arrow2Lstart)"
       d="m 472.28094,303.86409 -32.81562,96.52938"
       id="path5287"
       inkscape:connector-type="polyline"
       inkscape:connector-curvature="0"
       inkscape:connection-start="#path2999-0"
       inkscape:connection-start-point="d4"
       inkscape:connection-end="#path2999-6"
       inkscape:connection-end-point="d4" />
    <path
       style="fill:none;stroke:#000000;stroke-width:1px;stroke-linecap:butt;stroke-linejoin:miter;stroke-opacity:1;marker-start:url(#Arrow2Lstart)"
       d="M 399.74686,295.26336 515.87441,408.9942"
       id="path5289"
       inkscape:connector-type="polyline"
       inkscape:connector-curvature="0"
       inkscape:connection-start="#path2999-3"
       inkscape:connection-start-point="d4"
       inkscape:connection-end="#path2999-1"
       inkscape:connection-end-point="d4" />
    <path
       style="fill:none;stroke:#000000;stroke-width:1px;stroke-linecap:butt;stroke-linejoin:miter;stroke-opacity:1;marker-start:url(#Arrow2Lstart)"
       d="M 349.6536,294.83941 228.6284,409.41816"
       id="path5291"
       inkscape:connector-type="polyline"
       inkscape:connector-curvature="0"
       inkscape:connection-start="#path2999-3"
       inkscape:connection-start-point="d4"
       inkscape:connection-end="#path2999"
       inkscape:connection-end-point="d4" />
    <path
       style="fill:none;stroke:#000000;stroke-width:1px;stroke-linecap:butt;stroke-linejoin:miter;stroke-opacity:1;marker-start:url(#Arrow2Lstart)"
       d="m 363.0129,303.619 -35.29736,97.01957"
       id="path5295"
       inkscape:connector-type="polyline"
       inkscape:connector-curvature="0"
       inkscape:connection-start="#path2999-3"
       inkscape:connection-start-point="d4"
       inkscape:connection-end="#path2999-9"
       inkscape:connection-end-point="d4" />
    <path
       style="fill:none;stroke:#000000;stroke-width:1px;stroke-linecap:butt;stroke-linejoin:miter;stroke-opacity:1;marker-start:url(#Arrow2Lstart)"
       d="m 249.05588,303.73673 -34.11548,96.7841"
       id="path5297"
       inkscape:connector-type="polyline"
       inkscape:connector-curvature="0"
       inkscape:connection-start="#path2999-66"
       inkscape:connection-start-point="d4"
       inkscape:connection-end="#path2999"
       inkscape:connection-end-point="d4" />
    <path
       style="fill:none;stroke:#000000;stroke-width:1px;stroke-linecap:butt;stroke-linejoin:miter;stroke-opacity:1;marker-start:url(#Arrow2Lstart)"
       d="M 285.59492,295.12602 403.2942,409.13154"
       id="path5299"
       inkscape:connector-type="polyline"
       inkscape:connector-curvature="0"
       inkscape:connection-start="#path2999-66"
       inkscape:connection-start-point="d4"
       inkscape:connection-end="#path2999-6"
       inkscape:connection-end-point="d4" />
    <path
       style="fill:none;stroke:#000000;stroke-width:1px;stroke-linecap:butt;stroke-linejoin:miter;stroke-opacity:1;marker-start:url(#Arrow2Lstart)"
       d="M 290.7055,288.37681 510.63005,415.88075"
       id="path5301"
       inkscape:connector-type="polyline"
       inkscape:connector-curvature="0"
       inkscape:connection-start="#path2999-66"
       inkscape:connection-start-point="d4"
       inkscape:connection-end="#path2999-1"
       inkscape:connection-end-point="d4" />
    <path
       style="fill:none;stroke:#000000;stroke-width:1px;stroke-linecap:butt;stroke-linejoin:miter;stroke-opacity:1;marker-start:url(#Arrow2Lstart)"
       d="M 458.49957,295.12602 340.80029,409.13154"
       id="path5303"
       inkscape:connector-type="polyline"
       inkscape:connector-curvature="0"
       inkscape:connection-start="#path2999-0"
       inkscape:connection-start-point="d4"
       inkscape:connection-end="#path2999-9"
       inkscape:connection-end-point="d4" />
    <path
       style="fill:none;stroke:#000000;stroke-width:1px;stroke-linecap:butt;stroke-linejoin:miter;stroke-opacity:1;marker-start:url(#Arrow2Lstart)"
       d="M 453.38899,288.37681 233.46443,415.88075"
       id="path5305"
       inkscape:connector-type="polyline"
       inkscape:connector-curvature="0"
       inkscape:connection-start="#path2999-0"
       inkscape:connection-start-point="d4"
       inkscape:connection-end="#path2999"
       inkscape:connection-end-point="d4" />
    <path
       style="fill:none;stroke:#000000;stroke-width:1px;stroke-linecap:butt;stroke-linejoin:miter;stroke-opacity:1;marker-start:none;marker-end:url(#Arrow2Lend)"
       d="M 463.4822,242.48116 392.04086,140.81463"
       id="path5307"
       inkscape:connector-type="polyline"
       inkscape:connector-curvature="0"
       inkscape:connection-start="#path2999-0"
       inkscape:connection-start-point="d4"
       inkscape:connection-end="#path2999-8"
       inkscape:connection-end-point="d4" />
    <path
       style="fill:none;stroke:#000000;stroke-width:1px;stroke-linecap:butt;stroke-linejoin:miter;stroke-opacity:1;marker-start:none;marker-end:url(#Arrow2Lend)"
       d="M 529.15408,400.52083 495.0386,303.73673"
       id="path5311"
       inkscape:connector-type="polyline"
       inkscape:connector-curvature="0"
       inkscape:connection-start="#path2999-1"
       inkscape:connection-start-point="d4"
       inkscape:connection-end="#path2999-0"
       inkscape:connection-end-point="d4" />
    <path
       style="fill:none;stroke:#000000;stroke-width:1px;stroke-linecap:butt;stroke-linejoin:miter;stroke-opacity:1;marker-start:url(#Arrow2Lstart)"
       d="m 372.67367,147.12853 1.6043,89.03873"
       id="path5313"
       inkscape:connector-type="polyline"
       inkscape:connector-curvature="0"
       inkscape:connection-start="#path2999-8"
       inkscape:connection-start-point="d4"
       inkscape:connection-end="#path2999-3"
       inkscape:connection-end-point="d4" />
    <path
       style="fill:none;stroke:#000000;stroke-width:1px;stroke-linecap:butt;stroke-linejoin:miter;stroke-opacity:1;marker-start:url(#Arrow2Lstart)"
       d="M 352.05363,140.81463 280.61229,242.48116"
       id="path5317"
       inkscape:connector-type="polyline"
       inkscape:connector-curvature="0"
       inkscape:connection-start="#path2999-8"
       inkscape:connection-start-point="d4"
       inkscape:connection-end="#path2999-66"
       inkscape:connection-end-point="d4" />
  </g>
</svg>
