<?xml version="1.0" encoding="UTF-8" standalone="no"?>
<svg width="469.547mm" height="459.669mm"
 viewBox="0 0 1331 1303"
 xmlns="http://www.w3.org/2000/svg" xmlns:xlink="http://www.w3.org/1999/xlink"  version="1.2" baseProfile="tiny">
<title>Qt Svg Document</title>
<desc>Generated with Qt</desc>
<defs>
</defs>
<g fill="none" stroke="black" stroke-width="1" fill-rule="evenodd" stroke-linecap="square" stroke-linejoin="bevel" >

<g fill="none" stroke="#ff0000" stroke-opacity="1" stroke-width="1" stroke-linecap="square" stroke-linejoin="bevel" transform="matrix(1,0,0,1,-110,-18)"
font-family="Ubuntu" font-size="11" font-weight="400" font-style="normal" 
>
<polyline fill="none" vector-effect="non-scaling-stroke" points="520,344 520,254 " />
<polyline fill="none" vector-effect="non-scaling-stroke" points="735,505 636,505 " />
<polyline fill="none" vector-effect="non-scaling-stroke" points="564,624 564,536 " />
<polyline fill="none" vector-effect="non-scaling-stroke" points="936,965 936,701 " />
<polyline fill="none" vector-effect="non-scaling-stroke" points="1153,965 1153,542 " />
<polyline fill="none" vector-effect="non-scaling-stroke" points="362,1070 362,867 " />
<polyline fill="none" vector-effect="non-scaling-stroke" points="314,1302 176,1302 " />
<polyline fill="none" vector-effect="non-scaling-stroke" points="176,1302 176,867 " />
<polyline fill="none" vector-effect="non-scaling-stroke" points="306,1199 306,1133 " />
</g>

<g fill="none" stroke="#ff0000" stroke-opacity="1" stroke-dasharray="4,2" stroke-dashoffset="0" stroke-width="1" stroke-linecap="square" stroke-linejoin="bevel" transform="matrix(1,0,0,1,-110,-18)"
font-family="Ubuntu" font-size="11" font-weight="400" font-style="normal" 
>
<polyline fill="none" vector-effect="non-scaling-stroke" points="1013,479 1013,247 " />
<polyline fill="none" vector-effect="non-scaling-stroke" points="564,459 564,379 " />
<polyline fill="none" vector-effect="non-scaling-stroke" points="1314,1299 1440,1299 " />
<polyline fill="none" vector-effect="non-scaling-stroke" points="1440,1299 1441,664 " />
<polyline fill="none" vector-effect="non-scaling-stroke" points="1441,664 1100,664 " />
</g>

<g fill="none" stroke="#ff0000" stroke-opacity="1" stroke-width="1" stroke-linecap="square" stroke-linejoin="bevel" transform="matrix(1,0,0,1,-110,-18)"
font-family="Ubuntu" font-size="11" font-weight="400" font-style="normal" 
>
<polyline fill="none" vector-effect="non-scaling-stroke" points="693,247 693,344 " />
</g>

<g fill="none" stroke="#ff0000" stroke-opacity="1" stroke-dasharray="4,2" stroke-dashoffset="0" stroke-width="1" stroke-linecap="square" stroke-linejoin="bevel" transform="matrix(1,0,0,1,-110,-18)"
font-family="Ubuntu" font-size="11" font-weight="400" font-style="normal" 
>
<polyline fill="none" vector-effect="non-scaling-stroke" points="155,729 155,503 " />
<polyline fill="none" vector-effect="non-scaling-stroke" points="155,503 210,503 " />
<polyline fill="none" vector-effect="non-scaling-stroke" points="913,1199 913,1000 " />
</g>

<g fill="#ffffff" fill-opacity="1" stroke="none" transform="matrix(1,0,0,1,-110,-18)"
font-family="Ubuntu" font-size="11" font-weight="400" font-style="normal" 
>
<path vector-effect="non-scaling-stroke" fill-rule="evenodd" d="M520,254 L513,265 L527,265 L520,254"/>
</g>

<g fill="#ffffff" fill-opacity="1" stroke="none" transform="matrix(1,0,0,1,-110,-18)"
font-family="Ubuntu" font-size="11" font-weight="400" font-style="normal" 
>
<path vector-effect="non-scaling-stroke" fill-rule="evenodd" d="M636,505 L647,512 L647,498 L636,505"/>
</g>

<g fill="#ffffff" fill-opacity="1" stroke="none" transform="matrix(1,0,0,1,-110,-18)"
font-family="Ubuntu" font-size="11" font-weight="400" font-style="normal" 
>
<path vector-effect="non-scaling-stroke" fill-rule="evenodd" d="M564,536 L557,547 L571,547 L564,536"/>
</g>

<g fill="#ffffff" fill-opacity="1" stroke="none" transform="matrix(1,0,0,1,-110,-18)"
font-family="Ubuntu" font-size="11" font-weight="400" font-style="normal" 
>
<path vector-effect="non-scaling-stroke" fill-rule="evenodd" d="M936,701 L929,712 L943,712 L936,701"/>
</g>

<g fill="#ffffff" fill-opacity="1" stroke="none" transform="matrix(1,0,0,1,-110,-18)"
font-family="Ubuntu" font-size="11" font-weight="400" font-style="normal" 
>
<path vector-effect="non-scaling-stroke" fill-rule="evenodd" d="M1153,542 L1146,553 L1160,553 L1153,542"/>
</g>

<g fill="#ffffff" fill-opacity="1" stroke="none" transform="matrix(1,0,0,1,-110,-18)"
font-family="Ubuntu" font-size="11" font-weight="400" font-style="normal" 
>
<path vector-effect="non-scaling-stroke" fill-rule="evenodd" d="M362,867 L355,878 L369,878 L362,867"/>
</g>

<g fill="#ffffff" fill-opacity="1" stroke="none" transform="matrix(1,0,0,1,-110,-18)"
font-family="Ubuntu" font-size="11" font-weight="400" font-style="normal" 
>
<path vector-effect="non-scaling-stroke" fill-rule="evenodd" d="M176,867 L169,878 L183,878 L176,867"/>
</g>

<g fill="#ffffff" fill-opacity="1" stroke="none" transform="matrix(1,0,0,1,-110,-18)"
font-family="Ubuntu" font-size="11" font-weight="400" font-style="normal" 
>
<path vector-effect="non-scaling-stroke" fill-rule="evenodd" d="M306,1133 L299,1144 L313,1144 L306,1133"/>
</g>

<g fill="#ffffff" fill-opacity="1" stroke="none" transform="matrix(1,0,0,1,-110,-18)"
font-family="Ubuntu" font-size="11" font-weight="400" font-style="normal" 
>
<path vector-effect="non-scaling-stroke" fill-rule="evenodd" d="M693,344 L700,333 L686,333 L693,344"/>
</g>

<g fill="none" stroke="#ff0000" stroke-opacity="1" stroke-width="1" stroke-linecap="square" stroke-linejoin="bevel" transform="matrix(1,0,0,1,-110,-18)"
font-family="Ubuntu" font-size="11" font-weight="400" font-style="normal" 
>
<polyline fill="none" vector-effect="non-scaling-stroke" points="520,254 513,265 " />
<polyline fill="none" vector-effect="non-scaling-stroke" points="520,254 527,265 " />
<polyline fill="none" vector-effect="non-scaling-stroke" points="513,265 527,265 " />
<polyline fill="none" vector-effect="non-scaling-stroke" points="636,505 647,512 " />
<polyline fill="none" vector-effect="non-scaling-stroke" points="636,505 647,498 " />
<polyline fill="none" vector-effect="non-scaling-stroke" points="647,512 647,498 " />
<polyline fill="none" vector-effect="non-scaling-stroke" points="564,536 557,547 " />
<polyline fill="none" vector-effect="non-scaling-stroke" points="564,536 571,547 " />
<polyline fill="none" vector-effect="non-scaling-stroke" points="557,547 571,547 " />
<polyline fill="none" vector-effect="non-scaling-stroke" points="936,701 929,712 " />
<polyline fill="none" vector-effect="non-scaling-stroke" points="936,701 943,712 " />
<polyline fill="none" vector-effect="non-scaling-stroke" points="929,712 943,712 " />
<polyline fill="none" vector-effect="non-scaling-stroke" points="1153,542 1146,553 " />
<polyline fill="none" vector-effect="non-scaling-stroke" points="1153,542 1160,553 " />
<polyline fill="none" vector-effect="non-scaling-stroke" points="1146,553 1160,553 " />
<polyline fill="none" vector-effect="non-scaling-stroke" points="362,867 355,878 " />
<polyline fill="none" vector-effect="non-scaling-stroke" points="362,867 369,878 " />
<polyline fill="none" vector-effect="non-scaling-stroke" points="355,878 369,878 " />
<polyline fill="none" vector-effect="non-scaling-stroke" points="176,867 169,878 " />
<polyline fill="none" vector-effect="non-scaling-stroke" points="176,867 183,878 " />
<polyline fill="none" vector-effect="non-scaling-stroke" points="169,878 183,878 " />
<polyline fill="none" vector-effect="non-scaling-stroke" points="306,1133 299,1144 " />
<polyline fill="none" vector-effect="non-scaling-stroke" points="306,1133 313,1144 " />
<polyline fill="none" vector-effect="non-scaling-stroke" points="299,1144 313,1144 " />
<polyline fill="none" vector-effect="non-scaling-stroke" points="1013,247 1006,258 " />
<polyline fill="none" vector-effect="non-scaling-stroke" points="1013,247 1020,258 " />
<polyline fill="none" vector-effect="non-scaling-stroke" points="564,379 557,390 " />
<polyline fill="none" vector-effect="non-scaling-stroke" points="564,379 571,390 " />
<polyline fill="none" vector-effect="non-scaling-stroke" points="1100,664 1111,671 " />
<polyline fill="none" vector-effect="non-scaling-stroke" points="1100,664 1111,657 " />
<polyline fill="none" vector-effect="non-scaling-stroke" points="693,344 700,333 " />
<polyline fill="none" vector-effect="non-scaling-stroke" points="693,344 686,333 " />
<polyline fill="none" vector-effect="non-scaling-stroke" points="700,333 686,333 " />
<polyline fill="none" vector-effect="non-scaling-stroke" points="210,503 199,496 " />
<polyline fill="none" vector-effect="non-scaling-stroke" points="210,503 199,510 " />
<polyline fill="none" vector-effect="non-scaling-stroke" points="913,1000 906,1011 " />
<polyline fill="none" vector-effect="non-scaling-stroke" points="913,1000 920,1011 " />
</g>

<g fill="#ffff00" fill-opacity="1" stroke="#ff0000" stroke-opacity="1" stroke-width="1" stroke-linecap="square" stroke-linejoin="bevel" transform="matrix(1,0,0,1,-110,-18)"
font-family="Ubuntu" font-size="11" font-weight="400" font-style="normal" 
>
<path vector-effect="non-scaling-stroke" fill-rule="evenodd" d="M359,344 L751,344 L751,379 L359,379 L359,344"/>
</g>

<g fill="#ffff00" fill-opacity="1" stroke="#000000" stroke-opacity="1" stroke-width="1" stroke-linecap="square" stroke-linejoin="bevel" transform="matrix(1,0,0,1,-110,-18)"
font-family="Sans Serif" font-size="9" font-weight="700" font-style="normal" 
>
<text fill="#000000" fill-opacity="1" stroke="none" xml:space="preserve" x="471.5" y="354" font-family="Sans Serif" font-size="9" font-weight="700" font-style="normal" 
 >NeuralNET::ContinuousPerceptron</text>
</g>

<g fill="#ffff00" fill-opacity="1" stroke="#ff0000" stroke-opacity="1" stroke-width="1" stroke-linecap="square" stroke-linejoin="bevel" transform="matrix(1,0,0,1,-110,-18)"
font-family="Sans Serif" font-size="9" font-weight="700" font-style="normal" 
>
<polyline fill="none" vector-effect="non-scaling-stroke" points="359,358 750,358 " />
</g>

<g fill="#ffff00" fill-opacity="1" stroke="#ff0000" stroke-opacity="1" stroke-width="1" stroke-linecap="square" stroke-linejoin="bevel" transform="matrix(1,0,0,1,-110,-18)"
font-family="Sans Serif" font-size="9" font-weight="400" font-style="normal" 
>
<polyline fill="none" vector-effect="non-scaling-stroke" points="359,365 750,365 " />
</g>

<g fill="#ffff00" fill-opacity="1" stroke="#000000" stroke-opacity="1" stroke-width="1" stroke-linecap="square" stroke-linejoin="bevel" transform="matrix(1,0,0,1,-110,-18)"
font-family="Sans Serif" font-size="9" font-weight="400" font-style="normal" 
>
<text fill="#000000" fill-opacity="1" stroke="none" xml:space="preserve" x="364" y="375" font-family="Sans Serif" font-size="9" font-weight="400" font-style="normal" 
 >+ ContinuousPerceptron(dimension : unsigned, alpha : float)</text>
</g>

<g fill="#ffff00" fill-opacity="1" stroke="#ff0000" stroke-opacity="1" stroke-width="1" stroke-linecap="square" stroke-linejoin="bevel" transform="matrix(1,0,0,1,-110,-18)"
font-family="Sans Serif" font-size="9" font-weight="400" font-style="normal" 
>
<path vector-effect="non-scaling-stroke" fill-rule="evenodd" d="M187,624 L1100,624 L1100,701 L187,701 L187,624"/>
</g>

<g fill="#ffff00" fill-opacity="1" stroke="#000000" stroke-opacity="1" stroke-width="1" stroke-linecap="square" stroke-linejoin="bevel" transform="matrix(1,0,0,1,-110,-18)"
font-family="Sans Serif" font-size="9" font-weight="700" font-style="normal" 
>
<text fill="#000000" fill-opacity="1" stroke="none" xml:space="preserve" x="557" y="634" font-family="Sans Serif" font-size="9" font-weight="700" font-style="normal" 
 >NeuralNET::DistributedNeuralLayer</text>
</g>

<g fill="#ffff00" fill-opacity="1" stroke="#ff0000" stroke-opacity="1" stroke-width="1" stroke-linecap="square" stroke-linejoin="bevel" transform="matrix(1,0,0,1,-110,-18)"
font-family="Sans Serif" font-size="9" font-weight="700" font-style="normal" 
>
<polyline fill="none" vector-effect="non-scaling-stroke" points="187,638 1099,638 " />
</g>

<g fill="#ffff00" fill-opacity="1" stroke="#ff0000" stroke-opacity="1" stroke-width="1" stroke-linecap="square" stroke-linejoin="bevel" transform="matrix(1,0,0,1,-110,-18)"
font-family="Sans Serif" font-size="9" font-weight="400" font-style="normal" 
>
<polyline fill="none" vector-effect="non-scaling-stroke" points="187,645 1099,645 " />
</g>

<g fill="#ffff00" fill-opacity="1" stroke="#000000" stroke-opacity="1" stroke-width="1" stroke-linecap="square" stroke-linejoin="bevel" transform="matrix(1,0,0,1,-110,-18)"
font-family="Sans Serif" font-size="9" font-weight="400" font-style="normal" 
>
<text fill="#000000" fill-opacity="1" stroke="none" xml:space="preserve" x="192" y="655" font-family="Sans Serif" font-size="9" font-weight="400" font-style="normal" 
 >+ DistributedNeuralLayer(neuronsPerZone : unsigned, w : unsigned, h : unsigned, dimensionW : unsigned, dimensionH : unsigned, alpha : float)</text>
</g>

<g fill="#ffff00" fill-opacity="1" stroke="#000000" stroke-opacity="1" stroke-width="1" stroke-linecap="square" stroke-linejoin="bevel" transform="matrix(1,0,0,1,-110,-18)"
font-family="Sans Serif" font-size="9" font-weight="400" font-style="normal" 
>
<text fill="#000000" fill-opacity="1" stroke="none" xml:space="preserve" x="192" y="669" font-family="Sans Serif" font-size="9" font-weight="400" font-style="normal" 
 >+ train( : vector&lt; float &gt;,  : vector&lt; int &gt;) : float</text>
</g>

<g fill="#ffff00" fill-opacity="1" stroke="#000000" stroke-opacity="1" stroke-width="1" stroke-linecap="square" stroke-linejoin="bevel" transform="matrix(1,0,0,1,-110,-18)"
font-family="Sans Serif" font-size="9" font-weight="400" font-style="normal" 
>
<text fill="#000000" fill-opacity="1" stroke="none" xml:space="preserve" x="192" y="683" font-family="Sans Serif" font-size="9" font-weight="400" font-style="normal" 
 >+ classify( : vector&lt; float &gt;) : vector&lt; float &gt;</text>
</g>

<g fill="#ffff00" fill-opacity="1" stroke="#000000" stroke-opacity="1" stroke-width="1" stroke-linecap="square" stroke-linejoin="bevel" transform="matrix(1,0,0,1,-110,-18)"
font-family="Sans Serif" font-size="9" font-weight="400" font-style="normal" 
>
<text fill="#000000" fill-opacity="1" stroke="none" xml:space="preserve" x="192" y="697" font-family="Sans Serif" font-size="9" font-weight="400" font-style="normal" 
 >+ discreteClassify( : vector&lt; float &gt;) : vector&lt; int &gt;</text>
</g>

<g fill="#ffff00" fill-opacity="1" stroke="#ff0000" stroke-opacity="1" stroke-width="1" stroke-linecap="square" stroke-linejoin="bevel" transform="matrix(1,0,0,1,-110,-18)"
font-family="Sans Serif" font-size="9" font-weight="400" font-style="normal" 
>
<path vector-effect="non-scaling-stroke" fill-rule="evenodd" d="M463,965 L1396,965 L1396,1000 L463,1000 L463,965"/>
</g>

<g fill="#ffff00" fill-opacity="1" stroke="#000000" stroke-opacity="1" stroke-width="1" stroke-linecap="square" stroke-linejoin="bevel" transform="matrix(1,0,0,1,-110,-18)"
font-family="Sans Serif" font-size="9" font-weight="700" font-style="normal" 
>
<text fill="#000000" fill-opacity="1" stroke="none" xml:space="preserve" x="835" y="975" font-family="Sans Serif" font-size="9" font-weight="700" font-style="normal" 
 >NeuralNET::DistributedRecurrentLayer</text>
</g>

<g fill="#ffff00" fill-opacity="1" stroke="#ff0000" stroke-opacity="1" stroke-width="1" stroke-linecap="square" stroke-linejoin="bevel" transform="matrix(1,0,0,1,-110,-18)"
font-family="Sans Serif" font-size="9" font-weight="700" font-style="normal" 
>
<polyline fill="none" vector-effect="non-scaling-stroke" points="463,979 1395,979 " />
</g>

<g fill="#ffff00" fill-opacity="1" stroke="#ff0000" stroke-opacity="1" stroke-width="1" stroke-linecap="square" stroke-linejoin="bevel" transform="matrix(1,0,0,1,-110,-18)"
font-family="Sans Serif" font-size="9" font-weight="400" font-style="normal" 
>
<polyline fill="none" vector-effect="non-scaling-stroke" points="463,986 1395,986 " />
</g>

<g fill="#ffff00" fill-opacity="1" stroke="#000000" stroke-opacity="1" stroke-width="1" stroke-linecap="square" stroke-linejoin="bevel" transform="matrix(1,0,0,1,-110,-18)"
font-family="Sans Serif" font-size="9" font-weight="400" font-style="normal" 
>
<text fill="#000000" fill-opacity="1" stroke="none" xml:space="preserve" x="468" y="996" font-family="Sans Serif" font-size="9" font-weight="400" font-style="normal" 
 >+ DistributedRecurrentLayer(neuronsPerZone : unsigned, w : unsigned, h : unsigned, dimensionW : unsigned, dimensionH : unsigned, alpha : float)</text>
</g>

<g fill="#ffff00" fill-opacity="1" stroke="#ff0000" stroke-opacity="1" stroke-width="1" stroke-linecap="square" stroke-linejoin="bevel" transform="matrix(1,0,0,1,-110,-18)"
font-family="Sans Serif" font-size="9" font-weight="400" font-style="normal" 
>
<path vector-effect="non-scaling-stroke" fill-rule="evenodd" d="M240,1199 L1240,1199 L1240,1234 L240,1234 L240,1199"/>
</g>

<g fill="#ffff00" fill-opacity="1" stroke="#000000" stroke-opacity="1" stroke-width="1" stroke-linecap="square" stroke-linejoin="bevel" transform="matrix(1,0,0,1,-110,-18)"
font-family="Sans Serif" font-size="9" font-weight="700" font-style="normal" 
>
<text fill="#000000" fill-opacity="1" stroke="none" xml:space="preserve" x="639" y="1209" font-family="Sans Serif" font-size="9" font-weight="700" font-style="normal" 
 >NeuralNET::DistributedRecurrentNetwork</text>
</g>

<g fill="#ffff00" fill-opacity="1" stroke="#ff0000" stroke-opacity="1" stroke-width="1" stroke-linecap="square" stroke-linejoin="bevel" transform="matrix(1,0,0,1,-110,-18)"
font-family="Sans Serif" font-size="9" font-weight="700" font-style="normal" 
>
<polyline fill="none" vector-effect="non-scaling-stroke" points="240,1213 1239,1213 " />
</g>

<g fill="#ffff00" fill-opacity="1" stroke="#ff0000" stroke-opacity="1" stroke-width="1" stroke-linecap="square" stroke-linejoin="bevel" transform="matrix(1,0,0,1,-110,-18)"
font-family="Sans Serif" font-size="9" font-weight="400" font-style="normal" 
>
<polyline fill="none" vector-effect="non-scaling-stroke" points="240,1220 1239,1220 " />
</g>

<g fill="#ffff00" fill-opacity="1" stroke="#000000" stroke-opacity="1" stroke-width="1" stroke-linecap="square" stroke-linejoin="bevel" transform="matrix(1,0,0,1,-110,-18)"
font-family="Sans Serif" font-size="9" font-weight="400" font-style="normal" 
>
<text fill="#000000" fill-opacity="1" stroke="none" xml:space="preserve" x="245" y="1230" font-family="Sans Serif" font-size="9" font-weight="400" font-style="normal" 
 >+ DistributedRecurrentNetwork(layerCount : unsigned, sizes[] : unsigned, firstLayerW : unsigned, firstLayerH : unsigned, dimensionW : unsigned, dimensionH : unsigned, alpha : float)</text>
</g>

<g fill="#ffff00" fill-opacity="1" stroke="#ff0000" stroke-opacity="1" stroke-width="1" stroke-linecap="square" stroke-linejoin="bevel" transform="matrix(1,0,0,1,-110,-18)"
font-family="Sans Serif" font-size="9" font-weight="400" font-style="normal" 
>
<path vector-effect="non-scaling-stroke" fill-rule="evenodd" d="M210,459 L636,459 L636,536 L210,536 L210,459"/>
</g>

<g fill="#ffff00" fill-opacity="1" stroke="#000000" stroke-opacity="1" stroke-width="1" stroke-linecap="square" stroke-linejoin="bevel" transform="matrix(1,0,0,1,-110,-18)"
font-family="Sans Serif" font-size="9" font-weight="700" font-style="normal" 
>
<text fill="#000000" fill-opacity="1" stroke="none" xml:space="preserve" x="363.5" y="469" font-family="Sans Serif" font-size="9" font-weight="700" font-style="normal" 
 >NeuralNET::NeuralLayer</text>
</g>

<g fill="#ffff00" fill-opacity="1" stroke="#ff0000" stroke-opacity="1" stroke-width="1" stroke-linecap="square" stroke-linejoin="bevel" transform="matrix(1,0,0,1,-110,-18)"
font-family="Sans Serif" font-size="9" font-weight="700" font-style="normal" 
>
<polyline fill="none" vector-effect="non-scaling-stroke" points="210,473 635,473 " />
</g>

<g fill="#ffff00" fill-opacity="1" stroke="#ff0000" stroke-opacity="1" stroke-width="1" stroke-linecap="square" stroke-linejoin="bevel" transform="matrix(1,0,0,1,-110,-18)"
font-family="Sans Serif" font-size="9" font-weight="400" font-style="normal" 
>
<polyline fill="none" vector-effect="non-scaling-stroke" points="210,480 635,480 " />
</g>

<g fill="#ffff00" fill-opacity="1" stroke="#000000" stroke-opacity="1" stroke-width="1" stroke-linecap="square" stroke-linejoin="bevel" transform="matrix(1,0,0,1,-110,-18)"
font-family="Sans Serif" font-size="9" font-weight="400" font-style="normal" 
>
<text fill="#000000" fill-opacity="1" stroke="none" xml:space="preserve" x="215" y="490" font-family="Sans Serif" font-size="9" font-weight="400" font-style="normal" 
 >+ NeuralLayer(size : unsigned, dimension : unsigned, alpha : float)</text>
</g>

<g fill="#ffff00" fill-opacity="1" stroke="#000000" stroke-opacity="1" stroke-width="1" stroke-linecap="square" stroke-linejoin="bevel" transform="matrix(1,0,0,1,-110,-18)"
font-family="Sans Serif" font-size="9" font-weight="400" font-style="normal" 
>
<text fill="#000000" fill-opacity="1" stroke="none" xml:space="preserve" x="215" y="504" font-family="Sans Serif" font-size="9" font-weight="400" font-style="normal" 
 >+ train( : vector&lt; float &gt;,  : vector&lt; int &gt;) : float</text>
</g>

<g fill="#ffff00" fill-opacity="1" stroke="#000000" stroke-opacity="1" stroke-width="1" stroke-linecap="square" stroke-linejoin="bevel" transform="matrix(1,0,0,1,-110,-18)"
font-family="Sans Serif" font-size="9" font-weight="400" font-style="normal" 
>
<text fill="#000000" fill-opacity="1" stroke="none" xml:space="preserve" x="215" y="518" font-family="Sans Serif" font-size="9" font-weight="400" font-style="normal" 
 >+ classify( : vector&lt; float &gt;) : vector&lt; float &gt;</text>
</g>

<g fill="#ffff00" fill-opacity="1" stroke="#000000" stroke-opacity="1" stroke-width="1" stroke-linecap="square" stroke-linejoin="bevel" transform="matrix(1,0,0,1,-110,-18)"
font-family="Sans Serif" font-size="9" font-weight="400" font-style="normal" 
>
<text fill="#000000" fill-opacity="1" stroke="none" xml:space="preserve" x="215" y="532" font-family="Sans Serif" font-size="9" font-weight="400" font-style="normal" 
 >+ discreteClassify( : vector&lt; float &gt;) : vector&lt; int &gt;</text>
</g>

<g fill="#ffff00" fill-opacity="1" stroke="#ff0000" stroke-opacity="1" stroke-width="1" stroke-linecap="square" stroke-linejoin="bevel" transform="matrix(1,0,0,1,-110,-18)"
font-family="Sans Serif" font-size="9" font-weight="400" font-style="normal" 
>
<path vector-effect="non-scaling-stroke" fill-rule="evenodd" d="M314,1280 L1314,1280 L1314,1321 L314,1321 L314,1280"/>
</g>

<g fill="#ffff00" fill-opacity="1" stroke="#000000" stroke-opacity="1" stroke-width="1" stroke-linecap="square" stroke-linejoin="bevel" transform="matrix(1,0,0,1,-110,-18)"
font-family="Sans Serif" font-size="9" font-weight="700" font-style="normal" 
>
<text fill="#000000" fill-opacity="1" stroke="none" xml:space="preserve" x="721" y="1290" font-family="Sans Serif" font-size="9" font-weight="700" font-style="normal" 
 >NeuralNET::DistributedNeuralNetwork</text>
</g>

<g fill="#ffff00" fill-opacity="1" stroke="#ff0000" stroke-opacity="1" stroke-width="1" stroke-linecap="square" stroke-linejoin="bevel" transform="matrix(1,0,0,1,-110,-18)"
font-family="Sans Serif" font-size="9" font-weight="700" font-style="normal" 
>
<polyline fill="none" vector-effect="non-scaling-stroke" points="314,1294 1313,1294 " />
</g>

<g fill="#ffff00" fill-opacity="1" stroke="#ff0000" stroke-opacity="1" stroke-width="1" stroke-linecap="square" stroke-linejoin="bevel" transform="matrix(1,0,0,1,-110,-18)"
font-family="Sans Serif" font-size="9" font-weight="400" font-style="normal" 
>
<polyline fill="none" vector-effect="non-scaling-stroke" points="314,1301 1313,1301 " />
</g>

<g fill="#ffff00" fill-opacity="1" stroke="#000000" stroke-opacity="1" stroke-width="1" stroke-linecap="square" stroke-linejoin="bevel" transform="matrix(1,0,0,1,-110,-18)"
font-family="Sans Serif" font-size="9" font-weight="400" font-style="normal" 
>
<text fill="#000000" fill-opacity="1" stroke="none" xml:space="preserve" x="319" y="1311" font-family="Sans Serif" font-size="9" font-weight="400" font-style="normal" 
 >+ DistributedNeuralNetwork(layerCount : unsigned, sizes[] : unsigned, firstLayerW : unsigned, firstLayerH : unsigned, dimensionW : unsigned, dimensionH : unsigned, alpha : float)</text>
</g>

<g fill="#ffff00" fill-opacity="1" stroke="#ff0000" stroke-opacity="1" stroke-width="1" stroke-linecap="square" stroke-linejoin="bevel" transform="matrix(1,0,0,1,-110,-18)"
font-family="Sans Serif" font-size="9" font-weight="400" font-style="normal" 
>
<path vector-effect="non-scaling-stroke" fill-rule="evenodd" d="M110,748 L716,748 L716,867 L110,867 L110,748"/>
</g>

<g fill="#ffff00" fill-opacity="1" stroke="#ff0000" stroke-opacity="1" stroke-dasharray="1,2" stroke-dashoffset="0" stroke-width="1" stroke-linecap="square" stroke-linejoin="bevel" transform="matrix(1,0,0,1,-110,-18)"
font-family="Sans Serif" font-size="9" font-weight="400" font-style="normal" 
>
<path vector-effect="non-scaling-stroke" fill-rule="evenodd" d="M707,729 L725,729 L725,753 L707,753 L707,729"/>
</g>

<g fill="#ffff00" fill-opacity="1" stroke="#000000" stroke-opacity="1" stroke-width="1" stroke-linecap="square" stroke-linejoin="bevel" transform="matrix(1,0,0,1,-110,-18)"
font-family="Sans Serif" font-size="9" font-weight="400" font-style="normal" 
>
<text fill="#000000" fill-opacity="1" stroke="none" xml:space="preserve" x="712" y="744" font-family="Sans Serif" font-size="9" font-weight="400" font-style="normal" 
 >T</text>
</g>

<g fill="#ffff00" fill-opacity="1" stroke="#000000" stroke-opacity="1" stroke-width="1" stroke-linecap="square" stroke-linejoin="bevel" transform="matrix(1,0,0,1,-110,-18)"
font-family="Sans Serif" font-size="9" font-weight="700" font-style="normal" 
>
<text fill="#000000" fill-opacity="1" stroke="none" xml:space="preserve" x="347" y="758" font-family="Sans Serif" font-size="9" font-weight="700" font-style="normal" 
 >NeuralNET::NeuralNetwork</text>
</g>

<g fill="#ffff00" fill-opacity="1" stroke="#ff0000" stroke-opacity="1" stroke-width="1" stroke-linecap="square" stroke-linejoin="bevel" transform="matrix(1,0,0,1,-110,-18)"
font-family="Sans Serif" font-size="9" font-weight="700" font-style="normal" 
>
<polyline fill="none" vector-effect="non-scaling-stroke" points="110,762 715,762 " />
</g>

<g fill="#ffff00" fill-opacity="1" stroke="#ff0000" stroke-opacity="1" stroke-width="1" stroke-linecap="square" stroke-linejoin="bevel" transform="matrix(1,0,0,1,-110,-18)"
font-family="Sans Serif" font-size="9" font-weight="400" font-style="normal" 
>
<polyline fill="none" vector-effect="non-scaling-stroke" points="110,769 715,769 " />
</g>

<g fill="#ffff00" fill-opacity="1" stroke="#000000" stroke-opacity="1" stroke-width="1" stroke-linecap="square" stroke-linejoin="bevel" transform="matrix(1,0,0,1,-110,-18)"
font-family="Sans Serif" font-size="9" font-weight="400" font-style="normal" 
>
<text fill="#000000" fill-opacity="1" stroke="none" xml:space="preserve" x="115" y="779" font-family="Sans Serif" font-size="9" font-weight="400" font-style="normal" 
 >+ NeuralNetwork(layerCount : unsigned, sizes[] : unsigned, dimension : unsigned, alpha : float)</text>
</g>

<g fill="#ffff00" fill-opacity="1" stroke="#000000" stroke-opacity="1" stroke-width="1" stroke-linecap="square" stroke-linejoin="bevel" transform="matrix(1,0,0,1,-110,-18)"
font-family="Sans Serif" font-size="9" font-weight="400" font-style="normal" 
>
<text fill="#000000" fill-opacity="1" stroke="none" xml:space="preserve" x="115" y="793" font-family="Sans Serif" font-size="9" font-weight="400" font-style="normal" 
 >+ train(input : vector&lt; float &gt;, target : vector&lt; int &gt;) : float</text>
</g>

<g fill="#ffff00" fill-opacity="1" stroke="#000000" stroke-opacity="1" stroke-width="1" stroke-linecap="square" stroke-linejoin="bevel" transform="matrix(1,0,0,1,-110,-18)"
font-family="Sans Serif" font-size="9" font-weight="400" font-style="normal" 
>
<text fill="#000000" fill-opacity="1" stroke="none" xml:space="preserve" x="115" y="807" font-family="Sans Serif" font-size="9" font-weight="400" font-style="normal" 
 >+ classify(input : vector&lt; float &gt;) : vector&lt; float &gt;</text>
</g>

<g fill="#ffff00" fill-opacity="1" stroke="#000000" stroke-opacity="1" stroke-width="1" stroke-linecap="square" stroke-linejoin="bevel" transform="matrix(1,0,0,1,-110,-18)"
font-family="Sans Serif" font-size="9" font-weight="400" font-style="normal" 
>
<text fill="#000000" fill-opacity="1" stroke="none" xml:space="preserve" x="115" y="821" font-family="Sans Serif" font-size="9" font-weight="400" font-style="normal" 
 >+ classify1(input : vector&lt; float &gt;) : float</text>
</g>

<g fill="#ffff00" fill-opacity="1" stroke="#000000" stroke-opacity="1" stroke-width="1" stroke-linecap="square" stroke-linejoin="bevel" transform="matrix(1,0,0,1,-110,-18)"
font-family="Sans Serif" font-size="9" font-weight="400" font-style="normal" 
>
<text fill="#000000" fill-opacity="1" stroke="none" xml:space="preserve" x="115" y="835" font-family="Sans Serif" font-size="9" font-weight="400" font-style="normal" 
 >+ discreteClassify(input : vector&lt; float &gt;) : vector&lt; int &gt;</text>
</g>

<g fill="#ffff00" fill-opacity="1" stroke="#000000" stroke-opacity="1" stroke-width="1" stroke-linecap="square" stroke-linejoin="bevel" transform="matrix(1,0,0,1,-110,-18)"
font-family="Sans Serif" font-size="9" font-weight="400" font-style="normal" 
>
<text fill="#000000" fill-opacity="1" stroke="none" xml:space="preserve" x="115" y="849" font-family="Sans Serif" font-size="9" font-weight="400" font-style="normal" 
 >+ saveWeights(fname : string)</text>
</g>

<g fill="#ffff00" fill-opacity="1" stroke="#000000" stroke-opacity="1" stroke-width="1" stroke-linecap="square" stroke-linejoin="bevel" transform="matrix(1,0,0,1,-110,-18)"
font-family="Sans Serif" font-size="9" font-weight="400" font-style="normal" 
>
<text fill="#000000" fill-opacity="1" stroke="none" xml:space="preserve" x="115" y="863" font-family="Sans Serif" font-size="9" font-weight="400" font-style="normal" 
 >+ loadWeights(fname : string)</text>
</g>

<g fill="#ffff00" fill-opacity="1" stroke="#ff0000" stroke-opacity="1" stroke-width="1" stroke-linecap="square" stroke-linejoin="bevel" transform="matrix(1,0,0,1,-110,-18)"
font-family="Sans Serif" font-size="9" font-weight="400" font-style="normal" 
>
<path vector-effect="non-scaling-stroke" fill-rule="evenodd" d="M735,479 L1181,479 L1181,542 L735,542 L735,479"/>
</g>

<g fill="#ffff00" fill-opacity="1" stroke="#000000" stroke-opacity="1" stroke-width="1" stroke-linecap="square" stroke-linejoin="bevel" transform="matrix(1,0,0,1,-110,-18)"
font-family="Sans Serif" font-size="9" font-weight="700" font-style="normal" 
>
<text fill="#000000" fill-opacity="1" stroke="none" xml:space="preserve" x="890.5" y="489" font-family="Sans Serif" font-size="9" font-weight="700" font-style="normal" 
 >NeuralNET::RecurrentLayer</text>
</g>

<g fill="#ffff00" fill-opacity="1" stroke="#ff0000" stroke-opacity="1" stroke-width="1" stroke-linecap="square" stroke-linejoin="bevel" transform="matrix(1,0,0,1,-110,-18)"
font-family="Sans Serif" font-size="9" font-weight="700" font-style="normal" 
>
<polyline fill="none" vector-effect="non-scaling-stroke" points="735,493 1180,493 " />
</g>

<g fill="#ffff00" fill-opacity="1" stroke="#ff0000" stroke-opacity="1" stroke-width="1" stroke-linecap="square" stroke-linejoin="bevel" transform="matrix(1,0,0,1,-110,-18)"
font-family="Sans Serif" font-size="9" font-weight="400" font-style="normal" 
>
<polyline fill="none" vector-effect="non-scaling-stroke" points="735,500 1180,500 " />
</g>

<g fill="#ffff00" fill-opacity="1" stroke="#000000" stroke-opacity="1" stroke-width="1" stroke-linecap="square" stroke-linejoin="bevel" transform="matrix(1,0,0,1,-110,-18)"
font-family="Sans Serif" font-size="9" font-weight="400" font-style="normal" 
>
<text fill="#000000" fill-opacity="1" stroke="none" xml:space="preserve" x="740" y="510" font-family="Sans Serif" font-size="9" font-weight="400" font-style="normal" 
 >+ RecurrentLayer(size : unsigned, dimension : unsigned, alpha : float)</text>
</g>

<g fill="#ffff00" fill-opacity="1" stroke="#000000" stroke-opacity="1" stroke-width="1" stroke-linecap="square" stroke-linejoin="bevel" transform="matrix(1,0,0,1,-110,-18)"
font-family="Sans Serif" font-size="9" font-weight="400" font-style="normal" 
>
<text fill="#000000" fill-opacity="1" stroke="none" xml:space="preserve" x="740" y="524" font-family="Sans Serif" font-size="9" font-weight="400" font-style="normal" 
 >+ update()</text>
</g>

<g fill="#ffff00" fill-opacity="1" stroke="#000000" stroke-opacity="1" stroke-width="1" stroke-linecap="square" stroke-linejoin="bevel" transform="matrix(1,0,0,1,-110,-18)"
font-family="Sans Serif" font-size="9" font-weight="400" font-style="normal" 
>
<text fill="#000000" fill-opacity="1" stroke="none" xml:space="preserve" x="740" y="538" font-family="Sans Serif" font-size="9" font-weight="400" font-style="normal" 
 >+ reset()</text>
</g>

<g fill="#ffff00" fill-opacity="1" stroke="#ff0000" stroke-opacity="1" stroke-width="1" stroke-linecap="square" stroke-linejoin="bevel" transform="matrix(1,0,0,1,-110,-18)"
font-family="Sans Serif" font-size="9" font-weight="400" font-style="normal" 
>
<path vector-effect="non-scaling-stroke" fill-rule="evenodd" d="M327,51 L642,51 L642,254 L327,254 L327,51"/>
</g>

<g fill="#ffff00" fill-opacity="1" stroke="#ff0000" stroke-opacity="1" stroke-dasharray="1,2" stroke-dashoffset="0" stroke-width="1" stroke-linecap="square" stroke-linejoin="bevel" transform="matrix(1,0,0,1,-110,-18)"
font-family="Sans Serif" font-size="9" font-weight="400" font-style="normal" 
>
<path vector-effect="non-scaling-stroke" fill-rule="evenodd" d="M593,18 L691,18 L691,56 L593,56 L593,18"/>
</g>

<g fill="#ffff00" fill-opacity="1" stroke="#000000" stroke-opacity="1" stroke-width="1" stroke-linecap="square" stroke-linejoin="bevel" transform="matrix(1,0,0,1,-110,-18)"
font-family="Sans Serif" font-size="9" font-weight="400" font-style="normal" 
>
<text fill="#000000" fill-opacity="1" stroke="none" xml:space="preserve" x="598" y="33" font-family="Sans Serif" font-size="9" font-weight="400" font-style="normal" 
 >InputIterator</text>
<text fill="#000000" fill-opacity="1" stroke="none" xml:space="preserve" x="598" y="47" font-family="Sans Serif" font-size="9" font-weight="400" font-style="normal" 
 >InputIterator2</text>
</g>

<g fill="#ffff00" fill-opacity="1" stroke="#000000" stroke-opacity="1" stroke-width="1" stroke-linecap="square" stroke-linejoin="bevel" transform="matrix(1,0,0,1,-110,-18)"
font-family="Sans Serif" font-size="9" font-weight="700" font-style="normal" 
>
<text fill="#000000" fill-opacity="1" stroke="none" xml:space="preserve" x="428.5" y="61" font-family="Sans Serif" font-size="9" font-weight="700" font-style="normal" 
 >NeuralNET::Perceptron</text>
</g>

<g fill="#ffff00" fill-opacity="1" stroke="#ff0000" stroke-opacity="1" stroke-width="1" stroke-linecap="square" stroke-linejoin="bevel" transform="matrix(1,0,0,1,-110,-18)"
font-family="Sans Serif" font-size="9" font-weight="700" font-style="normal" 
>
<polyline fill="none" vector-effect="non-scaling-stroke" points="327,65 641,65 " />
</g>

<g fill="#ffff00" fill-opacity="1" stroke="#ff0000" stroke-opacity="1" stroke-width="1" stroke-linecap="square" stroke-linejoin="bevel" transform="matrix(1,0,0,1,-110,-18)"
font-family="Sans Serif" font-size="9" font-weight="400" font-style="normal" 
>
<polyline fill="none" vector-effect="non-scaling-stroke" points="327,72 641,72 " />
</g>

<g fill="#ffff00" fill-opacity="1" stroke="#000000" stroke-opacity="1" stroke-width="1" stroke-linecap="square" stroke-linejoin="bevel" transform="matrix(1,0,0,1,-110,-18)"
font-family="Sans Serif" font-size="9" font-weight="400" font-style="normal" 
>
<text fill="#000000" fill-opacity="1" stroke="none" xml:space="preserve" x="332" y="82" font-family="Sans Serif" font-size="9" font-weight="400" font-style="normal" 
 >+ Perceptron( : unsigned,  : float)</text>
</g>

<g fill="#ffff00" fill-opacity="1" stroke="#000000" stroke-opacity="1" stroke-width="1" stroke-linecap="square" stroke-linejoin="bevel" transform="matrix(1,0,0,1,-110,-18)"
font-family="Sans Serif" font-size="9" font-weight="400" font-style="normal" 
>
<text fill="#000000" fill-opacity="1" stroke="none" xml:space="preserve" x="332" y="96" font-family="Sans Serif" font-size="9" font-weight="400" font-style="normal" 
 >+ train(input : vector&lt; float &gt;, target : int)</text>
</g>

<g fill="#ffff00" fill-opacity="1" stroke="#000000" stroke-opacity="1" stroke-width="1" stroke-linecap="square" stroke-linejoin="bevel" transform="matrix(1,0,0,1,-110,-18)"
font-family="Sans Serif" font-size="9" font-weight="400" font-style="normal" 
>
<text fill="#000000" fill-opacity="1" stroke="none" xml:space="preserve" x="332" y="110" font-family="Sans Serif" font-size="9" font-weight="400" font-style="normal" 
 >+ trainDelta(input : vector&lt; float &gt;, delta : float)</text>
</g>

<g fill="#ffff00" fill-opacity="1" stroke="#000000" stroke-opacity="1" stroke-width="1" stroke-linecap="square" stroke-linejoin="bevel" transform="matrix(1,0,0,1,-110,-18)"
font-family="Sans Serif" font-size="9" font-weight="400" font-style="normal" 
>
<text fill="#000000" fill-opacity="1" stroke="none" xml:space="preserve" x="332" y="124" font-family="Sans Serif" font-size="9" font-weight="400" font-style="normal" 
 >+ classify(input : vector&lt; float &gt;) : float</text>
</g>

<g fill="#ffff00" fill-opacity="1" stroke="#000000" stroke-opacity="1" stroke-width="1" stroke-linecap="square" stroke-linejoin="bevel" transform="matrix(1,0,0,1,-110,-18)"
font-family="Sans Serif" font-size="9" font-weight="400" font-style="normal" 
>
<text fill="#000000" fill-opacity="1" stroke="none" xml:space="preserve" x="332" y="138" font-family="Sans Serif" font-size="9" font-weight="400" font-style="normal" 
 >+ discreteClassify(input : vector&lt; float &gt;) : int</text>
</g>

<g fill="#ffff00" fill-opacity="1" stroke="#000000" stroke-opacity="1" stroke-width="1" stroke-linecap="square" stroke-linejoin="bevel" transform="matrix(1,0,0,1,-110,-18)"
font-family="Sans Serif" font-size="9" font-weight="400" font-style="normal" 
>
<text fill="#000000" fill-opacity="1" stroke="none" xml:space="preserve" x="332" y="152" font-family="Sans Serif" font-size="9" font-weight="400" font-style="normal" 
 >+ randomizeWeights()</text>
</g>

<g fill="#ffff00" fill-opacity="1" stroke="#000000" stroke-opacity="1" stroke-width="1" stroke-linecap="square" stroke-linejoin="bevel" transform="matrix(1,0,0,1,-110,-18)"
font-family="Sans Serif" font-size="9" font-weight="400" font-style="normal" 
>
<text fill="#000000" fill-opacity="1" stroke="none" xml:space="preserve" x="332" y="166" font-family="Sans Serif" font-size="9" font-weight="400" font-style="normal" 
 >+ save(filename : string)</text>
</g>

<g fill="#ffff00" fill-opacity="1" stroke="#000000" stroke-opacity="1" stroke-width="1" stroke-linecap="square" stroke-linejoin="bevel" transform="matrix(1,0,0,1,-110,-18)"
font-family="Sans Serif" font-size="9" font-weight="400" font-style="normal" 
>
<text fill="#000000" fill-opacity="1" stroke="none" xml:space="preserve" x="332" y="180" font-family="Sans Serif" font-size="9" font-weight="400" font-style="normal" 
 >+ load(filename : string)</text>
</g>

<g fill="#ffff00" fill-opacity="1" stroke="#000000" stroke-opacity="1" stroke-width="1" stroke-linecap="square" stroke-linejoin="bevel" transform="matrix(1,0,0,1,-110,-18)"
font-family="Sans Serif" font-size="9" font-weight="400" font-style="normal" 
>
<text fill="#000000" fill-opacity="1" stroke="none" xml:space="preserve" x="332" y="194" font-family="Sans Serif" font-size="9" font-weight="400" font-style="normal" 
 >+ printWeights()</text>
</g>

<g fill="#ffff00" fill-opacity="1" stroke="#000000" stroke-opacity="1" stroke-width="1" stroke-linecap="square" stroke-linejoin="bevel" transform="matrix(1,0,0,1,-110,-18)"
font-family="Sans Serif" font-size="9" font-weight="400" font-style="normal" 
>
<text fill="#000000" fill-opacity="1" stroke="none" xml:space="preserve" x="332" y="208" font-family="Sans Serif" font-size="9" font-weight="400" font-style="normal" 
 >+ getWeights() : vector&lt; float &gt;</text>
</g>

<g fill="#ffff00" fill-opacity="1" stroke="#000000" stroke-opacity="1" stroke-width="1" stroke-linecap="square" stroke-linejoin="bevel" transform="matrix(1,0,0,1,-110,-18)"
font-family="Sans Serif" font-size="9" font-weight="400" font-style="normal" 
>
<text fill="#000000" fill-opacity="1" stroke="none" xml:space="preserve" x="332" y="222" font-family="Sans Serif" font-size="9" font-weight="400" font-style="normal" 
 >+ setWeights( : vector&lt; float &gt;)</text>
</g>

<g fill="#ffff00" fill-opacity="1" stroke="#000000" stroke-opacity="1" stroke-width="1" stroke-linecap="square" stroke-linejoin="bevel" transform="matrix(1,0,0,1,-110,-18)"
font-family="Sans Serif" font-size="9" font-weight="400" font-style="normal" 
>
<text fill="#000000" fill-opacity="1" stroke="none" xml:space="preserve" x="332" y="236" font-family="Sans Serif" font-size="9" font-weight="400" font-style="normal" 
 >+ getDelta( : float,  : int) : float</text>
</g>

<g fill="#ffff00" fill-opacity="1" stroke="#000000" stroke-opacity="1" stroke-width="1" stroke-linecap="square" stroke-linejoin="bevel" transform="matrix(1,0,0,1,-110,-18)"
font-family="Sans Serif" font-size="9" font-weight="400" font-style="normal" 
>
<text fill="#000000" fill-opacity="1" stroke="none" xml:space="preserve" x="332" y="250" font-family="Sans Serif" font-size="9" font-weight="400" font-style="normal" 
 >+ getError( : float,  : int) : float</text>
</g>

<g fill="#ffff00" fill-opacity="1" stroke="#ff0000" stroke-opacity="1" stroke-width="1" stroke-linecap="square" stroke-linejoin="bevel" transform="matrix(1,0,0,1,-110,-18)"
font-family="Sans Serif" font-size="9" font-weight="400" font-style="normal" 
>
<path vector-effect="non-scaling-stroke" fill-rule="evenodd" d="M209,1070 L835,1070 L835,1133 L209,1133 L209,1070"/>
</g>

<g fill="#ffff00" fill-opacity="1" stroke="#000000" stroke-opacity="1" stroke-width="1" stroke-linecap="square" stroke-linejoin="bevel" transform="matrix(1,0,0,1,-110,-18)"
font-family="Sans Serif" font-size="9" font-weight="700" font-style="normal" 
>
<text fill="#000000" fill-opacity="1" stroke="none" xml:space="preserve" x="448" y="1080" font-family="Sans Serif" font-size="9" font-weight="700" font-style="normal" 
 >NeuralNET::RecurrentNetwork</text>
</g>

<g fill="#ffff00" fill-opacity="1" stroke="#ff0000" stroke-opacity="1" stroke-width="1" stroke-linecap="square" stroke-linejoin="bevel" transform="matrix(1,0,0,1,-110,-18)"
font-family="Sans Serif" font-size="9" font-weight="700" font-style="normal" 
>
<polyline fill="none" vector-effect="non-scaling-stroke" points="209,1084 834,1084 " />
</g>

<g fill="#ffff00" fill-opacity="1" stroke="#ff0000" stroke-opacity="1" stroke-width="1" stroke-linecap="square" stroke-linejoin="bevel" transform="matrix(1,0,0,1,-110,-18)"
font-family="Sans Serif" font-size="9" font-weight="400" font-style="normal" 
>
<polyline fill="none" vector-effect="non-scaling-stroke" points="209,1091 834,1091 " />
</g>

<g fill="#ffff00" fill-opacity="1" stroke="#000000" stroke-opacity="1" stroke-width="1" stroke-linecap="square" stroke-linejoin="bevel" transform="matrix(1,0,0,1,-110,-18)"
font-family="Sans Serif" font-size="9" font-weight="400" font-style="normal" 
>
<text fill="#000000" fill-opacity="1" stroke="none" xml:space="preserve" x="214" y="1101" font-family="Sans Serif" font-size="9" font-weight="400" font-style="normal" 
 >+ RecurrentNetwork(layerCount : unsigned, sizes[] : unsigned, dimension : unsigned, alpha : float)</text>
</g>

<g fill="#ffff00" fill-opacity="1" stroke="#000000" stroke-opacity="1" stroke-width="1" stroke-linecap="square" stroke-linejoin="bevel" transform="matrix(1,0,0,1,-110,-18)"
font-family="Sans Serif" font-size="9" font-weight="400" font-style="normal" 
>
<text fill="#000000" fill-opacity="1" stroke="none" xml:space="preserve" x="214" y="1115" font-family="Sans Serif" font-size="9" font-weight="400" font-style="normal" 
 >+ update()</text>
</g>

<g fill="#ffff00" fill-opacity="1" stroke="#000000" stroke-opacity="1" stroke-width="1" stroke-linecap="square" stroke-linejoin="bevel" transform="matrix(1,0,0,1,-110,-18)"
font-family="Sans Serif" font-size="9" font-weight="400" font-style="normal" 
>
<text fill="#000000" fill-opacity="1" stroke="none" xml:space="preserve" x="214" y="1129" font-family="Sans Serif" font-size="9" font-weight="400" font-style="normal" 
 >+ reset()</text>
</g>

<g fill="#ffff00" fill-opacity="1" stroke="#ff0000" stroke-opacity="1" stroke-width="1" stroke-linecap="square" stroke-linejoin="bevel" transform="matrix(1,0,0,1,-110,-18)"
font-family="Sans Serif" font-size="9" font-weight="400" font-style="normal" 
>
<path vector-effect="non-scaling-stroke" fill-rule="evenodd" d="M675,156 L1077,156 L1077,247 L675,247 L675,156"/>
</g>

<g fill="#ffff00" fill-opacity="1" stroke="#000000" stroke-opacity="1" stroke-width="1" stroke-linecap="square" stroke-linejoin="bevel" transform="matrix(1,0,0,1,-110,-18)"
font-family="Sans Serif" font-size="9" font-weight="700" font-style="normal" 
>
<text fill="#000000" fill-opacity="1" stroke="none" xml:space="preserve" x="796" y="166" font-family="Sans Serif" font-size="9" font-weight="700" font-style="normal" 
 >NeuralNET::RecurrentPerceptron</text>
</g>

<g fill="#ffff00" fill-opacity="1" stroke="#ff0000" stroke-opacity="1" stroke-width="1" stroke-linecap="square" stroke-linejoin="bevel" transform="matrix(1,0,0,1,-110,-18)"
font-family="Sans Serif" font-size="9" font-weight="700" font-style="normal" 
>
<polyline fill="none" vector-effect="non-scaling-stroke" points="675,170 1076,170 " />
</g>

<g fill="#ffff00" fill-opacity="1" stroke="#ff0000" stroke-opacity="1" stroke-width="1" stroke-linecap="square" stroke-linejoin="bevel" transform="matrix(1,0,0,1,-110,-18)"
font-family="Sans Serif" font-size="9" font-weight="400" font-style="normal" 
>
<polyline fill="none" vector-effect="non-scaling-stroke" points="675,177 1076,177 " />
</g>

<g fill="#ffff00" fill-opacity="1" stroke="#000000" stroke-opacity="1" stroke-width="1" stroke-linecap="square" stroke-linejoin="bevel" transform="matrix(1,0,0,1,-110,-18)"
font-family="Sans Serif" font-size="9" font-weight="400" font-style="normal" 
>
<text fill="#000000" fill-opacity="1" stroke="none" xml:space="preserve" x="680" y="187" font-family="Sans Serif" font-size="9" font-weight="400" font-style="normal" 
 >+ RecurrentPerceptron(dimension : unsigned int, alpha : float)</text>
</g>

<g fill="#ffff00" fill-opacity="1" stroke="#000000" stroke-opacity="1" stroke-width="1" stroke-linecap="square" stroke-linejoin="bevel" transform="matrix(1,0,0,1,-110,-18)"
font-family="Sans Serif" font-size="9" font-weight="400" font-style="normal" 
>
<text fill="#000000" fill-opacity="1" stroke="none" xml:space="preserve" x="680" y="201" font-family="Sans Serif" font-size="9" font-weight="400" font-style="normal" 
 >+ getLastOutput() : float</text>
</g>

<g fill="#ffff00" fill-opacity="1" stroke="#000000" stroke-opacity="1" stroke-width="1" stroke-linecap="square" stroke-linejoin="bevel" transform="matrix(1,0,0,1,-110,-18)"
font-family="Sans Serif" font-size="9" font-weight="400" font-style="normal" 
>
<text fill="#000000" fill-opacity="1" stroke="none" xml:space="preserve" x="680" y="215" font-family="Sans Serif" font-size="9" font-weight="400" font-style="normal" 
 >+ update()</text>
</g>

<g fill="#ffff00" fill-opacity="1" stroke="#000000" stroke-opacity="1" stroke-width="1" stroke-linecap="square" stroke-linejoin="bevel" transform="matrix(1,0,0,1,-110,-18)"
font-family="Sans Serif" font-size="9" font-weight="400" font-style="normal" 
>
<text fill="#000000" fill-opacity="1" stroke="none" xml:space="preserve" x="680" y="229" font-family="Sans Serif" font-size="9" font-weight="400" font-style="normal" 
 >+ reset()</text>
</g>

<g fill="#ffff00" fill-opacity="1" stroke="#000000" stroke-opacity="1" stroke-width="1" stroke-linecap="square" stroke-linejoin="bevel" transform="matrix(1,0,0,1,-110,-18)"
font-family="Sans Serif" font-size="9" font-weight="400" font-style="normal" 
>
<text fill="#000000" fill-opacity="1" stroke="none" xml:space="preserve" x="680" y="243" font-family="Sans Serif" font-size="9" font-weight="400" font-style="normal" 
 >+ classify(input : vector&lt; float &gt;) : float</text>
</g>
</g>
</svg>
